<svg xmlns="http://www.w3.org/2000/svg" viewBox="0 0 704 365.99999999999994" width="704" height="365.99999999999994">
  <defs>
    <filter id="shadow" x="-10%" y="-10%" width="120%" height="120%">
      <feDropShadow dx="0" dy="4" stdDeviation="8" flood-opacity="0.3"/>
    </filter>
  </defs>
  <rect x="0" y="0" width="704" height="365.99999999999994" fill="#1e1e1e" rx="10" ry="10" filter="url(#shadow)"/>
  <g class="title-bar">
    <rect x="0" y="0" width="704" height="40" fill="rgb(36, 37, 38)" rx="10" ry="10"/>
    <rect x="0" y="30" width="704" height="10" fill="rgb(36, 37, 38)"/>
    <circle cx="16" cy="20" r="6" fill="#ff5f56"/>
    <circle cx="36" cy="20" r="6" fill="#ffbd2e"/>
    <circle cx="56" cy="20" r="6" fill="#27c93f"/>
  </g>
  <g class="glyphs">
    <line x1="111.10000000000001" y1="75.6" x2="111.10000000000001" y2="85.39999999999999" stroke="#d4d4d4" stroke-width="1"/><line x1="114.10000000000001" y1="75.6" x2="114.10000000000001" y2="85.39999999999999" stroke="#d4d4d4" stroke-width="1"/><line x1="111.10000000000001" y1="85.39999999999999" x2="111.10000000000001" y2="95.19999999999999" stroke="#d4d4d4" stroke-width="1"/><line x1="114.10000000000001" y1="85.39999999999999" x2="114.10000000000001" y2="95.19999999999999" stroke="#d4d4d4" stroke-width="1"/><line x1="108.4" y1="85.39999999999999" x2="112.60000000000001" y2="85.39999999999999" stroke="#d4d4d4" stroke-width="1"/>
    <rect x="116.80000000000001" y="75.6" width="8.4" height="19.599999999999998" fill="#de5285" shape-rendering="crispEdges"/>
    <rect x="125.20000000000002" y="75.6" width="8.4" height="19.599999999999998" fill="#da5587" shape-rendering="crispEdges"/>
    <rect x="133.60000000000002" y="75.6" width="8.4" height="19.599999999999998" fill="#d75889" shape-rendering="crispEdges"/>
    <rect x="142.00000000000003" y="75.6" width="8.4" height="19.599999999999998" fill="#d35b8b" shape-rendering="crispEdges"/>
    <rect x="150.40000000000003" y="75.6" width="8.4" height="19.599999999999998" fill="#cf5d8d" shape-rendering="crispEdges"/>
    <rect x="158.80000000000004" y="75.6" width="8.4" height="19.599999999999998" fill="#cc608f" shape-rendering="crispEdges"/>
    <rect x="167.20000000000005" y="75.6" width="8.4" height="19.599999999999998" fill="#c86391" shape-rendering="crispEdges"/>
    <rect x="175.60000000000005" y="75.6" width="8.4" height="19.599999999999998" fill="#c56693" shape-rendering="crispEdges"/>
    <rect x="184.00000000000006" y="75.6" width="8.4" height="19.599999999999998" fill="#c16995" shape-rendering="crispEdges"/>
    <rect x="192.40000000000006" y="75.6" width="8.4" height="19.599999999999998" fill="#bd6c97" shape-rendering="crispEdges"/>
    <rect x="200.80000000000007" y="75.6" width="8.4" height="19.599999999999998" fill="#ba6e99" shape-rendering="crispEdges"/>
    <rect x="209.20000000000007" y="75.6" width="8.4" height="19.599999999999998" fill="#b6719b" shape-rendering="crispEdges"/>
    <rect x="217.60000000000008" y="75.6" width="8.4" height="19.599999999999998" fill="#b2749d" shape-rendering="crispEdges"/>
    <rect x="226.00000000000009" y="75.6" width="8.4" height="19.599999999999998" fill="#af779f" shape-rendering="crispEdges"/>
    <rect x="234.4000000000001" y="75.6" width="8.4" height="19.599999999999998" fill="#ab7aa1" shape-rendering="crispEdges"/>
    <rect x="242.8000000000001" y="75.6" width="8.4" height="19.599999999999998" fill="#a77da3" shape-rendering="crispEdges"/>
    <rect x="251.2000000000001" y="75.6" width="8.4" height="19.599999999999998" fill="#a47fa5" shape-rendering="crispEdges"/>
    <rect x="259.6000000000001" y="75.6" width="8.4" height="19.599999999999998" fill="#a082a7" shape-rendering="crispEdges"/>
    <rect x="268.00000000000006" y="75.6" width="8.4" height="19.599999999999998" fill="#9c85a9" shape-rendering="crispEdges"/>
    <rect x="276.40000000000003" y="75.6" width="8.4" height="19.599999999999998" fill="#9988ab" shape-rendering="crispEdges"/>
    <rect x="284.8" y="75.6" width="8.4" height="19.599999999999998" fill="#958bad" shape-rendering="crispEdges"/>
    <rect x="293.2" y="75.6" width="8.4" height="19.599999999999998" fill="#928eaf" shape-rendering="crispEdges"/>
    <rect x="301.59999999999997" y="75.6" width="8.4" height="19.599999999999998" fill="#8e90b1" shape-rendering="crispEdges"/>
    <line x1="111.10000000000001" y1="95.19999999999999" x2="111.10000000000001" y2="104.99999999999999" stroke="#d4d4d4" stroke-width="1"/><line x1="114.10000000000001" y1="95.19999999999999" x2="114.10000000000001" y2="104.99999999999999" stroke="#d4d4d4" stroke-width="1"/><line x1="111.10000000000001" y1="104.99999999999999" x2="111.10000000000001" y2="114.79999999999998" stroke="#d4d4d4" stroke-width="1"/><line x1="114.10000000000001" y1="104.99999999999999" x2="114.10000000000001" y2="114.79999999999998" stroke="#d4d4d4" stroke-width="1"/>
    <line x1="111.10000000000001" y1="114.80000000000001" x2="111.10000000000001" y2="124.60000000000001" stroke="#d4d4d4" stroke-width="1"/><line x1="114.10000000000001" y1="114.80000000000001" x2="114.10000000000001" y2="124.60000000000001" stroke="#d4d4d4" stroke-width="1"/><line x1="111.10000000000001" y1="124.60000000000001" x2="111.10000000000001" y2="134.4" stroke="#d4d4d4" stroke-width="1"/><line x1="114.10000000000001" y1="124.60000000000001" x2="114.10000000000001" y2="134.4" stroke="#d4d4d4" stroke-width="1"/><line x1="108.4" y1="124.60000000000001" x2="112.60000000000001" y2="124.60000000000001" stroke="#d4d4d4" stroke-width="1"/>
    <rect x="116.80000000000001" y="114.80000000000001" width="8.4" height="19.599999999999998" fill="#de5285" shape-rendering="crispEdges"/>
    <rect x="125.20000000000002" y="114.80000000000001" width="8.4" height="19.599999999999998" fill="#da5587" shape-rendering="crispEdges"/>
    <rect x="133.60000000000002" y="114.80000000000001" width="8.4" height="19.599999999999998" fill="#d75889" shape-rendering="crispEdges"/>
    <rect x="142.00000000000003" y="114.80000000000001" width="8.4" height="19.599999999999998" fill="#d35b8b" shape-rendering="crispEdges"/>
    <rect x="150.40000000000003" y="114.80000000000001" width="8.4" height="19.599999999999998" fill="#cf5d8d" shape-rendering="crispEdges"/>
    <rect x="158.80000000000004" y="114.80000000000001" width="8.4" height="19.599999999999998" fill="#cc608f" shape-rendering="crispEdges"/>
    <rect x="167.20000000000005" y="114.80000000000001" width="8.4" height="19.599999999999998" fill="#c86391" shape-rendering="crispEdges"/>
    <rect x="175.60000000000005" y="114.80000000000001" width="8.4" height="19.599999999999998" fill="#c56693" shape-rendering="crispEdges"/>
    <rect x="184.00000000000006" y="114.80000000000001" width="8.4" height="19.599999999999998" fill="#c16995" shape-rendering="crispEdges"/>
    <rect x="192.40000000000006" y="114.80000000000001" width="8.4" height="19.599999999999998" fill="#bd6c97" shape-rendering="crispEdges"/>
    <rect x="200.80000000000007" y="114.80000000000001" width="8.4" height="19.599999999999998" fill="#ba6e99" shape-rendering="crispEdges"/>
    <rect x="209.20000000000007" y="114.80000000000001" width="8.4" height="19.599999999999998" fill="#b6719b" shape-rendering="crispEdges"/>
    <rect x="217.60000000000008" y="114.80000000000001" width="8.4" height="19.599999999999998" fill="#b2749d" shape-rendering="crispEdges"/>
    <rect x="226.00000000000009" y="114.80000000000001" width="8.4" height="19.599999999999998" fill="#af779f" shape-rendering="crispEdges"/>
    <rect x="234.4000000000001" y="114.80000000000001" width="8.4" height="19.599999999999998" fill="#ab7aa1" shape-rendering="crispEdges"/>
    <rect x="242.8000000000001" y="114.80000000000001" width="8.4" height="19.599999999999998" fill="#a77da3" shape-rendering="crispEdges"/>
    <rect x="251.2000000000001" y="114.80000000000001" width="8.4" height="19.599999999999998" fill="#a47fa5" shape-rendering="crispEdges"/>
    <rect x="259.6000000000001" y="114.80000000000001" width="8.4" height="19.599999999999998" fill="#a082a7" shape-rendering="crispEdges"/>
    <rect x="268.00000000000006" y="114.80000000000001" width="8.4" height="19.599999999999998" fill="#9c85a9" shape-rendering="crispEdges"/>
    <rect x="276.40000000000003" y="114.80000000000001" width="8.4" height="19.599999999999998" fill="#9988ab" shape-rendering="crispEdges"/>
    <rect x="284.8" y="114.80000000000001" width="8.4" height="19.599999999999998" fill="#958bad" shape-rendering="crispEdges"/>
    <rect x="293.2" y="114.80000000000001" width="8.4" height="19.599999999999998" fill="#928eaf" shape-rendering="crispEdges"/>
    <rect x="301.59999999999997" y="114.80000000000001" width="8.4" height="19.599999999999998" fill="#8e90b1" shape-rendering="crispEdges"/>
    <rect x="309.99999999999994" y="114.80000000000001" width="8.4" height="19.599999999999998" fill="#8a93b3" shape-rendering="crispEdges"/>
    <rect x="318.3999999999999" y="114.80000000000001" width="8.4" height="19.599999999999998" fill="#8796b5" shape-rendering="crispEdges"/>
    <rect x="326.7999999999999" y="114.80000000000001" width="8.4" height="19.599999999999998" fill="#8399b7" shape-rendering="crispEdges"/>
    <line x1="111.10000000000001" y1="134.39999999999998" x2="111.10000000000001" y2="144.2" stroke="#d4d4d4" stroke-width="1"/><line x1="114.10000000000001" y1="134.39999999999998" x2="114.10000000000001" y2="144.2" stroke="#d4d4d4" stroke-width="1"/><line x1="111.10000000000001" y1="144.2" x2="111.10000000000001" y2="153.99999999999997" stroke="#d4d4d4" stroke-width="1"/><line x1="114.10000000000001" y1="144.2" x2="114.10000000000001" y2="153.99999999999997" stroke="#d4d4d4" stroke-width="1"/>
    <line x1="111.10000000000001" y1="154" x2="111.10000000000001" y2="163.8" stroke="#d4d4d4" stroke-width="1"/><line x1="114.10000000000001" y1="154" x2="114.10000000000001" y2="163.8" stroke="#d4d4d4" stroke-width="1"/><line x1="111.10000000000001" y1="163.8" x2="111.10000000000001" y2="173.6" stroke="#d4d4d4" stroke-width="1"/><line x1="114.10000000000001" y1="163.8" x2="114.10000000000001" y2="173.6" stroke="#d4d4d4" stroke-width="1"/><line x1="108.4" y1="163.8" x2="112.60000000000001" y2="163.8" stroke="#d4d4d4" stroke-width="1"/>
    <rect x="116.80000000000001" y="154" width="8.4" height="19.599999999999998" fill="#de5285" shape-rendering="crispEdges"/>
    <rect x="125.20000000000002" y="154" width="8.4" height="19.599999999999998" fill="#da5587" shape-rendering="crispEdges"/>
    <rect x="133.60000000000002" y="154" width="8.4" height="19.599999999999998" fill="#d75889" shape-rendering="crispEdges"/>
    <rect x="142.00000000000003" y="154" width="8.4" height="19.599999999999998" fill="#d35b8b" shape-rendering="crispEdges"/>
    <rect x="150.40000000000003" y="154" width="8.4" height="19.599999999999998" fill="#cf5d8d" shape-rendering="crispEdges"/>
    <rect x="158.80000000000004" y="154" width="8.4" height="19.599999999999998" fill="#cc608f" shape-rendering="crispEdges"/>
    <rect x="167.20000000000005" y="154" width="8.4" height="19.599999999999998" fill="#c86391" shape-rendering="crispEdges"/>
    <rect x="175.60000000000005" y="154" width="8.4" height="19.599999999999998" fill="#c56693" shape-rendering="crispEdges"/>
    <rect x="184.00000000000006" y="154" width="8.4" height="19.599999999999998" fill="#c16995" shape-rendering="crispEdges"/>
    <rect x="192.40000000000006" y="154" width="8.4" height="19.599999999999998" fill="#bd6c97" shape-rendering="crispEdges"/>
    <rect x="200.80000000000007" y="154" width="8.4" height="19.599999999999998" fill="#ba6e99" shape-rendering="crispEdges"/>
    <rect x="209.20000000000007" y="154" width="8.4" height="19.599999999999998" fill="#b6719b" shape-rendering="crispEdges"/>
    <rect x="217.60000000000008" y="154" width="8.4" height="19.599999999999998" fill="#b2749d" shape-rendering="crispEdges"/>
    <rect x="226.00000000000009" y="154" width="8.4" height="19.599999999999998" fill="#af779f" shape-rendering="crispEdges"/>
    <rect x="234.4000000000001" y="154" width="8.4" height="19.599999999999998" fill="#ab7aa1" shape-rendering="crispEdges"/>
    <rect x="242.8000000000001" y="154" width="8.4" height="19.599999999999998" fill="#a77da3" shape-rendering="crispEdges"/>
    <rect x="251.2000000000001" y="154" width="8.4" height="19.599999999999998" fill="#a47fa5" shape-rendering="crispEdges"/>
    <rect x="259.6000000000001" y="154" width="8.4" height="19.599999999999998" fill="#a082a7" shape-rendering="crispEdges"/>
    <rect x="268.00000000000006" y="154" width="8.4" height="19.599999999999998" fill="#9c85a9" shape-rendering="crispEdges"/>
    <rect x="276.40000000000003" y="154" width="8.4" height="19.599999999999998" fill="#9988ab" shape-rendering="crispEdges"/>
    <rect x="284.8" y="154" width="8.4" height="19.599999999999998" fill="#958bad" shape-rendering="crispEdges"/>
    <rect x="293.2" y="154" width="8.4" height="19.599999999999998" fill="#928eaf" shape-rendering="crispEdges"/>
    <rect x="301.59999999999997" y="154" width="8.4" height="19.599999999999998" fill="#8e90b1" shape-rendering="crispEdges"/>
    <rect x="309.99999999999994" y="154" width="8.4" height="19.599999999999998" fill="#8a93b3" shape-rendering="crispEdges"/>
    <rect x="318.3999999999999" y="154" width="8.4" height="19.599999999999998" fill="#8796b5" shape-rendering="crispEdges"/>
    <rect x="326.7999999999999" y="154" width="8.4" height="19.599999999999998" fill="#8399b7" shape-rendering="crispEdges"/>
    <rect x="335.1999999999999" y="154" width="8.4" height="19.599999999999998" fill="#7f9cb9" shape-rendering="crispEdges"/>
    <rect x="343.59999999999985" y="154" width="8.4" height="19.599999999999998" fill="#7c9fbb" shape-rendering="crispEdges"/>
    <rect x="351.99999999999983" y="154" width="8.4" height="19.599999999999998" fill="#78a1bd" shape-rendering="crispEdges"/>
    <rect x="360.3999999999998" y="154" width="8.4" height="19.599999999999998" fill="#74a4bf" shape-rendering="crispEdges"/>
    <line x1="111.10000000000001" y1="173.6" x2="111.10000000000001" y2="183.4" stroke="#d4d4d4" stroke-width="1"/><line x1="114.10000000000001" y1="173.6" x2="114.10000000000001" y2="183.4" stroke="#d4d4d4" stroke-width="1"/><line x1="111.10000000000001" y1="183.4" x2="111.10000000000001" y2="193.2" stroke="#d4d4d4" stroke-width="1"/><line x1="114.10000000000001" y1="183.4" x2="114.10000000000001" y2="193.2" stroke="#d4d4d4" stroke-width="1"/>
    <line x1="111.10000000000001" y1="193.2" x2="111.10000000000001" y2="203" stroke="#d4d4d4" stroke-width="1"/><line x1="114.10000000000001" y1="193.2" x2="114.10000000000001" y2="203" stroke="#d4d4d4" stroke-width="1"/><line x1="111.10000000000001" y1="203" x2="111.10000000000001" y2="212.79999999999998" stroke="#d4d4d4" stroke-width="1"/><line x1="114.10000000000001" y1="203" x2="114.10000000000001" y2="212.79999999999998" stroke="#d4d4d4" stroke-width="1"/><line x1="108.4" y1="203" x2="112.60000000000001" y2="203" stroke="#d4d4d4" stroke-width="1"/>
    <rect x="116.80000000000001" y="193.2" width="8.4" height="19.599999999999998" fill="#de5285" shape-rendering="crispEdges"/>
    <rect x="125.20000000000002" y="193.2" width="8.4" height="19.599999999999998" fill="#da5587" shape-rendering="crispEdges"/>
    <rect x="133.60000000000002" y="193.2" width="8.4" height="19.599999999999998" fill="#d75889" shape-rendering="crispEdges"/>
    <rect x="142.00000000000003" y="193.2" width="8.4" height="19.599999999999998" fill="#d35b8b" shape-rendering="crispEdges"/>
    <rect x="150.40000000000003" y="193.2" width="8.4" height="19.599999999999998" fill="#cf5d8d" shape-rendering="crispEdges"/>
    <rect x="158.80000000000004" y="193.2" width="8.4" height="19.599999999999998" fill="#cc608f" shape-rendering="crispEdges"/>
    <rect x="167.20000000000005" y="193.2" width="8.4" height="19.599999999999998" fill="#c86391" shape-rendering="crispEdges"/>
    <rect x="175.60000000000005" y="193.2" width="8.4" height="19.599999999999998" fill="#c56693" shape-rendering="crispEdges"/>
    <rect x="184.00000000000006" y="193.2" width="8.4" height="19.599999999999998" fill="#c16995" shape-rendering="crispEdges"/>
    <rect x="192.40000000000006" y="193.2" width="8.4" height="19.599999999999998" fill="#bd6c97" shape-rendering="crispEdges"/>
    <rect x="200.80000000000007" y="193.2" width="8.4" height="19.599999999999998" fill="#ba6e99" shape-rendering="crispEdges"/>
    <rect x="209.20000000000007" y="193.2" width="8.4" height="19.599999999999998" fill="#b6719b" shape-rendering="crispEdges"/>
    <rect x="217.60000000000008" y="193.2" width="8.4" height="19.599999999999998" fill="#b2749d" shape-rendering="crispEdges"/>
    <rect x="226.00000000000009" y="193.2" width="8.4" height="19.599999999999998" fill="#af779f" shape-rendering="crispEdges"/>
    <rect x="234.4000000000001" y="193.2" width="8.4" height="19.599999999999998" fill="#ab7aa1" shape-rendering="crispEdges"/>
    <rect x="242.8000000000001" y="193.2" width="8.4" height="19.599999999999998" fill="#a77da3" shape-rendering="crispEdges"/>
    <rect x="251.2000000000001" y="193.2" width="8.4" height="19.599999999999998" fill="#a47fa5" shape-rendering="crispEdges"/>
    <rect x="259.6000000000001" y="193.2" width="8.4" height="19.599999999999998" fill="#a082a7" shape-rendering="crispEdges"/>
    <rect x="268.00000000000006" y="193.2" width="8.4" height="19.599999999999998" fill="#9c85a9" shape-rendering="crispEdges"/>
    <rect x="276.40000000000003" y="193.2" width="8.4" height="19.599999999999998" fill="#9988ab" shape-rendering="crispEdges"/>
    <rect x="284.8" y="193.2" width="8.4" height="19.599999999999998" fill="#958bad" shape-rendering="crispEdges"/>
    <rect x="293.2" y="193.2" width="8.4" height="19.599999999999998" fill="#928eaf" shape-rendering="crispEdges"/>
    <rect x="301.59999999999997" y="193.2" width="8.4" height="19.599999999999998" fill="#8e90b1" shape-rendering="crispEdges"/>
    <rect x="309.99999999999994" y="193.2" width="8.4" height="19.599999999999998" fill="#8a93b3" shape-rendering="crispEdges"/>
    <rect x="318.3999999999999" y="193.2" width="8.4" height="19.599999999999998" fill="#8796b5" shape-rendering="crispEdges"/>
    <rect x="326.7999999999999" y="193.2" width="8.4" height="19.599999999999998" fill="#8399b7" shape-rendering="crispEdges"/>
    <rect x="335.1999999999999" y="193.2" width="8.4" height="19.599999999999998" fill="#7f9cb9" shape-rendering="crispEdges"/>
    <rect x="343.59999999999985" y="193.2" width="8.4" height="19.599999999999998" fill="#7c9fbb" shape-rendering="crispEdges"/>
    <rect x="351.99999999999983" y="193.2" width="8.4" height="19.599999999999998" fill="#78a1bd" shape-rendering="crispEdges"/>
    <rect x="360.3999999999998" y="193.2" width="8.4" height="19.599999999999998" fill="#74a4bf" shape-rendering="crispEdges"/>
    <rect x="368.7999999999998" y="193.2" width="8.4" height="19.599999999999998" fill="#71a7c1" shape-rendering="crispEdges"/>
    <rect x="377.19999999999976" y="193.2" width="8.4" height="19.599999999999998" fill="#6daac3" shape-rendering="crispEdges"/>
    <rect x="385.59999999999974" y="193.2" width="8.4" height="19.599999999999998" fill="#6aadc5" shape-rendering="crispEdges"/>
    <rect x="393.9999999999997" y="193.2" width="8.4" height="19.599999999999998" fill="#66b0c7" shape-rendering="crispEdges"/>
    <rect x="402.3999999999997" y="193.2" width="8.4" height="19.599999999999998" fill="#62b2c9" shape-rendering="crispEdges"/>
    <rect x="410.79999999999967" y="193.2" width="8.4" height="19.599999999999998" fill="#5fb5cb" shape-rendering="crispEdges"/>
    <rect x="419.19999999999965" y="193.2" width="8.4" height="19.599999999999998" fill="#5bb8cd" shape-rendering="crispEdges"/>
    <rect x="427.5999999999996" y="193.2" width="8.4" height="19.599999999999998" fill="#57bbcf" shape-rendering="crispEdges"/>
    <rect x="435.9999999999996" y="193.2" width="8.4" height="19.599999999999998" fill="#54bed1" shape-rendering="crispEdges"/>
    <rect x="444.3999999999996" y="193.2" width="8.4" height="19.599999999999998" fill="#50c1d3" shape-rendering="crispEdges"/>
    <line x1="111.10000000000001" y1="212.79999999999998" x2="111.10000000000001" y2="222.6" stroke="#d4d4d4" stroke-width="1"/><line x1="114.10000000000001" y1="212.79999999999998" x2="114.10000000000001" y2="222.6" stroke="#d4d4d4" stroke-width="1"/><line x1="111.10000000000001" y1="222.6" x2="111.10000000000001" y2="232.39999999999998" stroke="#d4d4d4" stroke-width="1"/><line x1="114.10000000000001" y1="222.6" x2="114.10000000000001" y2="232.39999999999998" stroke="#d4d4d4" stroke-width="1"/>
    <line x1="111.10000000000001" y1="232.39999999999998" x2="111.10000000000001" y2="242.2" stroke="#d4d4d4" stroke-width="1"/><line x1="114.10000000000001" y1="232.39999999999998" x2="114.10000000000001" y2="242.2" stroke="#d4d4d4" stroke-width="1"/><line x1="111.10000000000001" y1="242.2" x2="111.10000000000001" y2="251.99999999999997" stroke="#d4d4d4" stroke-width="1"/><line x1="114.10000000000001" y1="242.2" x2="114.10000000000001" y2="251.99999999999997" stroke="#d4d4d4" stroke-width="1"/><line x1="108.4" y1="242.2" x2="112.60000000000001" y2="242.2" stroke="#d4d4d4" stroke-width="1"/>
    <rect x="116.80000000000001" y="232.39999999999998" width="8.4" height="19.599999999999998" fill="#de5285" shape-rendering="crispEdges"/>
    <rect x="125.20000000000002" y="232.39999999999998" width="8.4" height="19.599999999999998" fill="#da5587" shape-rendering="crispEdges"/>
    <rect x="133.60000000000002" y="232.39999999999998" width="8.4" height="19.599999999999998" fill="#d75889" shape-rendering="crispEdges"/>
    <rect x="142.00000000000003" y="232.39999999999998" width="8.4" height="19.599999999999998" fill="#d35b8b" shape-rendering="crispEdges"/>
    <rect x="150.40000000000003" y="232.39999999999998" width="8.4" height="19.599999999999998" fill="#cf5d8d" shape-rendering="crispEdges"/>
    <rect x="158.80000000000004" y="232.39999999999998" width="8.4" height="19.599999999999998" fill="#cc608f" shape-rendering="crispEdges"/>
    <rect x="167.20000000000005" y="232.39999999999998" width="8.4" height="19.599999999999998" fill="#c86391" shape-rendering="crispEdges"/>
    <rect x="175.60000000000005" y="232.39999999999998" width="8.4" height="19.599999999999998" fill="#c56693" shape-rendering="crispEdges"/>
    <rect x="184.00000000000006" y="232.39999999999998" width="8.4" height="19.599999999999998" fill="#c16995" shape-rendering="crispEdges"/>
    <rect x="192.40000000000006" y="232.39999999999998" width="8.4" height="19.599999999999998" fill="#bd6c97" shape-rendering="crispEdges"/>
    <rect x="200.80000000000007" y="232.39999999999998" width="8.4" height="19.599999999999998" fill="#ba6e99" shape-rendering="crispEdges"/>
    <rect x="209.20000000000007" y="232.39999999999998" width="8.4" height="19.599999999999998" fill="#b6719b" shape-rendering="crispEdges"/>
    <rect x="217.60000000000008" y="232.39999999999998" width="8.4" height="19.599999999999998" fill="#b2749d" shape-rendering="crispEdges"/>
    <rect x="226.00000000000009" y="232.39999999999998" width="8.4" height="19.599999999999998" fill="#af779f" shape-rendering="crispEdges"/>
    <rect x="234.4000000000001" y="232.39999999999998" width="8.4" height="19.599999999999998" fill="#ab7aa1" shape-rendering="crispEdges"/>
    <rect x="242.8000000000001" y="232.39999999999998" width="8.4" height="19.599999999999998" fill="#a77da3" shape-rendering="crispEdges"/>
    <rect x="251.2000000000001" y="232.39999999999998" width="8.4" height="19.599999999999998" fill="#a47fa5" shape-rendering="crispEdges"/>
    <rect x="259.6000000000001" y="232.39999999999998" width="8.4" height="19.599999999999998" fill="#a082a7" shape-rendering="crispEdges"/>
    <rect x="268.00000000000006" y="232.39999999999998" width="8.4" height="19.599999999999998" fill="#9c85a9" shape-rendering="crispEdges"/>
    <rect x="276.40000000000003" y="232.39999999999998" width="8.4" height="19.599999999999998" fill="#9988ab" shape-rendering="crispEdges"/>
    <rect x="284.8" y="232.39999999999998" width="8.4" height="19.599999999999998" fill="#958bad" shape-rendering="crispEdges"/>
    <rect x="293.2" y="232.39999999999998" width="8.4" height="19.599999999999998" fill="#928eaf" shape-rendering="crispEdges"/>
    <rect x="301.59999999999997" y="232.39999999999998" width="8.4" height="19.599999999999998" fill="#8e90b1" shape-rendering="crispEdges"/>
    <rect x="309.99999999999994" y="232.39999999999998" width="8.4" height="19.599999999999998" fill="#8a93b3" shape-rendering="crispEdges"/>
    <rect x="318.3999999999999" y="232.39999999999998" width="8.4" height="19.599999999999998" fill="#8796b5" shape-rendering="crispEdges"/>
    <rect x="326.7999999999999" y="232.39999999999998" width="8.4" height="19.599999999999998" fill="#8399b7" shape-rendering="crispEdges"/>
    <rect x="335.1999999999999" y="232.39999999999998" width="8.4" height="19.599999999999998" fill="#7f9cb9" shape-rendering="crispEdges"/>
    <rect x="343.59999999999985" y="232.39999999999998" width="8.4" height="19.599999999999998" fill="#7c9fbb" shape-rendering="crispEdges"/>
    <rect x="351.99999999999983" y="232.39999999999998" width="8.4" height="19.599999999999998" fill="#78a1bd" shape-rendering="crispEdges"/>
    <rect x="360.3999999999998" y="232.39999999999998" width="8.4" height="19.599999999999998" fill="#74a4bf" shape-rendering="crispEdges"/>
    <rect x="368.7999999999998" y="232.39999999999998" width="8.4" height="19.599999999999998" fill="#71a7c1" shape-rendering="crispEdges"/>
    <rect x="377.19999999999976" y="232.39999999999998" width="8.4" height="19.599999999999998" fill="#6daac3" shape-rendering="crispEdges"/>
    <rect x="385.59999999999974" y="232.39999999999998" width="8.4" height="19.599999999999998" fill="#6aadc5" shape-rendering="crispEdges"/>
    <rect x="393.9999999999997" y="232.39999999999998" width="8.4" height="19.599999999999998" fill="#66b0c7" shape-rendering="crispEdges"/>
    <rect x="402.3999999999997" y="232.39999999999998" width="8.4" height="19.599999999999998" fill="#62b2c9" shape-rendering="crispEdges"/>
    <rect x="410.79999999999967" y="232.39999999999998" width="8.4" height="19.599999999999998" fill="#5fb5cb" shape-rendering="crispEdges"/>
    <rect x="419.19999999999965" y="232.39999999999998" width="8.4" height="19.599999999999998" fill="#5bb8cd" shape-rendering="crispEdges"/>
    <rect x="427.5999999999996" y="232.39999999999998" width="8.4" height="19.599999999999998" fill="#57bbcf" shape-rendering="crispEdges"/>
    <rect x="435.9999999999996" y="232.39999999999998" width="8.4" height="19.599999999999998" fill="#54bed1" shape-rendering="crispEdges"/>
    <rect x="444.3999999999996" y="232.39999999999998" width="8.4" height="19.599999999999998" fill="#50c1d3" shape-rendering="crispEdges"/>
    <rect x="452.79999999999956" y="232.39999999999998" width="8.4" height="19.599999999999998" fill="#4cc3d5" shape-rendering="crispEdges"/>
    <rect x="461.19999999999953" y="232.39999999999998" width="8.4" height="19.599999999999998" fill="#49c6d7" shape-rendering="crispEdges"/>
    <line x1="111.10000000000001" y1="252" x2="111.10000000000001" y2="261.8" stroke="#d4d4d4" stroke-width="1"/><line x1="114.10000000000001" y1="252" x2="114.10000000000001" y2="261.8" stroke="#d4d4d4" stroke-width="1"/><line x1="111.10000000000001" y1="261.8" x2="111.10000000000001" y2="271.6" stroke="#d4d4d4" stroke-width="1"/><line x1="114.10000000000001" y1="261.8" x2="114.10000000000001" y2="271.6" stroke="#d4d4d4" stroke-width="1"/>
    <line x1="111.10000000000001" y1="271.59999999999997" x2="111.10000000000001" y2="281.4" stroke="#d4d4d4" stroke-width="1"/><line x1="114.10000000000001" y1="271.59999999999997" x2="114.10000000000001" y2="281.4" stroke="#d4d4d4" stroke-width="1"/><line x1="111.10000000000001" y1="281.4" x2="111.10000000000001" y2="291.2" stroke="#d4d4d4" stroke-width="1"/><line x1="114.10000000000001" y1="281.4" x2="114.10000000000001" y2="291.2" stroke="#d4d4d4" stroke-width="1"/><line x1="108.4" y1="281.4" x2="112.60000000000001" y2="281.4" stroke="#d4d4d4" stroke-width="1"/>
    <rect x="116.80000000000001" y="271.59999999999997" width="8.4" height="19.599999999999998" fill="#de5285" shape-rendering="crispEdges"/>
    <rect x="125.20000000000002" y="271.59999999999997" width="8.4" height="19.599999999999998" fill="#da5587" shape-rendering="crispEdges"/>
    <rect x="133.60000000000002" y="271.59999999999997" width="8.4" height="19.599999999999998" fill="#d75889" shape-rendering="crispEdges"/>
    <rect x="142.00000000000003" y="271.59999999999997" width="8.4" height="19.599999999999998" fill="#d35b8b" shape-rendering="crispEdges"/>
    <rect x="150.40000000000003" y="271.59999999999997" width="8.4" height="19.599999999999998" fill="#cf5d8d" shape-rendering="crispEdges"/>
    <rect x="158.80000000000004" y="271.59999999999997" width="8.4" height="19.599999999999998" fill="#cc608f" shape-rendering="crispEdges"/>
    <rect x="167.20000000000005" y="271.59999999999997" width="8.4" height="19.599999999999998" fill="#c86391" shape-rendering="crispEdges"/>
    <rect x="175.60000000000005" y="271.59999999999997" width="8.4" height="19.599999999999998" fill="#c56693" shape-rendering="crispEdges"/>
    <rect x="184.00000000000006" y="271.59999999999997" width="8.4" height="19.599999999999998" fill="#c16995" shape-rendering="crispEdges"/>
    <rect x="192.40000000000006" y="271.59999999999997" width="8.4" height="19.599999999999998" fill="#bd6c97" shape-rendering="crispEdges"/>
    <rect x="200.80000000000007" y="271.59999999999997" width="8.4" height="19.599999999999998" fill="#ba6e99" shape-rendering="crispEdges"/>
    <rect x="209.20000000000007" y="271.59999999999997" width="8.4" height="19.599999999999998" fill="#b6719b" shape-rendering="crispEdges"/>
    <rect x="217.60000000000008" y="271.59999999999997" width="8.4" height="19.599999999999998" fill="#b2749d" shape-rendering="crispEdges"/>
    <rect x="226.00000000000009" y="271.59999999999997" width="8.4" height="19.599999999999998" fill="#af779f" shape-rendering="crispEdges"/>
    <rect x="234.4000000000001" y="271.59999999999997" width="8.4" height="19.599999999999998" fill="#ab7aa1" shape-rendering="crispEdges"/>
    <rect x="242.8000000000001" y="271.59999999999997" width="8.4" height="19.599999999999998" fill="#a77da3" shape-rendering="crispEdges"/>
    <rect x="251.2000000000001" y="271.59999999999997" width="8.4" height="19.599999999999998" fill="#a47fa5" shape-rendering="crispEdges"/>
    <rect x="259.6000000000001" y="271.59999999999997" width="8.4" height="19.599999999999998" fill="#a082a7" shape-rendering="crispEdges"/>
    <rect x="268.00000000000006" y="271.59999999999997" width="8.4" height="19.599999999999998" fill="#9c85a9" shape-rendering="crispEdges"/>
    <rect x="276.40000000000003" y="271.59999999999997" width="8.4" height="19.599999999999998" fill="#9988ab" shape-rendering="crispEdges"/>
    <rect x="284.8" y="271.59999999999997" width="8.4" height="19.599999999999998" fill="#958bad" shape-rendering="crispEdges"/>
    <rect x="293.2" y="271.59999999999997" width="8.4" height="19.599999999999998" fill="#928eaf" shape-rendering="crispEdges"/>
    <rect x="301.59999999999997" y="271.59999999999997" width="8.4" height="19.599999999999998" fill="#8e90b1" shape-rendering="crispEdges"/>
    <rect x="309.99999999999994" y="271.59999999999997" width="8.4" height="19.599999999999998" fill="#8a93b3" shape-rendering="crispEdges"/>
    <rect x="318.3999999999999" y="271.59999999999997" width="8.4" height="19.599999999999998" fill="#8796b5" shape-rendering="crispEdges"/>
    <rect x="326.7999999999999" y="271.59999999999997" width="8.4" height="19.599999999999998" fill="#8399b7" shape-rendering="crispEdges"/>
    <rect x="335.1999999999999" y="271.59999999999997" width="8.4" height="19.599999999999998" fill="#7f9cb9" shape-rendering="crispEdges"/>
    <rect x="343.59999999999985" y="271.59999999999997" width="8.4" height="19.599999999999998" fill="#7c9fbb" shape-rendering="crispEdges"/>
    <rect x="351.99999999999983" y="271.59999999999997" width="8.4" height="19.599999999999998" fill="#78a1bd" shape-rendering="crispEdges"/>
    <rect x="360.3999999999998" y="271.59999999999997" width="8.4" height="19.599999999999998" fill="#74a4bf" shape-rendering="crispEdges"/>
    <rect x="368.7999999999998" y="271.59999999999997" width="8.4" height="19.599999999999998" fill="#71a7c1" shape-rendering="crispEdges"/>
    <rect x="377.19999999999976" y="271.59999999999997" width="8.4" height="19.599999999999998" fill="#6daac3" shape-rendering="crispEdges"/>
    <rect x="385.59999999999974" y="271.59999999999997" width="8.4" height="19.599999999999998" fill="#6aadc5" shape-rendering="crispEdges"/>
    <rect x="393.9999999999997" y="271.59999999999997" width="8.4" height="19.599999999999998" fill="#66b0c7" shape-rendering="crispEdges"/>
    <rect x="402.3999999999997" y="271.59999999999997" width="8.4" height="19.599999999999998" fill="#62b2c9" shape-rendering="crispEdges"/>
    <rect x="410.79999999999967" y="271.59999999999997" width="8.4" height="19.599999999999998" fill="#5fb5cb" shape-rendering="crispEdges"/>
    <rect x="419.19999999999965" y="271.59999999999997" width="8.4" height="19.599999999999998" fill="#5bb8cd" shape-rendering="crispEdges"/>
    <rect x="427.5999999999996" y="271.59999999999997" width="8.4" height="19.599999999999998" fill="#57bbcf" shape-rendering="crispEdges"/>
    <rect x="435.9999999999996" y="271.59999999999997" width="8.4" height="19.599999999999998" fill="#54bed1" shape-rendering="crispEdges"/>
    <rect x="444.3999999999996" y="271.59999999999997" width="8.4" height="19.599999999999998" fill="#50c1d3" shape-rendering="crispEdges"/>
    <rect x="452.79999999999956" y="271.59999999999997" width="8.4" height="19.599999999999998" fill="#4cc3d5" shape-rendering="crispEdges"/>
    <rect x="461.19999999999953" y="271.59999999999997" width="8.4" height="19.599999999999998" fill="#49c6d7" shape-rendering="crispEdges"/>
    <rect x="469.5999999999995" y="271.59999999999997" width="8.4" height="19.599999999999998" fill="#45c9d9" shape-rendering="crispEdges"/>
    <rect x="477.9999999999995" y="271.59999999999997" width="8.4" height="19.599999999999998" fill="#42ccdb" shape-rendering="crispEdges"/>
    <rect x="486.39999999999947" y="271.59999999999997" width="8.4" height="19.599999999999998" fill="#3ecfdd" shape-rendering="crispEdges"/>
    <rect x="494.79999999999944" y="271.59999999999997" width="8.4" height="19.599999999999998" fill="#3ad2df" shape-rendering="crispEdges"/>
    <rect x="503.1999999999994" y="271.59999999999997" width="8.4" height="19.599999999999998" fill="#37d4e1" shape-rendering="crispEdges"/>
    <rect x="511.5999999999994" y="271.59999999999997" width="8.4" height="19.599999999999998" fill="#33d7e3" shape-rendering="crispEdges"/>
    <rect x="519.9999999999994" y="271.59999999999997" width="8.4" height="19.599999999999998" fill="#2fdae5" shape-rendering="crispEdges"/>
    <rect x="528.3999999999994" y="271.59999999999997" width="8.4" height="19.599999999999998" fill="#2cdde7" shape-rendering="crispEdges"/>
    <rect x="536.7999999999994" y="271.59999999999997" width="8.4" height="19.599999999999998" fill="#28e0e9" shape-rendering="crispEdges"/>
    <rect x="545.1999999999994" y="271.59999999999997" width="8.4" height="19.599999999999998" fill="#24e3eb" shape-rendering="crispEdges"/>
    <line x1="111.10000000000001" y1="291.2" x2="111.10000000000001" y2="301" stroke="#d4d4d4" stroke-width="1"/><line x1="114.10000000000001" y1="291.2" x2="114.10000000000001" y2="301" stroke="#d4d4d4" stroke-width="1"/><line x1="111.10000000000001" y1="301" x2="111.10000000000001" y2="310.8" stroke="#d4d4d4" stroke-width="1"/><line x1="114.10000000000001" y1="301" x2="114.10000000000001" y2="310.8" stroke="#d4d4d4" stroke-width="1"/>
    <line x1="111.10000000000001" y1="310.79999999999995" x2="111.10000000000001" y2="320.59999999999997" stroke="#d4d4d4" stroke-width="1"/><line x1="114.10000000000001" y1="310.79999999999995" x2="114.10000000000001" y2="320.59999999999997" stroke="#d4d4d4" stroke-width="1"/><line x1="111.10000000000001" y1="320.59999999999997" x2="111.10000000000001" y2="330.4" stroke="#d4d4d4" stroke-width="1"/><line x1="114.10000000000001" y1="320.59999999999997" x2="114.10000000000001" y2="330.4" stroke="#d4d4d4" stroke-width="1"/><line x1="108.4" y1="320.59999999999997" x2="112.60000000000001" y2="320.59999999999997" stroke="#d4d4d4" stroke-width="1"/>
    <rect x="116.80000000000001" y="310.79999999999995" width="8.4" height="19.599999999999998" fill="#de5285" shape-rendering="crispEdges"/>
    <rect x="125.20000000000002" y="310.79999999999995" width="8.4" height="19.599999999999998" fill="#da5587" shape-rendering="crispEdges"/>
    <rect x="133.60000000000002" y="310.79999999999995" width="8.4" height="19.599999999999998" fill="#d75889" shape-rendering="crispEdges"/>
    <rect x="142.00000000000003" y="310.79999999999995" width="8.4" height="19.599999999999998" fill="#d35b8b" shape-rendering="crispEdges"/>
    <rect x="150.40000000000003" y="310.79999999999995" width="8.4" height="19.599999999999998" fill="#cf5d8d" shape-rendering="crispEdges"/>
    <rect x="158.80000000000004" y="310.79999999999995" width="8.4" height="19.599999999999998" fill="#cc608f" shape-rendering="crispEdges"/>
    <rect x="167.20000000000005" y="310.79999999999995" width="8.4" height="19.599999999999998" fill="#c86391" shape-rendering="crispEdges"/>
    <rect x="175.60000000000005" y="310.79999999999995" width="8.4" height="19.599999999999998" fill="#c56693" shape-rendering="crispEdges"/>
    <rect x="184.00000000000006" y="310.79999999999995" width="8.4" height="19.599999999999998" fill="#c16995" shape-rendering="crispEdges"/>
    <rect x="192.40000000000006" y="310.79999999999995" width="8.4" height="19.599999999999998" fill="#bd6c97" shape-rendering="crispEdges"/>
    <rect x="200.80000000000007" y="310.79999999999995" width="8.4" height="19.599999999999998" fill="#ba6e99" shape-rendering="crispEdges"/>
    <rect x="209.20000000000007" y="310.79999999999995" width="8.4" height="19.599999999999998" fill="#b6719b" shape-rendering="crispEdges"/>
    <rect x="217.60000000000008" y="310.79999999999995" width="8.4" height="19.599999999999998" fill="#b2749d" shape-rendering="crispEdges"/>
    <rect x="226.00000000000009" y="310.79999999999995" width="8.4" height="19.599999999999998" fill="#af779f" shape-rendering="crispEdges"/>
    <rect x="234.4000000000001" y="310.79999999999995" width="8.4" height="19.599999999999998" fill="#ab7aa1" shape-rendering="crispEdges"/>
    <rect x="242.8000000000001" y="310.79999999999995" width="8.4" height="19.599999999999998" fill="#a77da3" shape-rendering="crispEdges"/>
    <rect x="251.2000000000001" y="310.79999999999995" width="8.4" height="19.599999999999998" fill="#a47fa5" shape-rendering="crispEdges"/>
    <rect x="259.6000000000001" y="310.79999999999995" width="8.4" height="19.599999999999998" fill="#a082a7" shape-rendering="crispEdges"/>
    <rect x="268.00000000000006" y="310.79999999999995" width="8.4" height="19.599999999999998" fill="#9c85a9" shape-rendering="crispEdges"/>
    <rect x="276.40000000000003" y="310.79999999999995" width="8.4" height="19.599999999999998" fill="#9988ab" shape-rendering="crispEdges"/>
    <rect x="284.8" y="310.79999999999995" width="8.4" height="19.599999999999998" fill="#958bad" shape-rendering="crispEdges"/>
    <rect x="293.2" y="310.79999999999995" width="8.4" height="19.599999999999998" fill="#928eaf" shape-rendering="crispEdges"/>
    <rect x="301.59999999999997" y="310.79999999999995" width="8.4" height="19.599999999999998" fill="#8e90b1" shape-rendering="crispEdges"/>
    <rect x="309.99999999999994" y="310.79999999999995" width="8.4" height="19.599999999999998" fill="#8a93b3" shape-rendering="crispEdges"/>
    <rect x="318.3999999999999" y="310.79999999999995" width="8.4" height="19.599999999999998" fill="#8796b5" shape-rendering="crispEdges"/>
    <rect x="326.7999999999999" y="310.79999999999995" width="8.4" height="19.599999999999998" fill="#8399b7" shape-rendering="crispEdges"/>
    <rect x="335.1999999999999" y="310.79999999999995" width="8.4" height="19.599999999999998" fill="#7f9cb9" shape-rendering="crispEdges"/>
    <rect x="343.59999999999985" y="310.79999999999995" width="8.4" height="19.599999999999998" fill="#7c9fbb" shape-rendering="crispEdges"/>
    <rect x="351.99999999999983" y="310.79999999999995" width="8.4" height="19.599999999999998" fill="#78a1bd" shape-rendering="crispEdges"/>
    <rect x="360.3999999999998" y="310.79999999999995" width="8.4" height="19.599999999999998" fill="#74a4bf" shape-rendering="crispEdges"/>
    <rect x="368.7999999999998" y="310.79999999999995" width="8.4" height="19.599999999999998" fill="#71a7c1" shape-rendering="crispEdges"/>
    <rect x="377.19999999999976" y="310.79999999999995" width="8.4" height="19.599999999999998" fill="#6daac3" shape-rendering="crispEdges"/>
    <rect x="385.59999999999974" y="310.79999999999995" width="8.4" height="19.599999999999998" fill="#6aadc5" shape-rendering="crispEdges"/>
    <rect x="393.9999999999997" y="310.79999999999995" width="8.4" height="19.599999999999998" fill="#66b0c7" shape-rendering="crispEdges"/>
    <rect x="402.3999999999997" y="310.79999999999995" width="8.4" height="19.599999999999998" fill="#62b2c9" shape-rendering="crispEdges"/>
    <rect x="410.79999999999967" y="310.79999999999995" width="8.4" height="19.599999999999998" fill="#5fb5cb" shape-rendering="crispEdges"/>
    <rect x="419.19999999999965" y="310.79999999999995" width="8.4" height="19.599999999999998" fill="#5bb8cd" shape-rendering="crispEdges"/>
    <rect x="427.5999999999996" y="310.79999999999995" width="8.4" height="19.599999999999998" fill="#57bbcf" shape-rendering="crispEdges"/>
    <rect x="435.9999999999996" y="310.79999999999995" width="8.4" height="19.599999999999998" fill="#54bed1" shape-rendering="crispEdges"/>
    <rect x="444.3999999999996" y="310.79999999999995" width="8.4" height="19.599999999999998" fill="#50c1d3" shape-rendering="crispEdges"/>
    <rect x="452.79999999999956" y="310.79999999999995" width="8.4" height="19.599999999999998" fill="#4cc3d5" shape-rendering="crispEdges"/>
    <rect x="461.19999999999953" y="310.79999999999995" width="8.4" height="19.599999999999998" fill="#49c6d7" shape-rendering="crispEdges"/>
    <rect x="469.5999999999995" y="310.79999999999995" width="8.4" height="19.599999999999998" fill="#45c9d9" shape-rendering="crispEdges"/>
    <rect x="477.9999999999995" y="310.79999999999995" width="8.4" height="19.599999999999998" fill="#42ccdb" shape-rendering="crispEdges"/>
    <rect x="486.39999999999947" y="310.79999999999995" width="8.4" height="19.599999999999998" fill="#3ecfdd" shape-rendering="crispEdges"/>
    <rect x="494.79999999999944" y="310.79999999999995" width="8.4" height="19.599999999999998" fill="#3ad2df" shape-rendering="crispEdges"/>
    <rect x="503.1999999999994" y="310.79999999999995" width="8.4" height="19.599999999999998" fill="#37d4e1" shape-rendering="crispEdges"/>
    <rect x="511.5999999999994" y="310.79999999999995" width="8.4" height="19.599999999999998" fill="#33d7e3" shape-rendering="crispEdges"/>
    <rect x="519.9999999999994" y="310.79999999999995" width="8.4" height="19.599999999999998" fill="#2fdae5" shape-rendering="crispEdges"/>
    <rect x="528.3999999999994" y="310.79999999999995" width="8.4" height="19.599999999999998" fill="#2cdde7" shape-rendering="crispEdges"/>
    <rect x="536.7999999999994" y="310.79999999999995" width="8.4" height="19.599999999999998" fill="#28e0e9" shape-rendering="crispEdges"/>
    <rect x="545.1999999999994" y="310.79999999999995" width="8.4" height="19.599999999999998" fill="#24e3eb" shape-rendering="crispEdges"/>
    <rect x="553.5999999999993" y="310.79999999999995" width="8.4" height="19.599999999999998" fill="#21e5ed" shape-rendering="crispEdges"/>
    <rect x="561.9999999999993" y="310.79999999999995" width="8.4" height="19.599999999999998" fill="#1de8ef" shape-rendering="crispEdges"/>
    <rect x="570.3999999999993" y="310.79999999999995" width="8.4" height="19.599999999999998" fill="#19ebf1" shape-rendering="crispEdges"/>
    <rect x="578.7999999999993" y="310.79999999999995" width="8.4" height="19.599999999999998" fill="#16eef3" shape-rendering="crispEdges"/>
    <rect x="587.1999999999992" y="310.79999999999995" width="8.4" height="19.599999999999998" fill="#12f1f5" shape-rendering="crispEdges"/>
    <rect x="595.5999999999992" y="310.79999999999995" width="8.4" height="19.599999999999998" fill="#0ff4f7" shape-rendering="crispEdges"/>
    <rect x="603.9999999999992" y="310.79999999999995" width="8.4" height="19.599999999999998" fill="#0bf6f9" shape-rendering="crispEdges"/>
    <rect x="612.3999999999992" y="310.79999999999995" width="8.4" height="19.599999999999998" fill="#07f9fb" shape-rendering="crispEdges"/>
    <rect x="620.7999999999992" y="310.79999999999995" width="8.4" height="19.599999999999998" fill="#04fcfd" shape-rendering="crispEdges"/>
    <rect x="629.1999999999991" y="310.79999999999995" width="8.4" height="19.599999999999998" fill="#00ffff" shape-rendering="crispEdges"/>
    <path d="M 111.10000000000002 330.4 L 111.10000000000002 341.7 L 116.80000000000003 341.7" fill="none" stroke="#d4d4d4" stroke-width="1"/><path d="M 114.10000000000002 330.4 L 114.10000000000002 338.7 L 116.80000000000003 338.7" fill="none" stroke="#d4d4d4" stroke-width="1"/>
    <line x1="116.80000000000003" y1="338.7" x2="121.00000000000003" y2="338.7" stroke="#d4d4d4" stroke-width="1"/><line x1="116.80000000000003" y1="341.7" x2="121.00000000000003" y2="341.7" stroke="#d4d4d4" stroke-width="1"/><line x1="121.00000000000003" y1="338.7" x2="125.20000000000003" y2="338.7" stroke="#d4d4d4" stroke-width="1"/><line x1="121.00000000000003" y1="341.7" x2="125.20000000000003" y2="341.7" stroke="#d4d4d4" stroke-width="1"/>
    <line x1="125.20000000000003" y1="338.7" x2="129.40000000000003" y2="338.7" stroke="#d4d4d4" stroke-width="1"/><line x1="125.20000000000003" y1="341.7" x2="129.40000000000003" y2="341.7" stroke="#d4d4d4" stroke-width="1"/><line x1="129.40000000000003" y1="338.7" x2="133.60000000000002" y2="338.7" stroke="#d4d4d4" stroke-width="1"/><line x1="129.40000000000003" y1="341.7" x2="133.60000000000002" y2="341.7" stroke="#d4d4d4" stroke-width="1"/>
    <line x1="133.60000000000002" y1="338.7" x2="137.8" y2="338.7" stroke="#d4d4d4" stroke-width="1"/><line x1="133.60000000000002" y1="341.7" x2="137.8" y2="341.7" stroke="#d4d4d4" stroke-width="1"/><line x1="137.8" y1="338.7" x2="142.00000000000003" y2="338.7" stroke="#d4d4d4" stroke-width="1"/><line x1="137.8" y1="341.7" x2="142.00000000000003" y2="341.7" stroke="#d4d4d4" stroke-width="1"/>
    <line x1="142.00000000000003" y1="338.7" x2="146.20000000000002" y2="338.7" stroke="#d4d4d4" stroke-width="1"/><line x1="142.00000000000003" y1="341.7" x2="146.20000000000002" y2="341.7" stroke="#d4d4d4" stroke-width="1"/><line x1="146.20000000000002" y1="338.7" x2="150.40000000000003" y2="338.7" stroke="#d4d4d4" stroke-width="1"/><line x1="146.20000000000002" y1="341.7" x2="150.40000000000003" y2="341.7" stroke="#d4d4d4" stroke-width="1"/>
    <line x1="150.40000000000003" y1="338.7" x2="154.60000000000002" y2="338.7" stroke="#d4d4d4" stroke-width="1"/><line x1="150.40000000000003" y1="341.7" x2="154.60000000000002" y2="341.7" stroke="#d4d4d4" stroke-width="1"/><line x1="154.60000000000002" y1="338.7" x2="158.80000000000004" y2="338.7" stroke="#d4d4d4" stroke-width="1"/><line x1="154.60000000000002" y1="341.7" x2="158.80000000000004" y2="341.7" stroke="#d4d4d4" stroke-width="1"/>
    <line x1="158.80000000000004" y1="338.7" x2="163.00000000000003" y2="338.7" stroke="#d4d4d4" stroke-width="1"/><line x1="158.80000000000004" y1="341.7" x2="163.00000000000003" y2="341.7" stroke="#d4d4d4" stroke-width="1"/><line x1="163.00000000000003" y1="338.7" x2="167.20000000000005" y2="338.7" stroke="#d4d4d4" stroke-width="1"/><line x1="163.00000000000003" y1="341.7" x2="167.20000000000005" y2="341.7" stroke="#d4d4d4" stroke-width="1"/>
    <line x1="167.20000000000005" y1="338.7" x2="171.40000000000003" y2="338.7" stroke="#d4d4d4" stroke-width="1"/><line x1="167.20000000000005" y1="341.7" x2="171.40000000000003" y2="341.7" stroke="#d4d4d4" stroke-width="1"/><line x1="171.40000000000003" y1="338.7" x2="175.60000000000005" y2="338.7" stroke="#d4d4d4" stroke-width="1"/><line x1="171.40000000000003" y1="341.7" x2="175.60000000000005" y2="341.7" stroke="#d4d4d4" stroke-width="1"/>
    <line x1="175.60000000000005" y1="338.7" x2="179.80000000000004" y2="338.7" stroke="#d4d4d4" stroke-width="1"/><line x1="175.60000000000005" y1="341.7" x2="179.80000000000004" y2="341.7" stroke="#d4d4d4" stroke-width="1"/><line x1="179.80000000000004" y1="338.7" x2="184.00000000000006" y2="338.7" stroke="#d4d4d4" stroke-width="1"/><line x1="179.80000000000004" y1="341.7" x2="184.00000000000006" y2="341.7" stroke="#d4d4d4" stroke-width="1"/>
    <line x1="184.00000000000006" y1="338.7" x2="188.20000000000005" y2="338.7" stroke="#d4d4d4" stroke-width="1"/><line x1="184.00000000000006" y1="341.7" x2="188.20000000000005" y2="341.7" stroke="#d4d4d4" stroke-width="1"/><line x1="188.20000000000005" y1="338.7" x2="192.40000000000006" y2="338.7" stroke="#d4d4d4" stroke-width="1"/><line x1="188.20000000000005" y1="341.7" x2="192.40000000000006" y2="341.7" stroke="#d4d4d4" stroke-width="1"/>
    <line x1="192.40000000000006" y1="338.7" x2="196.60000000000005" y2="338.7" stroke="#d4d4d4" stroke-width="1"/><line x1="192.40000000000006" y1="341.7" x2="196.60000000000005" y2="341.7" stroke="#d4d4d4" stroke-width="1"/><line x1="196.60000000000005" y1="338.7" x2="200.80000000000007" y2="338.7" stroke="#d4d4d4" stroke-width="1"/><line x1="196.60000000000005" y1="341.7" x2="200.80000000000007" y2="341.7" stroke="#d4d4d4" stroke-width="1"/>
    <line x1="200.80000000000007" y1="338.7" x2="205.00000000000006" y2="338.7" stroke="#d4d4d4" stroke-width="1"/><line x1="200.80000000000007" y1="341.7" x2="205.00000000000006" y2="341.7" stroke="#d4d4d4" stroke-width="1"/><line x1="205.00000000000006" y1="338.7" x2="209.20000000000007" y2="338.7" stroke="#d4d4d4" stroke-width="1"/><line x1="205.00000000000006" y1="341.7" x2="209.20000000000007" y2="341.7" stroke="#d4d4d4" stroke-width="1"/>
    <line x1="209.20000000000007" y1="338.7" x2="213.40000000000006" y2="338.7" stroke="#d4d4d4" stroke-width="1"/><line x1="209.20000000000007" y1="341.7" x2="213.40000000000006" y2="341.7" stroke="#d4d4d4" stroke-width="1"/><line x1="213.40000000000006" y1="338.7" x2="217.60000000000008" y2="338.7" stroke="#d4d4d4" stroke-width="1"/><line x1="213.40000000000006" y1="341.7" x2="217.60000000000008" y2="341.7" stroke="#d4d4d4" stroke-width="1"/>
    <line x1="217.60000000000008" y1="338.7" x2="221.80000000000007" y2="338.7" stroke="#d4d4d4" stroke-width="1"/><line x1="217.60000000000008" y1="341.7" x2="221.80000000000007" y2="341.7" stroke="#d4d4d4" stroke-width="1"/><line x1="221.80000000000007" y1="338.7" x2="226.00000000000009" y2="338.7" stroke="#d4d4d4" stroke-width="1"/><line x1="221.80000000000007" y1="341.7" x2="226.00000000000009" y2="341.7" stroke="#d4d4d4" stroke-width="1"/>
    <line x1="226.00000000000009" y1="338.7" x2="230.20000000000007" y2="338.7" stroke="#d4d4d4" stroke-width="1"/><line x1="226.00000000000009" y1="341.7" x2="230.20000000000007" y2="341.7" stroke="#d4d4d4" stroke-width="1"/><line x1="230.20000000000007" y1="338.7" x2="234.4000000000001" y2="338.7" stroke="#d4d4d4" stroke-width="1"/><line x1="230.20000000000007" y1="341.7" x2="234.4000000000001" y2="341.7" stroke="#d4d4d4" stroke-width="1"/>
    <line x1="234.4000000000001" y1="338.7" x2="238.60000000000008" y2="338.7" stroke="#d4d4d4" stroke-width="1"/><line x1="234.4000000000001" y1="341.7" x2="238.60000000000008" y2="341.7" stroke="#d4d4d4" stroke-width="1"/><line x1="238.60000000000008" y1="338.7" x2="242.8000000000001" y2="338.7" stroke="#d4d4d4" stroke-width="1"/><line x1="238.60000000000008" y1="341.7" x2="242.8000000000001" y2="341.7" stroke="#d4d4d4" stroke-width="1"/>
    <line x1="242.8000000000001" y1="338.7" x2="247.00000000000009" y2="338.7" stroke="#d4d4d4" stroke-width="1"/><line x1="242.8000000000001" y1="341.7" x2="247.00000000000009" y2="341.7" stroke="#d4d4d4" stroke-width="1"/><line x1="247.00000000000009" y1="338.7" x2="251.2000000000001" y2="338.7" stroke="#d4d4d4" stroke-width="1"/><line x1="247.00000000000009" y1="341.7" x2="251.2000000000001" y2="341.7" stroke="#d4d4d4" stroke-width="1"/>
    <line x1="251.2000000000001" y1="338.7" x2="255.4000000000001" y2="338.7" stroke="#d4d4d4" stroke-width="1"/><line x1="251.2000000000001" y1="341.7" x2="255.4000000000001" y2="341.7" stroke="#d4d4d4" stroke-width="1"/><line x1="255.4000000000001" y1="338.7" x2="259.6000000000001" y2="338.7" stroke="#d4d4d4" stroke-width="1"/><line x1="255.4000000000001" y1="341.7" x2="259.6000000000001" y2="341.7" stroke="#d4d4d4" stroke-width="1"/>
    <line x1="259.6000000000001" y1="338.7" x2="263.80000000000007" y2="338.7" stroke="#d4d4d4" stroke-width="1"/><line x1="259.6000000000001" y1="341.7" x2="263.80000000000007" y2="341.7" stroke="#d4d4d4" stroke-width="1"/><line x1="263.80000000000007" y1="338.7" x2="268.00000000000006" y2="338.7" stroke="#d4d4d4" stroke-width="1"/><line x1="263.80000000000007" y1="341.7" x2="268.00000000000006" y2="341.7" stroke="#d4d4d4" stroke-width="1"/>
    <line x1="268.00000000000006" y1="338.7" x2="272.20000000000005" y2="338.7" stroke="#d4d4d4" stroke-width="1"/><line x1="268.00000000000006" y1="341.7" x2="272.20000000000005" y2="341.7" stroke="#d4d4d4" stroke-width="1"/><line x1="272.20000000000005" y1="338.7" x2="276.40000000000003" y2="338.7" stroke="#d4d4d4" stroke-width="1"/><line x1="272.20000000000005" y1="341.7" x2="276.40000000000003" y2="341.7" stroke="#d4d4d4" stroke-width="1"/>
    <line x1="276.40000000000003" y1="338.7" x2="280.6" y2="338.7" stroke="#d4d4d4" stroke-width="1"/><line x1="276.40000000000003" y1="341.7" x2="280.6" y2="341.7" stroke="#d4d4d4" stroke-width="1"/><line x1="280.6" y1="338.7" x2="284.8" y2="338.7" stroke="#d4d4d4" stroke-width="1"/><line x1="280.6" y1="341.7" x2="284.8" y2="341.7" stroke="#d4d4d4" stroke-width="1"/>
    <line x1="284.8" y1="338.7" x2="289" y2="338.7" stroke="#d4d4d4" stroke-width="1"/><line x1="284.8" y1="341.7" x2="289" y2="341.7" stroke="#d4d4d4" stroke-width="1"/><line x1="289" y1="338.7" x2="293.2" y2="338.7" stroke="#d4d4d4" stroke-width="1"/><line x1="289" y1="341.7" x2="293.2" y2="341.7" stroke="#d4d4d4" stroke-width="1"/>
    <line x1="293.2" y1="338.7" x2="297.4" y2="338.7" stroke="#d4d4d4" stroke-width="1"/><line x1="293.2" y1="341.7" x2="297.4" y2="341.7" stroke="#d4d4d4" stroke-width="1"/><line x1="297.4" y1="338.7" x2="301.59999999999997" y2="338.7" stroke="#d4d4d4" stroke-width="1"/><line x1="297.4" y1="341.7" x2="301.59999999999997" y2="341.7" stroke="#d4d4d4" stroke-width="1"/>
    <line x1="301.59999999999997" y1="338.7" x2="305.79999999999995" y2="338.7" stroke="#d4d4d4" stroke-width="1"/><line x1="301.59999999999997" y1="341.7" x2="305.79999999999995" y2="341.7" stroke="#d4d4d4" stroke-width="1"/><line x1="305.79999999999995" y1="338.7" x2="309.99999999999994" y2="338.7" stroke="#d4d4d4" stroke-width="1"/><line x1="305.79999999999995" y1="341.7" x2="309.99999999999994" y2="341.7" stroke="#d4d4d4" stroke-width="1"/>
    <line x1="309.99999999999994" y1="338.7" x2="314.19999999999993" y2="338.7" stroke="#d4d4d4" stroke-width="1"/><line x1="309.99999999999994" y1="341.7" x2="314.19999999999993" y2="341.7" stroke="#d4d4d4" stroke-width="1"/><line x1="314.19999999999993" y1="338.7" x2="318.3999999999999" y2="338.7" stroke="#d4d4d4" stroke-width="1"/><line x1="314.19999999999993" y1="341.7" x2="318.3999999999999" y2="341.7" stroke="#d4d4d4" stroke-width="1"/>
    <line x1="318.3999999999999" y1="338.7" x2="322.5999999999999" y2="338.7" stroke="#d4d4d4" stroke-width="1"/><line x1="318.3999999999999" y1="341.7" x2="322.5999999999999" y2="341.7" stroke="#d4d4d4" stroke-width="1"/><line x1="322.5999999999999" y1="338.7" x2="326.7999999999999" y2="338.7" stroke="#d4d4d4" stroke-width="1"/><line x1="322.5999999999999" y1="341.7" x2="326.7999999999999" y2="341.7" stroke="#d4d4d4" stroke-width="1"/>
    <line x1="326.7999999999999" y1="338.7" x2="330.9999999999999" y2="338.7" stroke="#d4d4d4" stroke-width="1"/><line x1="326.7999999999999" y1="341.7" x2="330.9999999999999" y2="341.7" stroke="#d4d4d4" stroke-width="1"/><line x1="330.9999999999999" y1="338.7" x2="335.1999999999999" y2="338.7" stroke="#d4d4d4" stroke-width="1"/><line x1="330.9999999999999" y1="341.7" x2="335.1999999999999" y2="341.7" stroke="#d4d4d4" stroke-width="1"/>
    <line x1="335.1999999999999" y1="338.7" x2="339.39999999999986" y2="338.7" stroke="#d4d4d4" stroke-width="1"/><line x1="335.1999999999999" y1="341.7" x2="339.39999999999986" y2="341.7" stroke="#d4d4d4" stroke-width="1"/><line x1="339.39999999999986" y1="338.7" x2="343.59999999999985" y2="338.7" stroke="#d4d4d4" stroke-width="1"/><line x1="339.39999999999986" y1="341.7" x2="343.59999999999985" y2="341.7" stroke="#d4d4d4" stroke-width="1"/>
    <line x1="343.59999999999985" y1="338.7" x2="347.79999999999984" y2="338.7" stroke="#d4d4d4" stroke-width="1"/><line x1="343.59999999999985" y1="341.7" x2="347.79999999999984" y2="341.7" stroke="#d4d4d4" stroke-width="1"/><line x1="347.79999999999984" y1="338.7" x2="351.99999999999983" y2="338.7" stroke="#d4d4d4" stroke-width="1"/><line x1="347.79999999999984" y1="341.7" x2="351.99999999999983" y2="341.7" stroke="#d4d4d4" stroke-width="1"/>
    <line x1="351.99999999999983" y1="338.7" x2="356.1999999999998" y2="338.7" stroke="#d4d4d4" stroke-width="1"/><line x1="351.99999999999983" y1="341.7" x2="356.1999999999998" y2="341.7" stroke="#d4d4d4" stroke-width="1"/><line x1="356.1999999999998" y1="338.7" x2="360.3999999999998" y2="338.7" stroke="#d4d4d4" stroke-width="1"/><line x1="356.1999999999998" y1="341.7" x2="360.3999999999998" y2="341.7" stroke="#d4d4d4" stroke-width="1"/>
    <line x1="360.3999999999998" y1="338.7" x2="364.5999999999998" y2="338.7" stroke="#d4d4d4" stroke-width="1"/><line x1="360.3999999999998" y1="341.7" x2="364.5999999999998" y2="341.7" stroke="#d4d4d4" stroke-width="1"/><line x1="364.5999999999998" y1="338.7" x2="368.7999999999998" y2="338.7" stroke="#d4d4d4" stroke-width="1"/><line x1="364.5999999999998" y1="341.7" x2="368.7999999999998" y2="341.7" stroke="#d4d4d4" stroke-width="1"/>
    <line x1="368.7999999999998" y1="338.7" x2="372.9999999999998" y2="338.7" stroke="#d4d4d4" stroke-width="1"/><line x1="368.7999999999998" y1="341.7" x2="372.9999999999998" y2="341.7" stroke="#d4d4d4" stroke-width="1"/><line x1="372.9999999999998" y1="338.7" x2="377.19999999999976" y2="338.7" stroke="#d4d4d4" stroke-width="1"/><line x1="372.9999999999998" y1="341.7" x2="377.19999999999976" y2="341.7" stroke="#d4d4d4" stroke-width="1"/>
    <line x1="377.19999999999976" y1="338.7" x2="381.39999999999975" y2="338.7" stroke="#d4d4d4" stroke-width="1"/><line x1="377.19999999999976" y1="341.7" x2="381.39999999999975" y2="341.7" stroke="#d4d4d4" stroke-width="1"/><line x1="381.39999999999975" y1="338.7" x2="385.59999999999974" y2="338.7" stroke="#d4d4d4" stroke-width="1"/><line x1="381.39999999999975" y1="341.7" x2="385.59999999999974" y2="341.7" stroke="#d4d4d4" stroke-width="1"/>
    <line x1="385.59999999999974" y1="338.7" x2="389.7999999999997" y2="338.7" stroke="#d4d4d4" stroke-width="1"/><line x1="385.59999999999974" y1="341.7" x2="389.7999999999997" y2="341.7" stroke="#d4d4d4" stroke-width="1"/><line x1="389.7999999999997" y1="338.7" x2="393.9999999999997" y2="338.7" stroke="#d4d4d4" stroke-width="1"/><line x1="389.7999999999997" y1="341.7" x2="393.9999999999997" y2="341.7" stroke="#d4d4d4" stroke-width="1"/>
    <line x1="393.9999999999997" y1="338.7" x2="398.1999999999997" y2="338.7" stroke="#d4d4d4" stroke-width="1"/><line x1="393.9999999999997" y1="341.7" x2="398.1999999999997" y2="341.7" stroke="#d4d4d4" stroke-width="1"/><line x1="398.1999999999997" y1="338.7" x2="402.3999999999997" y2="338.7" stroke="#d4d4d4" stroke-width="1"/><line x1="398.1999999999997" y1="341.7" x2="402.3999999999997" y2="341.7" stroke="#d4d4d4" stroke-width="1"/>
    <line x1="402.3999999999997" y1="338.7" x2="406.5999999999997" y2="338.7" stroke="#d4d4d4" stroke-width="1"/><line x1="402.3999999999997" y1="341.7" x2="406.5999999999997" y2="341.7" stroke="#d4d4d4" stroke-width="1"/><line x1="406.5999999999997" y1="338.7" x2="410.79999999999967" y2="338.7" stroke="#d4d4d4" stroke-width="1"/><line x1="406.5999999999997" y1="341.7" x2="410.79999999999967" y2="341.7" stroke="#d4d4d4" stroke-width="1"/>
    <line x1="410.79999999999967" y1="338.7" x2="414.99999999999966" y2="338.7" stroke="#d4d4d4" stroke-width="1"/><line x1="410.79999999999967" y1="341.7" x2="414.99999999999966" y2="341.7" stroke="#d4d4d4" stroke-width="1"/><line x1="414.99999999999966" y1="338.7" x2="419.19999999999965" y2="338.7" stroke="#d4d4d4" stroke-width="1"/><line x1="414.99999999999966" y1="341.7" x2="419.19999999999965" y2="341.7" stroke="#d4d4d4" stroke-width="1"/>
    <line x1="419.19999999999965" y1="338.7" x2="423.39999999999964" y2="338.7" stroke="#d4d4d4" stroke-width="1"/><line x1="419.19999999999965" y1="341.7" x2="423.39999999999964" y2="341.7" stroke="#d4d4d4" stroke-width="1"/><line x1="423.39999999999964" y1="338.7" x2="427.5999999999996" y2="338.7" stroke="#d4d4d4" stroke-width="1"/><line x1="423.39999999999964" y1="341.7" x2="427.5999999999996" y2="341.7" stroke="#d4d4d4" stroke-width="1"/>
    <line x1="427.5999999999996" y1="338.7" x2="431.7999999999996" y2="338.7" stroke="#d4d4d4" stroke-width="1"/><line x1="427.5999999999996" y1="341.7" x2="431.7999999999996" y2="341.7" stroke="#d4d4d4" stroke-width="1"/><line x1="431.7999999999996" y1="338.7" x2="435.9999999999996" y2="338.7" stroke="#d4d4d4" stroke-width="1"/><line x1="431.7999999999996" y1="341.7" x2="435.9999999999996" y2="341.7" stroke="#d4d4d4" stroke-width="1"/>
    <line x1="435.9999999999996" y1="338.7" x2="440.1999999999996" y2="338.7" stroke="#d4d4d4" stroke-width="1"/><line x1="435.9999999999996" y1="341.7" x2="440.1999999999996" y2="341.7" stroke="#d4d4d4" stroke-width="1"/><line x1="440.1999999999996" y1="338.7" x2="444.3999999999996" y2="338.7" stroke="#d4d4d4" stroke-width="1"/><line x1="440.1999999999996" y1="341.7" x2="444.3999999999996" y2="341.7" stroke="#d4d4d4" stroke-width="1"/>
    <line x1="444.3999999999996" y1="338.7" x2="448.59999999999957" y2="338.7" stroke="#d4d4d4" stroke-width="1"/><line x1="444.3999999999996" y1="341.7" x2="448.59999999999957" y2="341.7" stroke="#d4d4d4" stroke-width="1"/><line x1="448.59999999999957" y1="338.7" x2="452.79999999999956" y2="338.7" stroke="#d4d4d4" stroke-width="1"/><line x1="448.59999999999957" y1="341.7" x2="452.79999999999956" y2="341.7" stroke="#d4d4d4" stroke-width="1"/>
    <line x1="452.79999999999956" y1="338.7" x2="456.99999999999955" y2="338.7" stroke="#d4d4d4" stroke-width="1"/><line x1="452.79999999999956" y1="341.7" x2="456.99999999999955" y2="341.7" stroke="#d4d4d4" stroke-width="1"/><line x1="456.99999999999955" y1="338.7" x2="461.19999999999953" y2="338.7" stroke="#d4d4d4" stroke-width="1"/><line x1="456.99999999999955" y1="341.7" x2="461.19999999999953" y2="341.7" stroke="#d4d4d4" stroke-width="1"/>
    <line x1="461.19999999999953" y1="338.7" x2="465.3999999999995" y2="338.7" stroke="#d4d4d4" stroke-width="1"/><line x1="461.19999999999953" y1="341.7" x2="465.3999999999995" y2="341.7" stroke="#d4d4d4" stroke-width="1"/><line x1="465.3999999999995" y1="338.7" x2="469.5999999999995" y2="338.7" stroke="#d4d4d4" stroke-width="1"/><line x1="465.3999999999995" y1="341.7" x2="469.5999999999995" y2="341.7" stroke="#d4d4d4" stroke-width="1"/>
    <line x1="469.5999999999995" y1="338.7" x2="473.7999999999995" y2="338.7" stroke="#d4d4d4" stroke-width="1"/><line x1="469.5999999999995" y1="341.7" x2="473.7999999999995" y2="341.7" stroke="#d4d4d4" stroke-width="1"/><line x1="473.7999999999995" y1="338.7" x2="477.9999999999995" y2="338.7" stroke="#d4d4d4" stroke-width="1"/><line x1="473.7999999999995" y1="341.7" x2="477.9999999999995" y2="341.7" stroke="#d4d4d4" stroke-width="1"/>
    <line x1="477.9999999999995" y1="338.7" x2="482.1999999999995" y2="338.7" stroke="#d4d4d4" stroke-width="1"/><line x1="477.9999999999995" y1="341.7" x2="482.1999999999995" y2="341.7" stroke="#d4d4d4" stroke-width="1"/><line x1="482.1999999999995" y1="338.7" x2="486.39999999999947" y2="338.7" stroke="#d4d4d4" stroke-width="1"/><line x1="482.1999999999995" y1="341.7" x2="486.39999999999947" y2="341.7" stroke="#d4d4d4" stroke-width="1"/>
    <line x1="486.39999999999947" y1="338.7" x2="490.59999999999945" y2="338.7" stroke="#d4d4d4" stroke-width="1"/><line x1="486.39999999999947" y1="341.7" x2="490.59999999999945" y2="341.7" stroke="#d4d4d4" stroke-width="1"/><line x1="490.59999999999945" y1="338.7" x2="494.79999999999944" y2="338.7" stroke="#d4d4d4" stroke-width="1"/><line x1="490.59999999999945" y1="341.7" x2="494.79999999999944" y2="341.7" stroke="#d4d4d4" stroke-width="1"/>
    <line x1="494.79999999999944" y1="338.7" x2="498.99999999999943" y2="338.7" stroke="#d4d4d4" stroke-width="1"/><line x1="494.79999999999944" y1="341.7" x2="498.99999999999943" y2="341.7" stroke="#d4d4d4" stroke-width="1"/><line x1="498.99999999999943" y1="338.7" x2="503.1999999999994" y2="338.7" stroke="#d4d4d4" stroke-width="1"/><line x1="498.99999999999943" y1="341.7" x2="503.1999999999994" y2="341.7" stroke="#d4d4d4" stroke-width="1"/>
    <line x1="503.1999999999994" y1="338.7" x2="507.3999999999994" y2="338.7" stroke="#d4d4d4" stroke-width="1"/><line x1="503.1999999999994" y1="341.7" x2="507.3999999999994" y2="341.7" stroke="#d4d4d4" stroke-width="1"/><line x1="507.3999999999994" y1="338.7" x2="511.5999999999994" y2="338.7" stroke="#d4d4d4" stroke-width="1"/><line x1="507.3999999999994" y1="341.7" x2="511.5999999999994" y2="341.7" stroke="#d4d4d4" stroke-width="1"/>
    <line x1="511.5999999999994" y1="338.7" x2="515.7999999999994" y2="338.7" stroke="#d4d4d4" stroke-width="1"/><line x1="511.5999999999994" y1="341.7" x2="515.7999999999994" y2="341.7" stroke="#d4d4d4" stroke-width="1"/><line x1="515.7999999999994" y1="338.7" x2="519.9999999999994" y2="338.7" stroke="#d4d4d4" stroke-width="1"/><line x1="515.7999999999994" y1="341.7" x2="519.9999999999994" y2="341.7" stroke="#d4d4d4" stroke-width="1"/>
    <line x1="519.9999999999994" y1="338.7" x2="524.1999999999995" y2="338.7" stroke="#d4d4d4" stroke-width="1"/><line x1="519.9999999999994" y1="341.7" x2="524.1999999999995" y2="341.7" stroke="#d4d4d4" stroke-width="1"/><line x1="524.1999999999995" y1="338.7" x2="528.3999999999994" y2="338.7" stroke="#d4d4d4" stroke-width="1"/><line x1="524.1999999999995" y1="341.7" x2="528.3999999999994" y2="341.7" stroke="#d4d4d4" stroke-width="1"/>
    <line x1="528.3999999999994" y1="338.7" x2="532.5999999999995" y2="338.7" stroke="#d4d4d4" stroke-width="1"/><line x1="528.3999999999994" y1="341.7" x2="532.5999999999995" y2="341.7" stroke="#d4d4d4" stroke-width="1"/><line x1="532.5999999999995" y1="338.7" x2="536.7999999999994" y2="338.7" stroke="#d4d4d4" stroke-width="1"/><line x1="532.5999999999995" y1="341.7" x2="536.7999999999994" y2="341.7" stroke="#d4d4d4" stroke-width="1"/>
    <line x1="536.7999999999994" y1="338.7" x2="540.9999999999994" y2="338.7" stroke="#d4d4d4" stroke-width="1"/><line x1="536.7999999999994" y1="341.7" x2="540.9999999999994" y2="341.7" stroke="#d4d4d4" stroke-width="1"/><line x1="540.9999999999994" y1="338.7" x2="545.1999999999994" y2="338.7" stroke="#d4d4d4" stroke-width="1"/><line x1="540.9999999999994" y1="341.7" x2="545.1999999999994" y2="341.7" stroke="#d4d4d4" stroke-width="1"/>
    <line x1="545.1999999999994" y1="338.7" x2="549.3999999999994" y2="338.7" stroke="#d4d4d4" stroke-width="1"/><line x1="545.1999999999994" y1="341.7" x2="549.3999999999994" y2="341.7" stroke="#d4d4d4" stroke-width="1"/><line x1="549.3999999999994" y1="338.7" x2="553.5999999999993" y2="338.7" stroke="#d4d4d4" stroke-width="1"/><line x1="549.3999999999994" y1="341.7" x2="553.5999999999993" y2="341.7" stroke="#d4d4d4" stroke-width="1"/>
    <line x1="553.5999999999993" y1="338.7" x2="557.7999999999994" y2="338.7" stroke="#d4d4d4" stroke-width="1"/><line x1="553.5999999999993" y1="341.7" x2="557.7999999999994" y2="341.7" stroke="#d4d4d4" stroke-width="1"/><line x1="557.7999999999994" y1="338.7" x2="561.9999999999993" y2="338.7" stroke="#d4d4d4" stroke-width="1"/><line x1="557.7999999999994" y1="341.7" x2="561.9999999999993" y2="341.7" stroke="#d4d4d4" stroke-width="1"/>
    <line x1="561.9999999999993" y1="338.7" x2="566.1999999999994" y2="338.7" stroke="#d4d4d4" stroke-width="1"/><line x1="561.9999999999993" y1="341.7" x2="566.1999999999994" y2="341.7" stroke="#d4d4d4" stroke-width="1"/><line x1="566.1999999999994" y1="338.7" x2="570.3999999999993" y2="338.7" stroke="#d4d4d4" stroke-width="1"/><line x1="566.1999999999994" y1="341.7" x2="570.3999999999993" y2="341.7" stroke="#d4d4d4" stroke-width="1"/>
    <line x1="570.3999999999993" y1="338.7" x2="574.5999999999993" y2="338.7" stroke="#d4d4d4" stroke-width="1"/><line x1="570.3999999999993" y1="341.7" x2="574.5999999999993" y2="341.7" stroke="#d4d4d4" stroke-width="1"/><line x1="574.5999999999993" y1="338.7" x2="578.7999999999993" y2="338.7" stroke="#d4d4d4" stroke-width="1"/><line x1="574.5999999999993" y1="341.7" x2="578.7999999999993" y2="341.7" stroke="#d4d4d4" stroke-width="1"/>
    <line x1="578.7999999999993" y1="338.7" x2="582.9999999999993" y2="338.7" stroke="#d4d4d4" stroke-width="1"/><line x1="578.7999999999993" y1="341.7" x2="582.9999999999993" y2="341.7" stroke="#d4d4d4" stroke-width="1"/><line x1="582.9999999999993" y1="338.7" x2="587.1999999999992" y2="338.7" stroke="#d4d4d4" stroke-width="1"/><line x1="582.9999999999993" y1="341.7" x2="587.1999999999992" y2="341.7" stroke="#d4d4d4" stroke-width="1"/>
    <line x1="587.1999999999992" y1="338.7" x2="591.3999999999993" y2="338.7" stroke="#d4d4d4" stroke-width="1"/><line x1="587.1999999999992" y1="341.7" x2="591.3999999999993" y2="341.7" stroke="#d4d4d4" stroke-width="1"/><line x1="591.3999999999993" y1="338.7" x2="595.5999999999992" y2="338.7" stroke="#d4d4d4" stroke-width="1"/><line x1="591.3999999999993" y1="341.7" x2="595.5999999999992" y2="341.7" stroke="#d4d4d4" stroke-width="1"/>
    <line x1="595.5999999999992" y1="338.7" x2="599.7999999999993" y2="338.7" stroke="#d4d4d4" stroke-width="1"/><line x1="595.5999999999992" y1="341.7" x2="599.7999999999993" y2="341.7" stroke="#d4d4d4" stroke-width="1"/><line x1="599.7999999999993" y1="338.7" x2="603.9999999999992" y2="338.7" stroke="#d4d4d4" stroke-width="1"/><line x1="599.7999999999993" y1="341.7" x2="603.9999999999992" y2="341.7" stroke="#d4d4d4" stroke-width="1"/>
    <line x1="603.9999999999992" y1="338.7" x2="608.1999999999992" y2="338.7" stroke="#d4d4d4" stroke-width="1"/><line x1="603.9999999999992" y1="341.7" x2="608.1999999999992" y2="341.7" stroke="#d4d4d4" stroke-width="1"/><line x1="608.1999999999992" y1="338.7" x2="612.3999999999992" y2="338.7" stroke="#d4d4d4" stroke-width="1"/><line x1="608.1999999999992" y1="341.7" x2="612.3999999999992" y2="341.7" stroke="#d4d4d4" stroke-width="1"/>
    <line x1="612.3999999999992" y1="338.7" x2="616.5999999999992" y2="338.7" stroke="#d4d4d4" stroke-width="1"/><line x1="612.3999999999992" y1="341.7" x2="616.5999999999992" y2="341.7" stroke="#d4d4d4" stroke-width="1"/><line x1="616.5999999999992" y1="338.7" x2="620.7999999999992" y2="338.7" stroke="#d4d4d4" stroke-width="1"/><line x1="616.5999999999992" y1="341.7" x2="620.7999999999992" y2="341.7" stroke="#d4d4d4" stroke-width="1"/>
    <line x1="620.7999999999992" y1="338.7" x2="624.9999999999992" y2="338.7" stroke="#d4d4d4" stroke-width="1"/><line x1="620.7999999999992" y1="341.7" x2="624.9999999999992" y2="341.7" stroke="#d4d4d4" stroke-width="1"/><line x1="624.9999999999992" y1="338.7" x2="629.1999999999991" y2="338.7" stroke="#d4d4d4" stroke-width="1"/><line x1="624.9999999999992" y1="341.7" x2="629.1999999999991" y2="341.7" stroke="#d4d4d4" stroke-width="1"/>
    <line x1="629.1999999999991" y1="338.7" x2="633.3999999999992" y2="338.7" stroke="#d4d4d4" stroke-width="1"/><line x1="629.1999999999991" y1="341.7" x2="633.3999999999992" y2="341.7" stroke="#d4d4d4" stroke-width="1"/><line x1="633.3999999999992" y1="338.7" x2="637.5999999999991" y2="338.7" stroke="#d4d4d4" stroke-width="1"/><line x1="633.3999999999992" y1="341.7" x2="637.5999999999991" y2="341.7" stroke="#d4d4d4" stroke-width="1"/>
  </g>
  <g class="text">
    <text y="89.6" font-family="'SF Mono', 'Monaco', 'Menlo', 'Ubuntu Mono', 'Consolas', 'Courier New', monospace" font-size="14" xml:space="preserve"><tspan x="16" fill="#de5285">Ruby</tspan><tspan x="49.6" fill="#d4d4d4">       </tspan><tspan x="309.99999999999994" fill="#d4d4d4"> </tspan><tspan x="318.3999999999999" fill="#8e90b1">25.00</tspan></text>
    <text y="109.19999999999999" font-family="'SF Mono', 'Monaco', 'Menlo', 'Ubuntu Mono', 'Consolas', 'Courier New', monospace" font-size="14" xml:space="preserve"><tspan x="16" fill="#d4d4d4">           </tspan></text>
    <text y="128.8" font-family="'SF Mono', 'Monaco', 'Menlo', 'Ubuntu Mono', 'Consolas', 'Courier New', monospace" font-size="14" xml:space="preserve"><tspan x="16" fill="#de5285">Rust</tspan><tspan x="49.6" fill="#d4d4d4">       </tspan><tspan x="335.1999999999999" fill="#d4d4d4"> </tspan><tspan x="343.59999999999985" fill="#8399b7">28.00</tspan></text>
    <text y="148.39999999999998" font-family="'SF Mono', 'Monaco', 'Menlo', 'Ubuntu Mono', 'Consolas', 'Courier New', monospace" font-size="14" xml:space="preserve"><tspan x="16" fill="#d4d4d4">           </tspan></text>
    <text y="168" font-family="'SF Mono', 'Monaco', 'Menlo', 'Ubuntu Mono', 'Consolas', 'Courier New', monospace" font-size="14" xml:space="preserve"><tspan x="16" fill="#de5285">Go</tspan><tspan x="32.8" fill="#d4d4d4">         </tspan><tspan x="368.7999999999998" fill="#d4d4d4"> </tspan><tspan x="377.19999999999976" fill="#74a4bf">32.00</tspan></text>
    <text y="187.6" font-family="'SF Mono', 'Monaco', 'Menlo', 'Ubuntu Mono', 'Consolas', 'Courier New', monospace" font-size="14" xml:space="preserve"><tspan x="16" fill="#d4d4d4">           </tspan></text>
    <text y="207.2" font-family="'SF Mono', 'Monaco', 'Menlo', 'Ubuntu Mono', 'Consolas', 'Courier New', monospace" font-size="14" xml:space="preserve"><tspan x="16" fill="#de5285">Python</tspan><tspan x="66.4" fill="#d4d4d4">     </tspan><tspan x="452.79999999999956" fill="#d4d4d4"> </tspan><tspan x="461.19999999999953" fill="#50c1d3">43.00</tspan></text>
    <text y="226.79999999999998" font-family="'SF Mono', 'Monaco', 'Menlo', 'Ubuntu Mono', 'Consolas', 'Courier New', monospace" font-size="14" xml:space="preserve"><tspan x="16" fill="#d4d4d4">           </tspan></text>
    <text y="246.39999999999998" font-family="'SF Mono', 'Monaco', 'Menlo', 'Ubuntu Mono', 'Consolas', 'Courier New', monospace" font-size="14" xml:space="preserve"><tspan x="16" fill="#de5285">Java</tspan><tspan x="49.6" fill="#d4d4d4">       </tspan><tspan x="469.5999999999995" fill="#d4d4d4"> </tspan><tspan x="477.9999999999995" fill="#49c6d7">45.00</tspan></text>
    <text y="266" font-family="'SF Mono', 'Monaco', 'Menlo', 'Ubuntu Mono', 'Consolas', 'Courier New', monospace" font-size="14" xml:space="preserve"><tspan x="16" fill="#d4d4d4">           </tspan></text>
    <text y="285.59999999999997" font-family="'SF Mono', 'Monaco', 'Menlo', 'Ubuntu Mono', 'Consolas', 'Courier New', monospace" font-size="14" xml:space="preserve"><tspan x="16" fill="#de5285">TypeScript</tspan><tspan x="100" fill="#d4d4d4"> </tspan><tspan x="553.5999999999993" fill="#d4d4d4"> </tspan><tspan x="561.9999999999993" fill="#24e3eb">56.00</tspan></text>
    <text y="305.2" font-family="'SF Mono', 'Monaco', 'Menlo', 'Ubuntu Mono', 'Consolas', 'Courier New', monospace" font-size="14" xml:space="preserve"><tspan x="16" fill="#d4d4d4">           </tspan></text>
    <text y="324.79999999999995" font-family="'SF Mono', 'Monaco', 'Menlo', 'Ubuntu Mono', 'Consolas', 'Courier New', monospace" font-size="14" xml:space="preserve"><tspan x="16" fill="#de5285">JavaScript</tspan><tspan x="100" fill="#d4d4d4"> </tspan><tspan x="637.5999999999991" fill="#d4d4d4"> </tspan><tspan x="645.9999999999991" fill="#00ffff">68.00</tspan></text>
    <text y="344.4" font-family="'SF Mono', 'Monaco', 'Menlo', 'Ubuntu Mono', 'Consolas', 'Courier New', monospace" font-size="14" xml:space="preserve"><tspan x="16" fill="#d4d4d4">           </tspan></text>
  </g>
</svg>