<svg xmlns="http://www.w3.org/2000/svg" viewBox="0 0 914 444.4" width="914" height="444.4">
  <defs>
    <filter id="shadow" x="-10%" y="-10%" width="120%" height="120%">
      <feDropShadow dx="0" dy="4" stdDeviation="8" flood-opacity="0.3"/>
    </filter>
  </defs>
  <rect x="0" y="0" width="914" height="444.4" fill="#1e1e1e" rx="10" ry="10" filter="url(#shadow)"/>
  <g class="title-bar">
    <rect x="0" y="0" width="914" height="39" fill="#1e1e1e" rx="10" ry="10"/>
    <rect x="0" y="29" width="914" height="10" fill="#1e1e1e"/>
    <line x1="0" y1="39.5" x2="914" y2="39.5" stroke="#d4d4d41a" stroke-width="1"/>
    <circle cx="16" cy="19.5" r="6" fill="#ff5f56"/>
    <circle cx="36" cy="19.5" r="6" fill="#ffbd2e"/>
    <circle cx="56" cy="19.5" r="6" fill="#27c93f"/>
  </g>
  <g class="glyphs">
    <line x1="220.3" y1="75.6" x2="220.3" y2="85.39999999999999" stroke="#d4d4d4" stroke-width="1"/><line x1="223.3" y1="75.6" x2="223.3" y2="85.39999999999999" stroke="#d4d4d4" stroke-width="1"/><line x1="220.3" y1="85.39999999999999" x2="220.3" y2="95.19999999999999" stroke="#d4d4d4" stroke-width="1"/><line x1="223.3" y1="85.39999999999999" x2="223.3" y2="95.19999999999999" stroke="#d4d4d4" stroke-width="1"/><line x1="217.60000000000002" y1="85.39999999999999" x2="221.8" y2="85.39999999999999" stroke="#d4d4d4" stroke-width="1"/>
    <rect x="226.00000000000003" y="75.6" width="8.4" height="19.599999999999998" fill="#00ffaf" shape-rendering="crispEdges"/>
    <rect x="234.40000000000003" y="75.6" width="8.4" height="19.599999999999998" fill="#00ffaf" shape-rendering="crispEdges"/>
    <rect x="242.80000000000004" y="75.6" width="8.4" height="19.599999999999998" fill="#00ffaf" shape-rendering="crispEdges"/>
    <rect x="251.20000000000005" y="75.6" width="8.4" height="19.599999999999998" fill="#00ffaf" shape-rendering="crispEdges"/>
    <rect x="259.6" y="75.6" width="8.4" height="19.599999999999998" fill="#00ffaf" shape-rendering="crispEdges"/>
    <rect x="268" y="75.6" width="8.4" height="19.599999999999998" fill="#00ffaf" shape-rendering="crispEdges"/>
    <rect x="276.4" y="75.6" width="8.4" height="19.599999999999998" fill="#00ffaf" shape-rendering="crispEdges"/>
    <rect x="284.79999999999995" y="75.6" width="8.4" height="19.599999999999998" fill="#00ffaf" shape-rendering="crispEdges"/>
    <rect x="293.19999999999993" y="75.6" width="8.4" height="19.599999999999998" fill="#00ffaf" shape-rendering="crispEdges"/>
    <rect x="301.5999999999999" y="75.6" width="8.4" height="19.599999999999998" fill="#00ffaf" shape-rendering="crispEdges"/>
    <rect x="309.9999999999999" y="75.6" width="8.4" height="19.599999999999998" fill="#00ffaf" shape-rendering="crispEdges"/>
    <rect x="318.39999999999986" y="75.6" width="8.4" height="19.599999999999998" fill="#00ffaf" shape-rendering="crispEdges"/>
    <rect x="326.79999999999984" y="75.6" width="8.4" height="19.599999999999998" fill="#00ffaf" shape-rendering="crispEdges"/>
    <rect x="335.1999999999998" y="75.6" width="8.4" height="19.599999999999998" fill="#00ffaf" shape-rendering="crispEdges"/>
    <rect x="343.5999999999998" y="75.6" width="8.4" height="19.599999999999998" fill="#00ffaf" shape-rendering="crispEdges"/>
    <rect x="351.9999999999998" y="75.6" width="8.4" height="19.599999999999998" fill="#00ffaf" shape-rendering="crispEdges"/>
    <rect x="360.39999999999975" y="75.6" width="8.4" height="19.599999999999998" fill="#00ffaf" shape-rendering="crispEdges"/>
    <rect x="368.7999999999997" y="75.6" width="8.4" height="19.599999999999998" fill="#00ffaf" shape-rendering="crispEdges"/>
    <rect x="377.1999999999997" y="75.6" width="8.4" height="19.599999999999998" fill="#00ffaf" shape-rendering="crispEdges"/>
    <line x1="220.3" y1="95.19999999999999" x2="220.3" y2="104.99999999999999" stroke="#d4d4d4" stroke-width="1"/><line x1="223.3" y1="95.19999999999999" x2="223.3" y2="104.99999999999999" stroke="#d4d4d4" stroke-width="1"/><line x1="220.3" y1="104.99999999999999" x2="220.3" y2="114.79999999999998" stroke="#d4d4d4" stroke-width="1"/><line x1="223.3" y1="104.99999999999999" x2="223.3" y2="114.79999999999998" stroke="#d4d4d4" stroke-width="1"/>
    <line x1="220.3" y1="114.80000000000001" x2="220.3" y2="124.60000000000001" stroke="#d4d4d4" stroke-width="1"/><line x1="223.3" y1="114.80000000000001" x2="223.3" y2="124.60000000000001" stroke="#d4d4d4" stroke-width="1"/><line x1="220.3" y1="124.60000000000001" x2="220.3" y2="134.4" stroke="#d4d4d4" stroke-width="1"/><line x1="223.3" y1="124.60000000000001" x2="223.3" y2="134.4" stroke="#d4d4d4" stroke-width="1"/>
    <line x1="220.3" y1="134.39999999999998" x2="220.3" y2="144.2" stroke="#d4d4d4" stroke-width="1"/><line x1="223.3" y1="134.39999999999998" x2="223.3" y2="144.2" stroke="#d4d4d4" stroke-width="1"/><line x1="220.3" y1="144.2" x2="220.3" y2="153.99999999999997" stroke="#d4d4d4" stroke-width="1"/><line x1="223.3" y1="144.2" x2="223.3" y2="153.99999999999997" stroke="#d4d4d4" stroke-width="1"/>
    <line x1="220.3" y1="154" x2="220.3" y2="163.8" stroke="#d4d4d4" stroke-width="1"/><line x1="223.3" y1="154" x2="223.3" y2="163.8" stroke="#d4d4d4" stroke-width="1"/><line x1="220.3" y1="163.8" x2="220.3" y2="173.6" stroke="#d4d4d4" stroke-width="1"/><line x1="223.3" y1="163.8" x2="223.3" y2="173.6" stroke="#d4d4d4" stroke-width="1"/><line x1="217.60000000000002" y1="163.8" x2="221.8" y2="163.8" stroke="#d4d4d4" stroke-width="1"/>
    <rect x="226.00000000000003" y="154" width="8.4" height="19.599999999999998" fill="#ffafff" shape-rendering="crispEdges"/>
    <rect x="234.40000000000003" y="154" width="8.4" height="19.599999999999998" fill="#ffafff" shape-rendering="crispEdges"/>
    <rect x="242.80000000000004" y="154" width="8.4" height="19.599999999999998" fill="#ffafff" shape-rendering="crispEdges"/>
    <rect x="251.20000000000005" y="154" width="8.4" height="19.599999999999998" fill="#ffafff" shape-rendering="crispEdges"/>
    <rect x="259.6" y="154" width="8.4" height="19.599999999999998" fill="#ffafff" shape-rendering="crispEdges"/>
    <rect x="268" y="154" width="8.4" height="19.599999999999998" fill="#ffafff" shape-rendering="crispEdges"/>
    <rect x="276.4" y="154" width="8.4" height="19.599999999999998" fill="#ffafff" shape-rendering="crispEdges"/>
    <rect x="284.79999999999995" y="154" width="8.4" height="19.599999999999998" fill="#ffafff" shape-rendering="crispEdges"/>
    <rect x="293.19999999999993" y="154" width="8.4" height="19.599999999999998" fill="#ffafff" shape-rendering="crispEdges"/>
    <rect x="301.5999999999999" y="154" width="8.4" height="19.599999999999998" fill="#ffafff" shape-rendering="crispEdges"/>
    <rect x="309.9999999999999" y="154" width="8.4" height="19.599999999999998" fill="#ffafff" shape-rendering="crispEdges"/>
    <rect x="318.39999999999986" y="154" width="8.4" height="19.599999999999998" fill="#ffafff" shape-rendering="crispEdges"/>
    <rect x="326.79999999999984" y="154" width="8.4" height="19.599999999999998" fill="#ffafff" shape-rendering="crispEdges"/>
    <rect x="335.1999999999998" y="154" width="8.4" height="19.599999999999998" fill="#ffafff" shape-rendering="crispEdges"/>
    <rect x="343.5999999999998" y="154" width="8.4" height="19.599999999999998" fill="#ffafff" shape-rendering="crispEdges"/>
    <rect x="351.9999999999998" y="154" width="8.4" height="19.599999999999998" fill="#ffafff" shape-rendering="crispEdges"/>
    <rect x="360.39999999999975" y="154" width="8.4" height="19.599999999999998" fill="#ffafff" shape-rendering="crispEdges"/>
    <rect x="368.7999999999997" y="154" width="8.4" height="19.599999999999998" fill="#ffafff" shape-rendering="crispEdges"/>
    <rect x="377.1999999999997" y="154" width="8.4" height="19.599999999999998" fill="#ffafff" shape-rendering="crispEdges"/>
    <rect x="385.5999999999997" y="154" width="8.4" height="19.599999999999998" fill="#ffafff" shape-rendering="crispEdges"/>
    <rect x="393.99999999999966" y="154" width="8.4" height="19.599999999999998" fill="#ffafff" shape-rendering="crispEdges"/>
    <rect x="402.39999999999964" y="154" width="8.4" height="19.599999999999998" fill="#ffafff" shape-rendering="crispEdges"/>
    <rect x="410.7999999999996" y="154" width="8.4" height="19.599999999999998" fill="#ffafff" shape-rendering="crispEdges"/>
    <rect x="419.1999999999996" y="154" width="8.4" height="19.599999999999998" fill="#ffafff" shape-rendering="crispEdges"/>
    <rect x="427.59999999999957" y="154" width="8.4" height="19.599999999999998" fill="#ffafff" shape-rendering="crispEdges"/>
    <rect x="435.99999999999955" y="154" width="8.4" height="19.599999999999998" fill="#ffafff" shape-rendering="crispEdges"/>
    <rect x="444.3999999999995" y="154" width="8.4" height="19.599999999999998" fill="#ffafff" shape-rendering="crispEdges"/>
    <rect x="452.7999999999995" y="154" width="8.4" height="19.599999999999998" fill="#ffafff" shape-rendering="crispEdges"/>
    <rect x="461.1999999999995" y="154" width="8.4" height="19.599999999999998" fill="#ffafff" shape-rendering="crispEdges"/>
    <rect x="469.59999999999945" y="154" width="8.4" height="19.599999999999998" fill="#ffafff" shape-rendering="crispEdges"/>
    <rect x="478" y="154" width="8.4" height="19.599999999999998" fill="#ffafff" shape-rendering="crispEdges"/>
    <rect x="486.4" y="154" width="8.4" height="19.599999999999998" fill="#ffafff" shape-rendering="crispEdges"/>
    <rect x="494.79999999999995" y="154" width="8.4" height="19.599999999999998" fill="#ffafff" shape-rendering="crispEdges"/>
    <rect x="503.19999999999993" y="154" width="8.4" height="19.599999999999998" fill="#ffafff" shape-rendering="crispEdges"/>
    <rect x="511.5999999999999" y="154" width="8.4" height="19.599999999999998" fill="#ffafff" shape-rendering="crispEdges"/>
    <rect x="519.9999999999999" y="154" width="8.4" height="19.599999999999998" fill="#ffafff" shape-rendering="crispEdges"/>
    <rect x="528.3999999999999" y="154" width="8.4" height="19.599999999999998" fill="#ffafff" shape-rendering="crispEdges"/>
    <rect x="536.7999999999998" y="154" width="8.4" height="19.599999999999998" fill="#ffafff" shape-rendering="crispEdges"/>
    <rect x="545.1999999999998" y="154" width="8.4" height="19.599999999999998" fill="#ffafff" shape-rendering="crispEdges"/>
    <rect x="553.5999999999998" y="154" width="8.4" height="19.599999999999998" fill="#ffafff" shape-rendering="crispEdges"/>
    <rect x="561.9999999999998" y="154" width="8.4" height="19.599999999999998" fill="#ffafff" shape-rendering="crispEdges"/>
    <rect x="570.3999999999997" y="154" width="8.4" height="19.599999999999998" fill="#ffafff" shape-rendering="crispEdges"/>
    <rect x="578.7999999999997" y="154" width="8.4" height="19.599999999999998" fill="#ffafff" shape-rendering="crispEdges"/>
    <rect x="587.1999999999997" y="154" width="8.4" height="19.599999999999998" fill="#ffafff" shape-rendering="crispEdges"/>
    <rect x="595.5999999999997" y="154" width="8.4" height="19.599999999999998" fill="#ffafff" shape-rendering="crispEdges"/>
    <rect x="603.9999999999997" y="154" width="8.4" height="19.599999999999998" fill="#ffafff" shape-rendering="crispEdges"/>
    <rect x="612.3999999999996" y="154" width="8.4" height="19.599999999999998" fill="#ffafff" shape-rendering="crispEdges"/>
    <rect x="620.7999999999996" y="154" width="8.4" height="19.599999999999998" fill="#ffafff" shape-rendering="crispEdges"/>
    <rect x="629.1999999999996" y="154" width="8.4" height="19.599999999999998" fill="#ffafff" shape-rendering="crispEdges"/>
    <rect x="637.5999999999996" y="154" width="8.4" height="19.599999999999998" fill="#ffafff" shape-rendering="crispEdges"/>
    <rect x="645.9999999999995" y="154" width="8.4" height="19.599999999999998" fill="#ffafff" shape-rendering="crispEdges"/>
    <rect x="654.4" y="154" width="8.4" height="19.599999999999998" fill="#3b8eea" shape-rendering="crispEdges"/>
    <rect x="662.8" y="154" width="8.4" height="19.599999999999998" fill="#3b8eea" shape-rendering="crispEdges"/>
    <rect x="671.1999999999999" y="154" width="8.4" height="19.599999999999998" fill="#3b8eea" shape-rendering="crispEdges"/>
    <rect x="679.5999999999999" y="154" width="8.4" height="19.599999999999998" fill="#3b8eea" shape-rendering="crispEdges"/>
    <rect x="687.9999999999999" y="154" width="8.4" height="19.599999999999998" fill="#3b8eea" shape-rendering="crispEdges"/>
    <rect x="696.3999999999999" y="154" width="8.4" height="19.599999999999998" fill="#3b8eea" shape-rendering="crispEdges"/>
    <rect x="704.7999999999998" y="154" width="8.4" height="19.599999999999998" fill="#3b8eea" shape-rendering="crispEdges"/>
    <rect x="713.1999999999998" y="154" width="8.4" height="19.599999999999998" fill="#3b8eea" shape-rendering="crispEdges"/>
    <rect x="721.5999999999998" y="154" width="8.4" height="19.599999999999998" fill="#3b8eea" shape-rendering="crispEdges"/>
    <line x1="220.3" y1="173.6" x2="220.3" y2="183.4" stroke="#d4d4d4" stroke-width="1"/><line x1="223.3" y1="173.6" x2="223.3" y2="183.4" stroke="#d4d4d4" stroke-width="1"/><line x1="220.3" y1="183.4" x2="220.3" y2="193.2" stroke="#d4d4d4" stroke-width="1"/><line x1="223.3" y1="183.4" x2="223.3" y2="193.2" stroke="#d4d4d4" stroke-width="1"/>
    <line x1="220.3" y1="193.2" x2="220.3" y2="203" stroke="#d4d4d4" stroke-width="1"/><line x1="223.3" y1="193.2" x2="223.3" y2="203" stroke="#d4d4d4" stroke-width="1"/><line x1="220.3" y1="203" x2="220.3" y2="212.79999999999998" stroke="#d4d4d4" stroke-width="1"/><line x1="223.3" y1="203" x2="223.3" y2="212.79999999999998" stroke="#d4d4d4" stroke-width="1"/>
    <line x1="220.3" y1="212.79999999999998" x2="220.3" y2="222.6" stroke="#d4d4d4" stroke-width="1"/><line x1="223.3" y1="212.79999999999998" x2="223.3" y2="222.6" stroke="#d4d4d4" stroke-width="1"/><line x1="220.3" y1="222.6" x2="220.3" y2="232.39999999999998" stroke="#d4d4d4" stroke-width="1"/><line x1="223.3" y1="222.6" x2="223.3" y2="232.39999999999998" stroke="#d4d4d4" stroke-width="1"/>
    <line x1="220.3" y1="232.39999999999998" x2="220.3" y2="242.2" stroke="#d4d4d4" stroke-width="1"/><line x1="223.3" y1="232.39999999999998" x2="223.3" y2="242.2" stroke="#d4d4d4" stroke-width="1"/><line x1="220.3" y1="242.2" x2="220.3" y2="251.99999999999997" stroke="#d4d4d4" stroke-width="1"/><line x1="223.3" y1="242.2" x2="223.3" y2="251.99999999999997" stroke="#d4d4d4" stroke-width="1"/><line x1="217.60000000000002" y1="242.2" x2="221.8" y2="242.2" stroke="#d4d4d4" stroke-width="1"/>
    <rect x="226.00000000000003" y="232.39999999999998" width="8.4" height="19.599999999999998" fill="#3b8eea" shape-rendering="crispEdges"/>
    <rect x="234.40000000000003" y="232.39999999999998" width="8.4" height="19.599999999999998" fill="#3b8eea" shape-rendering="crispEdges"/>
    <rect x="242.80000000000004" y="232.39999999999998" width="8.4" height="19.599999999999998" fill="#3b8eea" shape-rendering="crispEdges"/>
    <rect x="251.20000000000005" y="232.39999999999998" width="8.4" height="19.599999999999998" fill="#3b8eea" shape-rendering="crispEdges"/>
    <rect x="259.6" y="232.39999999999998" width="8.4" height="19.599999999999998" fill="#3b8eea" shape-rendering="crispEdges"/>
    <rect x="268" y="232.39999999999998" width="8.4" height="19.599999999999998" fill="#3b8eea" shape-rendering="crispEdges"/>
    <rect x="276.4" y="232.39999999999998" width="8.4" height="19.599999999999998" fill="#3b8eea" shape-rendering="crispEdges"/>
    <rect x="284.79999999999995" y="232.39999999999998" width="8.4" height="19.599999999999998" fill="#3b8eea" shape-rendering="crispEdges"/>
    <rect x="293.19999999999993" y="232.39999999999998" width="8.4" height="19.599999999999998" fill="#3b8eea" shape-rendering="crispEdges"/>
    <rect x="301.5999999999999" y="232.39999999999998" width="8.4" height="19.599999999999998" fill="#3b8eea" shape-rendering="crispEdges"/>
    <rect x="309.9999999999999" y="232.39999999999998" width="8.4" height="19.599999999999998" fill="#3b8eea" shape-rendering="crispEdges"/>
    <rect x="318.39999999999986" y="232.39999999999998" width="8.4" height="19.599999999999998" fill="#3b8eea" shape-rendering="crispEdges"/>
    <rect x="326.79999999999984" y="232.39999999999998" width="8.4" height="19.599999999999998" fill="#3b8eea" shape-rendering="crispEdges"/>
    <rect x="335.1999999999998" y="232.39999999999998" width="8.4" height="19.599999999999998" fill="#3b8eea" shape-rendering="crispEdges"/>
    <rect x="343.5999999999998" y="232.39999999999998" width="8.4" height="19.599999999999998" fill="#3b8eea" shape-rendering="crispEdges"/>
    <rect x="351.9999999999998" y="232.39999999999998" width="8.4" height="19.599999999999998" fill="#3b8eea" shape-rendering="crispEdges"/>
    <rect x="360.39999999999975" y="232.39999999999998" width="8.4" height="19.599999999999998" fill="#3b8eea" shape-rendering="crispEdges"/>
    <rect x="368.7999999999997" y="232.39999999999998" width="8.4" height="19.599999999999998" fill="#3b8eea" shape-rendering="crispEdges"/>
    <rect x="377.1999999999997" y="232.39999999999998" width="8.4" height="19.599999999999998" fill="#3b8eea" shape-rendering="crispEdges"/>
    <rect x="385.5999999999997" y="232.39999999999998" width="8.4" height="19.599999999999998" fill="#3b8eea" shape-rendering="crispEdges"/>
    <rect x="393.99999999999966" y="232.39999999999998" width="8.4" height="19.599999999999998" fill="#3b8eea" shape-rendering="crispEdges"/>
    <rect x="402.39999999999964" y="232.39999999999998" width="8.4" height="19.599999999999998" fill="#3b8eea" shape-rendering="crispEdges"/>
    <rect x="410.7999999999996" y="232.39999999999998" width="8.4" height="19.599999999999998" fill="#3b8eea" shape-rendering="crispEdges"/>
    <rect x="419.1999999999996" y="232.39999999999998" width="8.4" height="19.599999999999998" fill="#3b8eea" shape-rendering="crispEdges"/>
    <rect x="427.59999999999957" y="232.39999999999998" width="8.4" height="19.599999999999998" fill="#3b8eea" shape-rendering="crispEdges"/>
    <rect x="435.99999999999955" y="232.39999999999998" width="8.4" height="19.599999999999998" fill="#3b8eea" shape-rendering="crispEdges"/>
    <rect x="444.3999999999995" y="232.39999999999998" width="8.4" height="19.599999999999998" fill="#3b8eea" shape-rendering="crispEdges"/>
    <rect x="452.7999999999995" y="232.39999999999998" width="8.4" height="19.599999999999998" fill="#3b8eea" shape-rendering="crispEdges"/>
    <rect x="461.1999999999995" y="232.39999999999998" width="8.4" height="19.599999999999998" fill="#3b8eea" shape-rendering="crispEdges"/>
    <rect x="469.59999999999945" y="232.39999999999998" width="8.4" height="19.599999999999998" fill="#3b8eea" shape-rendering="crispEdges"/>
    <rect x="477.99999999999943" y="232.39999999999998" width="8.4" height="19.599999999999998" fill="#3b8eea" shape-rendering="crispEdges"/>
    <rect x="486.3999999999994" y="232.39999999999998" width="8.4" height="19.599999999999998" fill="#3b8eea" shape-rendering="crispEdges"/>
    <rect x="494.7999999999994" y="232.39999999999998" width="8.4" height="19.599999999999998" fill="#3b8eea" shape-rendering="crispEdges"/>
    <rect x="503.19999999999936" y="232.39999999999998" width="8.4" height="19.599999999999998" fill="#3b8eea" shape-rendering="crispEdges"/>
    <rect x="511.59999999999934" y="232.39999999999998" width="8.4" height="19.599999999999998" fill="#3b8eea" shape-rendering="crispEdges"/>
    <rect x="519.9999999999993" y="232.39999999999998" width="8.4" height="19.599999999999998" fill="#3b8eea" shape-rendering="crispEdges"/>
    <rect x="528.3999999999993" y="232.39999999999998" width="8.4" height="19.599999999999998" fill="#3b8eea" shape-rendering="crispEdges"/>
    <rect x="536.8000000000001" y="232.39999999999998" width="8.4" height="19.599999999999998" fill="#ffafff" shape-rendering="crispEdges"/>
    <rect x="545.2" y="232.39999999999998" width="8.4" height="19.599999999999998" fill="#ffafff" shape-rendering="crispEdges"/>
    <rect x="553.6" y="232.39999999999998" width="8.4" height="19.599999999999998" fill="#ffafff" shape-rendering="crispEdges"/>
    <rect x="562" y="232.39999999999998" width="8.4" height="19.599999999999998" fill="#ffafff" shape-rendering="crispEdges"/>
    <rect x="570.4" y="232.39999999999998" width="8.4" height="19.599999999999998" fill="#ffafff" shape-rendering="crispEdges"/>
    <rect x="578.8" y="232.39999999999998" width="8.4" height="19.599999999999998" fill="#ffafff" shape-rendering="crispEdges"/>
    <rect x="587.1999999999999" y="232.39999999999998" width="8.4" height="19.599999999999998" fill="#ffafff" shape-rendering="crispEdges"/>
    <rect x="595.5999999999999" y="232.39999999999998" width="8.4" height="19.599999999999998" fill="#ffafff" shape-rendering="crispEdges"/>
    <rect x="603.9999999999999" y="232.39999999999998" width="8.4" height="19.599999999999998" fill="#ffafff" shape-rendering="crispEdges"/>
    <rect x="612.3999999999999" y="232.39999999999998" width="8.4" height="19.599999999999998" fill="#ffafff" shape-rendering="crispEdges"/>
    <rect x="620.7999999999998" y="232.39999999999998" width="8.4" height="19.599999999999998" fill="#ffafff" shape-rendering="crispEdges"/>
    <rect x="629.1999999999998" y="232.39999999999998" width="8.4" height="19.599999999999998" fill="#ffafff" shape-rendering="crispEdges"/>
    <rect x="637.5999999999998" y="232.39999999999998" width="8.4" height="19.599999999999998" fill="#ffafff" shape-rendering="crispEdges"/>
    <rect x="645.9999999999998" y="232.39999999999998" width="8.4" height="19.599999999999998" fill="#ffafff" shape-rendering="crispEdges"/>
    <rect x="654.3999999999997" y="232.39999999999998" width="8.4" height="19.599999999999998" fill="#ffafff" shape-rendering="crispEdges"/>
    <rect x="662.7999999999997" y="232.39999999999998" width="8.4" height="19.599999999999998" fill="#ffafff" shape-rendering="crispEdges"/>
    <rect x="671.1999999999997" y="232.39999999999998" width="8.4" height="19.599999999999998" fill="#ffafff" shape-rendering="crispEdges"/>
    <rect x="679.5999999999997" y="232.39999999999998" width="8.4" height="19.599999999999998" fill="#ffafff" shape-rendering="crispEdges"/>
    <rect x="688.0000000000001" y="232.39999999999998" width="8.4" height="19.599999999999998" fill="#afafff" shape-rendering="crispEdges"/>
    <rect x="696.4000000000001" y="232.39999999999998" width="8.4" height="19.599999999999998" fill="#afafff" shape-rendering="crispEdges"/>
    <rect x="704.8000000000001" y="232.39999999999998" width="8.4" height="19.599999999999998" fill="#afafff" shape-rendering="crispEdges"/>
    <rect x="713.2" y="232.39999999999998" width="8.4" height="19.599999999999998" fill="#afafff" shape-rendering="crispEdges"/>
    <rect x="721.6" y="232.39999999999998" width="8.4" height="19.599999999999998" fill="#afafff" shape-rendering="crispEdges"/>
    <rect x="730" y="232.39999999999998" width="8.4" height="19.599999999999998" fill="#afafff" shape-rendering="crispEdges"/>
    <rect x="738.4" y="232.39999999999998" width="8.4" height="19.599999999999998" fill="#afafff" shape-rendering="crispEdges"/>
    <rect x="746.8" y="232.39999999999998" width="8.4" height="19.599999999999998" fill="#afafff" shape-rendering="crispEdges"/>
    <rect x="755.1999999999999" y="232.39999999999998" width="8.4" height="19.599999999999998" fill="#afafff" shape-rendering="crispEdges"/>
    <rect x="763.5999999999999" y="232.39999999999998" width="8.4" height="19.599999999999998" fill="#afafff" shape-rendering="crispEdges"/>
    <rect x="771.9999999999999" y="232.39999999999998" width="8.4" height="19.599999999999998" fill="#afafff" shape-rendering="crispEdges"/>
    <line x1="220.3" y1="252" x2="220.3" y2="261.8" stroke="#d4d4d4" stroke-width="1"/><line x1="223.3" y1="252" x2="223.3" y2="261.8" stroke="#d4d4d4" stroke-width="1"/><line x1="220.3" y1="261.8" x2="220.3" y2="271.6" stroke="#d4d4d4" stroke-width="1"/><line x1="223.3" y1="261.8" x2="223.3" y2="271.6" stroke="#d4d4d4" stroke-width="1"/>
    <line x1="220.3" y1="271.59999999999997" x2="220.3" y2="281.4" stroke="#d4d4d4" stroke-width="1"/><line x1="223.3" y1="271.59999999999997" x2="223.3" y2="281.4" stroke="#d4d4d4" stroke-width="1"/><line x1="220.3" y1="281.4" x2="220.3" y2="291.2" stroke="#d4d4d4" stroke-width="1"/><line x1="223.3" y1="281.4" x2="223.3" y2="291.2" stroke="#d4d4d4" stroke-width="1"/>
    <line x1="220.3" y1="291.2" x2="220.3" y2="301" stroke="#d4d4d4" stroke-width="1"/><line x1="223.3" y1="291.2" x2="223.3" y2="301" stroke="#d4d4d4" stroke-width="1"/><line x1="220.3" y1="301" x2="220.3" y2="310.8" stroke="#d4d4d4" stroke-width="1"/><line x1="223.3" y1="301" x2="223.3" y2="310.8" stroke="#d4d4d4" stroke-width="1"/>
    <line x1="220.3" y1="310.79999999999995" x2="220.3" y2="320.59999999999997" stroke="#d4d4d4" stroke-width="1"/><line x1="223.3" y1="310.79999999999995" x2="223.3" y2="320.59999999999997" stroke="#d4d4d4" stroke-width="1"/><line x1="220.3" y1="320.59999999999997" x2="220.3" y2="330.4" stroke="#d4d4d4" stroke-width="1"/><line x1="223.3" y1="320.59999999999997" x2="223.3" y2="330.4" stroke="#d4d4d4" stroke-width="1"/><line x1="217.60000000000002" y1="320.59999999999997" x2="221.8" y2="320.59999999999997" stroke="#d4d4d4" stroke-width="1"/>
    <rect x="226.00000000000003" y="310.79999999999995" width="8.4" height="19.599999999999998" fill="#ff875f" shape-rendering="crispEdges"/>
    <rect x="234.40000000000003" y="310.79999999999995" width="8.4" height="19.599999999999998" fill="#ff875f" shape-rendering="crispEdges"/>
    <rect x="242.80000000000004" y="310.79999999999995" width="8.4" height="19.599999999999998" fill="#ff875f" shape-rendering="crispEdges"/>
    <rect x="251.20000000000005" y="310.79999999999995" width="8.4" height="19.599999999999998" fill="#ff875f" shape-rendering="crispEdges"/>
    <rect x="259.6" y="310.79999999999995" width="8.4" height="19.599999999999998" fill="#ff875f" shape-rendering="crispEdges"/>
    <rect x="268" y="310.79999999999995" width="8.4" height="19.599999999999998" fill="#ff875f" shape-rendering="crispEdges"/>
    <rect x="276.4" y="310.79999999999995" width="8.4" height="19.599999999999998" fill="#ff875f" shape-rendering="crispEdges"/>
    <rect x="284.79999999999995" y="310.79999999999995" width="8.4" height="19.599999999999998" fill="#ff875f" shape-rendering="crispEdges"/>
    <rect x="293.19999999999993" y="310.79999999999995" width="8.4" height="19.599999999999998" fill="#ff875f" shape-rendering="crispEdges"/>
    <rect x="301.5999999999999" y="310.79999999999995" width="8.4" height="19.599999999999998" fill="#ff875f" shape-rendering="crispEdges"/>
    <rect x="309.9999999999999" y="310.79999999999995" width="8.4" height="19.599999999999998" fill="#ff875f" shape-rendering="crispEdges"/>
    <rect x="318.39999999999986" y="310.79999999999995" width="8.4" height="19.599999999999998" fill="#ff875f" shape-rendering="crispEdges"/>
    <rect x="326.79999999999984" y="310.79999999999995" width="8.4" height="19.599999999999998" fill="#ff875f" shape-rendering="crispEdges"/>
    <rect x="335.1999999999998" y="310.79999999999995" width="8.4" height="19.599999999999998" fill="#ff875f" shape-rendering="crispEdges"/>
    <rect x="343.5999999999998" y="310.79999999999995" width="8.4" height="19.599999999999998" fill="#ff875f" shape-rendering="crispEdges"/>
    <rect x="351.9999999999998" y="310.79999999999995" width="8.4" height="19.599999999999998" fill="#ff875f" shape-rendering="crispEdges"/>
    <rect x="360.39999999999975" y="310.79999999999995" width="8.4" height="19.599999999999998" fill="#ff875f" shape-rendering="crispEdges"/>
    <rect x="368.7999999999997" y="310.79999999999995" width="8.4" height="19.599999999999998" fill="#ff875f" shape-rendering="crispEdges"/>
    <rect x="377.1999999999997" y="310.79999999999995" width="8.4" height="19.599999999999998" fill="#ff875f" shape-rendering="crispEdges"/>
    <rect x="385.5999999999997" y="310.79999999999995" width="8.4" height="19.599999999999998" fill="#ff875f" shape-rendering="crispEdges"/>
    <rect x="393.99999999999966" y="310.79999999999995" width="8.4" height="19.599999999999998" fill="#ff875f" shape-rendering="crispEdges"/>
    <rect x="402.39999999999964" y="310.79999999999995" width="8.4" height="19.599999999999998" fill="#ff875f" shape-rendering="crispEdges"/>
    <rect x="410.7999999999996" y="310.79999999999995" width="8.4" height="19.599999999999998" fill="#ff875f" shape-rendering="crispEdges"/>
    <rect x="419.1999999999996" y="310.79999999999995" width="8.4" height="19.599999999999998" fill="#ff875f" shape-rendering="crispEdges"/>
    <rect x="427.59999999999957" y="310.79999999999995" width="8.4" height="19.599999999999998" fill="#ff875f" shape-rendering="crispEdges"/>
    <rect x="435.99999999999955" y="310.79999999999995" width="8.4" height="19.599999999999998" fill="#ff875f" shape-rendering="crispEdges"/>
    <rect x="444.3999999999995" y="310.79999999999995" width="8.4" height="19.599999999999998" fill="#ff875f" shape-rendering="crispEdges"/>
    <rect x="452.7999999999995" y="310.79999999999995" width="8.4" height="19.599999999999998" fill="#ff875f" shape-rendering="crispEdges"/>
    <rect x="461.1999999999995" y="310.79999999999995" width="8.4" height="19.599999999999998" fill="#ff875f" shape-rendering="crispEdges"/>
    <rect x="469.59999999999945" y="310.79999999999995" width="8.4" height="19.599999999999998" fill="#ff875f" shape-rendering="crispEdges"/>
    <rect x="477.99999999999943" y="310.79999999999995" width="8.4" height="19.599999999999998" fill="#ff875f" shape-rendering="crispEdges"/>
    <rect x="486.3999999999994" y="310.79999999999995" width="8.4" height="19.599999999999998" fill="#ff875f" shape-rendering="crispEdges"/>
    <rect x="494.7999999999994" y="310.79999999999995" width="8.4" height="19.599999999999998" fill="#ff875f" shape-rendering="crispEdges"/>
    <rect x="503.19999999999936" y="310.79999999999995" width="8.4" height="19.599999999999998" fill="#ff875f" shape-rendering="crispEdges"/>
    <rect x="511.6" y="310.79999999999995" width="8.4" height="19.599999999999998" fill="#ffafff" shape-rendering="crispEdges"/>
    <rect x="520" y="310.79999999999995" width="8.4" height="19.599999999999998" fill="#ffafff" shape-rendering="crispEdges"/>
    <rect x="528.4" y="310.79999999999995" width="8.4" height="19.599999999999998" fill="#ffafff" shape-rendering="crispEdges"/>
    <rect x="536.8" y="310.79999999999995" width="8.4" height="19.599999999999998" fill="#ffafff" shape-rendering="crispEdges"/>
    <rect x="545.1999999999999" y="310.79999999999995" width="8.4" height="19.599999999999998" fill="#ffafff" shape-rendering="crispEdges"/>
    <rect x="553.5999999999999" y="310.79999999999995" width="8.4" height="19.599999999999998" fill="#ffafff" shape-rendering="crispEdges"/>
    <rect x="561.9999999999999" y="310.79999999999995" width="8.4" height="19.599999999999998" fill="#ffafff" shape-rendering="crispEdges"/>
    <rect x="570.3999999999999" y="310.79999999999995" width="8.4" height="19.599999999999998" fill="#ffafff" shape-rendering="crispEdges"/>
    <rect x="578.7999999999998" y="310.79999999999995" width="8.4" height="19.599999999999998" fill="#ffafff" shape-rendering="crispEdges"/>
    <rect x="587.1999999999998" y="310.79999999999995" width="8.4" height="19.599999999999998" fill="#ffafff" shape-rendering="crispEdges"/>
    <rect x="595.5999999999998" y="310.79999999999995" width="8.4" height="19.599999999999998" fill="#ffafff" shape-rendering="crispEdges"/>
    <rect x="603.9999999999998" y="310.79999999999995" width="8.4" height="19.599999999999998" fill="#ffafff" shape-rendering="crispEdges"/>
    <rect x="612.3999999999997" y="310.79999999999995" width="8.4" height="19.599999999999998" fill="#ffafff" shape-rendering="crispEdges"/>
    <rect x="620.7999999999997" y="310.79999999999995" width="8.4" height="19.599999999999998" fill="#ffafff" shape-rendering="crispEdges"/>
    <rect x="629.1999999999997" y="310.79999999999995" width="8.4" height="19.599999999999998" fill="#ffafff" shape-rendering="crispEdges"/>
    <rect x="637.5999999999997" y="310.79999999999995" width="8.4" height="19.599999999999998" fill="#ffafff" shape-rendering="crispEdges"/>
    <rect x="645.9999999999997" y="310.79999999999995" width="8.4" height="19.599999999999998" fill="#ffafff" shape-rendering="crispEdges"/>
    <rect x="654.3999999999996" y="310.79999999999995" width="8.4" height="19.599999999999998" fill="#ffafff" shape-rendering="crispEdges"/>
    <rect x="662.7999999999996" y="310.79999999999995" width="8.4" height="19.599999999999998" fill="#ffafff" shape-rendering="crispEdges"/>
    <rect x="671.1999999999996" y="310.79999999999995" width="8.4" height="19.599999999999998" fill="#ffafff" shape-rendering="crispEdges"/>
    <rect x="679.5999999999996" y="310.79999999999995" width="8.4" height="19.599999999999998" fill="#ffafff" shape-rendering="crispEdges"/>
    <rect x="687.9999999999995" y="310.79999999999995" width="8.4" height="19.599999999999998" fill="#ffafff" shape-rendering="crispEdges"/>
    <rect x="696.3999999999995" y="310.79999999999995" width="8.4" height="19.599999999999998" fill="#ffafff" shape-rendering="crispEdges"/>
    <rect x="704.7999999999995" y="310.79999999999995" width="8.4" height="19.599999999999998" fill="#ffafff" shape-rendering="crispEdges"/>
    <rect x="713.1999999999995" y="310.79999999999995" width="8.4" height="19.599999999999998" fill="#ffafff" shape-rendering="crispEdges"/>
    <rect x="721.6" y="310.79999999999995" width="8.4" height="19.599999999999998" fill="#afafff" shape-rendering="crispEdges"/>
    <rect x="730" y="310.79999999999995" width="8.4" height="19.599999999999998" fill="#afafff" shape-rendering="crispEdges"/>
    <rect x="738.4" y="310.79999999999995" width="8.4" height="19.599999999999998" fill="#afafff" shape-rendering="crispEdges"/>
    <rect x="746.8" y="310.79999999999995" width="8.4" height="19.599999999999998" fill="#afafff" shape-rendering="crispEdges"/>
    <rect x="755.1999999999999" y="310.79999999999995" width="8.4" height="19.599999999999998" fill="#afafff" shape-rendering="crispEdges"/>
    <rect x="763.5999999999999" y="310.79999999999995" width="8.4" height="19.599999999999998" fill="#afafff" shape-rendering="crispEdges"/>
    <rect x="771.9999999999999" y="310.79999999999995" width="8.4" height="19.599999999999998" fill="#afafff" shape-rendering="crispEdges"/>
    <line x1="220.3" y1="330.4" x2="220.3" y2="340.2" stroke="#d4d4d4" stroke-width="1"/><line x1="223.3" y1="330.4" x2="223.3" y2="340.2" stroke="#d4d4d4" stroke-width="1"/><line x1="220.3" y1="340.2" x2="220.3" y2="350" stroke="#d4d4d4" stroke-width="1"/><line x1="223.3" y1="340.2" x2="223.3" y2="350" stroke="#d4d4d4" stroke-width="1"/>
    <line x1="220.3" y1="349.99999999999994" x2="220.3" y2="359.79999999999995" stroke="#d4d4d4" stroke-width="1"/><line x1="223.3" y1="349.99999999999994" x2="223.3" y2="359.79999999999995" stroke="#d4d4d4" stroke-width="1"/><line x1="220.3" y1="359.79999999999995" x2="220.3" y2="369.59999999999997" stroke="#d4d4d4" stroke-width="1"/><line x1="223.3" y1="359.79999999999995" x2="223.3" y2="369.59999999999997" stroke="#d4d4d4" stroke-width="1"/>
    <line x1="220.3" y1="369.59999999999997" x2="220.3" y2="379.4" stroke="#d4d4d4" stroke-width="1"/><line x1="223.3" y1="369.59999999999997" x2="223.3" y2="379.4" stroke="#d4d4d4" stroke-width="1"/><line x1="220.3" y1="379.4" x2="220.3" y2="389.2" stroke="#d4d4d4" stroke-width="1"/><line x1="223.3" y1="379.4" x2="223.3" y2="389.2" stroke="#d4d4d4" stroke-width="1"/>
    <line x1="220.3" y1="389.2" x2="220.3" y2="399" stroke="#d4d4d4" stroke-width="1"/><line x1="223.3" y1="389.2" x2="223.3" y2="399" stroke="#d4d4d4" stroke-width="1"/><line x1="220.3" y1="399" x2="220.3" y2="408.8" stroke="#d4d4d4" stroke-width="1"/><line x1="223.3" y1="399" x2="223.3" y2="408.8" stroke="#d4d4d4" stroke-width="1"/><line x1="217.60000000000002" y1="399" x2="221.8" y2="399" stroke="#d4d4d4" stroke-width="1"/>
    <rect x="226.00000000000003" y="389.2" width="8.4" height="19.599999999999998" fill="#ffff87" shape-rendering="crispEdges"/>
    <rect x="234.40000000000003" y="389.2" width="8.4" height="19.599999999999998" fill="#ffff87" shape-rendering="crispEdges"/>
    <rect x="242.80000000000004" y="389.2" width="8.4" height="19.599999999999998" fill="#ffff87" shape-rendering="crispEdges"/>
    <rect x="251.20000000000005" y="389.2" width="8.4" height="19.599999999999998" fill="#ffff87" shape-rendering="crispEdges"/>
    <rect x="259.6" y="389.2" width="8.4" height="19.599999999999998" fill="#ffff87" shape-rendering="crispEdges"/>
    <rect x="268" y="389.2" width="8.4" height="19.599999999999998" fill="#ffff87" shape-rendering="crispEdges"/>
    <rect x="276.4" y="389.2" width="8.4" height="19.599999999999998" fill="#ffff87" shape-rendering="crispEdges"/>
    <rect x="284.79999999999995" y="389.2" width="8.4" height="19.599999999999998" fill="#ffff87" shape-rendering="crispEdges"/>
    <rect x="293.19999999999993" y="389.2" width="8.4" height="19.599999999999998" fill="#ffff87" shape-rendering="crispEdges"/>
    <rect x="301.5999999999999" y="389.2" width="8.4" height="19.599999999999998" fill="#ffff87" shape-rendering="crispEdges"/>
    <rect x="309.9999999999999" y="389.2" width="8.4" height="19.599999999999998" fill="#ffff87" shape-rendering="crispEdges"/>
    <rect x="318.39999999999986" y="389.2" width="8.4" height="19.599999999999998" fill="#ffff87" shape-rendering="crispEdges"/>
    <rect x="326.79999999999984" y="389.2" width="8.4" height="19.599999999999998" fill="#ffff87" shape-rendering="crispEdges"/>
    <rect x="335.1999999999998" y="389.2" width="8.4" height="19.599999999999998" fill="#ffff87" shape-rendering="crispEdges"/>
    <rect x="343.5999999999998" y="389.2" width="8.4" height="19.599999999999998" fill="#ffff87" shape-rendering="crispEdges"/>
    <rect x="351.9999999999998" y="389.2" width="8.4" height="19.599999999999998" fill="#ffff87" shape-rendering="crispEdges"/>
    <rect x="360.39999999999975" y="389.2" width="8.4" height="19.599999999999998" fill="#ffff87" shape-rendering="crispEdges"/>
    <rect x="368.7999999999997" y="389.2" width="8.4" height="19.599999999999998" fill="#ffff87" shape-rendering="crispEdges"/>
    <rect x="377.1999999999997" y="389.2" width="8.4" height="19.599999999999998" fill="#ffff87" shape-rendering="crispEdges"/>
    <rect x="385.5999999999997" y="389.2" width="8.4" height="19.599999999999998" fill="#ffff87" shape-rendering="crispEdges"/>
    <rect x="393.99999999999966" y="389.2" width="8.4" height="19.599999999999998" fill="#ffff87" shape-rendering="crispEdges"/>
    <rect x="402.39999999999964" y="389.2" width="8.4" height="19.599999999999998" fill="#ffff87" shape-rendering="crispEdges"/>
    <rect x="410.7999999999996" y="389.2" width="8.4" height="19.599999999999998" fill="#ffff87" shape-rendering="crispEdges"/>
    <rect x="419.1999999999996" y="389.2" width="8.4" height="19.599999999999998" fill="#ffff87" shape-rendering="crispEdges"/>
    <rect x="427.59999999999957" y="389.2" width="8.4" height="19.599999999999998" fill="#ffff87" shape-rendering="crispEdges"/>
    <rect x="435.99999999999955" y="389.2" width="8.4" height="19.599999999999998" fill="#ffff87" shape-rendering="crispEdges"/>
    <rect x="444.3999999999995" y="389.2" width="8.4" height="19.599999999999998" fill="#ffff87" shape-rendering="crispEdges"/>
    <rect x="452.7999999999995" y="389.2" width="8.4" height="19.599999999999998" fill="#ffff87" shape-rendering="crispEdges"/>
    <rect x="461.1999999999995" y="389.2" width="8.4" height="19.599999999999998" fill="#ffff87" shape-rendering="crispEdges"/>
    <rect x="469.59999999999945" y="389.2" width="8.4" height="19.599999999999998" fill="#ffff87" shape-rendering="crispEdges"/>
    <rect x="477.99999999999943" y="389.2" width="8.4" height="19.599999999999998" fill="#ffff87" shape-rendering="crispEdges"/>
    <rect x="486.3999999999994" y="389.2" width="8.4" height="19.599999999999998" fill="#ffff87" shape-rendering="crispEdges"/>
    <rect x="494.7999999999994" y="389.2" width="8.4" height="19.599999999999998" fill="#ffff87" shape-rendering="crispEdges"/>
    <rect x="503.19999999999936" y="389.2" width="8.4" height="19.599999999999998" fill="#ffff87" shape-rendering="crispEdges"/>
    <rect x="511.59999999999934" y="389.2" width="8.4" height="19.599999999999998" fill="#ffff87" shape-rendering="crispEdges"/>
    <rect x="519.9999999999993" y="389.2" width="8.4" height="19.599999999999998" fill="#ffff87" shape-rendering="crispEdges"/>
    <rect x="528.3999999999993" y="389.2" width="8.4" height="19.599999999999998" fill="#ffff87" shape-rendering="crispEdges"/>
    <rect x="536.7999999999993" y="389.2" width="8.4" height="19.599999999999998" fill="#ffff87" shape-rendering="crispEdges"/>
    <rect x="545.1999999999992" y="389.2" width="8.4" height="19.599999999999998" fill="#ffff87" shape-rendering="crispEdges"/>
    <rect x="553.5999999999992" y="389.2" width="8.4" height="19.599999999999998" fill="#ffff87" shape-rendering="crispEdges"/>
    <rect x="561.9999999999992" y="389.2" width="8.4" height="19.599999999999998" fill="#ffff87" shape-rendering="crispEdges"/>
    <rect x="570.3999999999992" y="389.2" width="8.4" height="19.599999999999998" fill="#ffff87" shape-rendering="crispEdges"/>
    <rect x="578.7999999999992" y="389.2" width="8.4" height="19.599999999999998" fill="#ffff87" shape-rendering="crispEdges"/>
    <rect x="587.1999999999991" y="389.2" width="8.4" height="19.599999999999998" fill="#ffff87" shape-rendering="crispEdges"/>
    <rect x="595.5999999999991" y="389.2" width="8.4" height="19.599999999999998" fill="#ffff87" shape-rendering="crispEdges"/>
    <rect x="604" y="389.2" width="8.4" height="19.599999999999998" fill="#afafff" shape-rendering="crispEdges"/>
    <rect x="612.4" y="389.2" width="8.4" height="19.599999999999998" fill="#afafff" shape-rendering="crispEdges"/>
    <rect x="620.8" y="389.2" width="8.4" height="19.599999999999998" fill="#afafff" shape-rendering="crispEdges"/>
    <rect x="629.1999999999999" y="389.2" width="8.4" height="19.599999999999998" fill="#afafff" shape-rendering="crispEdges"/>
    <rect x="637.5999999999999" y="389.2" width="8.4" height="19.599999999999998" fill="#afafff" shape-rendering="crispEdges"/>
    <rect x="645.9999999999999" y="389.2" width="8.4" height="19.599999999999998" fill="#afafff" shape-rendering="crispEdges"/>
    <rect x="654.3999999999999" y="389.2" width="8.4" height="19.599999999999998" fill="#afafff" shape-rendering="crispEdges"/>
    <rect x="662.7999999999998" y="389.2" width="8.4" height="19.599999999999998" fill="#afafff" shape-rendering="crispEdges"/>
    <rect x="671.1999999999998" y="389.2" width="8.4" height="19.599999999999998" fill="#afafff" shape-rendering="crispEdges"/>
    <rect x="679.5999999999998" y="389.2" width="8.4" height="19.599999999999998" fill="#afafff" shape-rendering="crispEdges"/>
    <rect x="687.9999999999998" y="389.2" width="8.4" height="19.599999999999998" fill="#afafff" shape-rendering="crispEdges"/>
    <rect x="696.3999999999997" y="389.2" width="8.4" height="19.599999999999998" fill="#afafff" shape-rendering="crispEdges"/>
    <rect x="704.7999999999997" y="389.2" width="8.4" height="19.599999999999998" fill="#afafff" shape-rendering="crispEdges"/>
    <rect x="713.1999999999997" y="389.2" width="8.4" height="19.599999999999998" fill="#afafff" shape-rendering="crispEdges"/>
    <rect x="721.5999999999997" y="389.2" width="8.4" height="19.599999999999998" fill="#afafff" shape-rendering="crispEdges"/>
    <rect x="729.9999999999997" y="389.2" width="8.4" height="19.599999999999998" fill="#afafff" shape-rendering="crispEdges"/>
    <rect x="738.3999999999996" y="389.2" width="8.4" height="19.599999999999998" fill="#afafff" shape-rendering="crispEdges"/>
    <rect x="746.7999999999996" y="389.2" width="8.4" height="19.599999999999998" fill="#afafff" shape-rendering="crispEdges"/>
    <rect x="755.1999999999996" y="389.2" width="8.4" height="19.599999999999998" fill="#afafff" shape-rendering="crispEdges"/>
    <rect x="763.5999999999996" y="389.2" width="8.4" height="19.599999999999998" fill="#afafff" shape-rendering="crispEdges"/>
    <rect x="771.9999999999995" y="389.2" width="8.4" height="19.599999999999998" fill="#afafff" shape-rendering="crispEdges"/>
    <rect x="780.4" y="389.2" width="8.4" height="19.599999999999998" fill="#afffff" shape-rendering="crispEdges"/>
    <rect x="788.8" y="389.2" width="8.4" height="19.599999999999998" fill="#afffff" shape-rendering="crispEdges"/>
    <rect x="797.1999999999999" y="389.2" width="8.4" height="19.599999999999998" fill="#afffff" shape-rendering="crispEdges"/>
    <rect x="805.5999999999999" y="389.2" width="8.4" height="19.599999999999998" fill="#afffff" shape-rendering="crispEdges"/>
    <rect x="813.9999999999999" y="389.2" width="8.4" height="19.599999999999998" fill="#afffff" shape-rendering="crispEdges"/>
    <rect x="822.3999999999999" y="389.2" width="8.4" height="19.599999999999998" fill="#afffff" shape-rendering="crispEdges"/>
    <rect x="830.7999999999998" y="389.2" width="8.4" height="19.599999999999998" fill="#afffff" shape-rendering="crispEdges"/>
    <rect x="839.1999999999998" y="389.2" width="8.4" height="19.599999999999998" fill="#afffff" shape-rendering="crispEdges"/>
    <rect x="847.5999999999998" y="389.2" width="8.4" height="19.599999999999998" fill="#afffff" shape-rendering="crispEdges"/>
    <rect x="855.9999999999998" y="389.2" width="8.4" height="19.599999999999998" fill="#afffff" shape-rendering="crispEdges"/>
    <rect x="864.3999999999997" y="389.2" width="8.4" height="19.599999999999998" fill="#afffff" shape-rendering="crispEdges"/>
    <rect x="872.7999999999997" y="389.2" width="8.4" height="19.599999999999998" fill="#afffff" shape-rendering="crispEdges"/>
    <rect x="881.1999999999997" y="389.2" width="8.4" height="19.599999999999998" fill="#afffff" shape-rendering="crispEdges"/>
    <rect x="889.5999999999997" y="389.2" width="8.4" height="19.599999999999998" fill="#afffff" shape-rendering="crispEdges"/>
    <path d="M 220.30000000000007 408.79999999999995 L 220.30000000000007 420.09999999999997 L 226.00000000000009 420.09999999999997" fill="none" stroke="#d4d4d4" stroke-width="1"/><path d="M 223.30000000000007 408.79999999999995 L 223.30000000000007 417.09999999999997 L 226.00000000000009 417.09999999999997" fill="none" stroke="#d4d4d4" stroke-width="1"/>
    <line x1="226.00000000000009" y1="417.09999999999997" x2="230.20000000000007" y2="417.09999999999997" stroke="#d4d4d4" stroke-width="1"/><line x1="226.00000000000009" y1="420.09999999999997" x2="230.20000000000007" y2="420.09999999999997" stroke="#d4d4d4" stroke-width="1"/><line x1="230.20000000000007" y1="417.09999999999997" x2="234.4000000000001" y2="417.09999999999997" stroke="#d4d4d4" stroke-width="1"/><line x1="230.20000000000007" y1="420.09999999999997" x2="234.4000000000001" y2="420.09999999999997" stroke="#d4d4d4" stroke-width="1"/>
    <line x1="234.4000000000001" y1="417.09999999999997" x2="238.60000000000008" y2="417.09999999999997" stroke="#d4d4d4" stroke-width="1"/><line x1="234.4000000000001" y1="420.09999999999997" x2="238.60000000000008" y2="420.09999999999997" stroke="#d4d4d4" stroke-width="1"/><line x1="238.60000000000008" y1="417.09999999999997" x2="242.8000000000001" y2="417.09999999999997" stroke="#d4d4d4" stroke-width="1"/><line x1="238.60000000000008" y1="420.09999999999997" x2="242.8000000000001" y2="420.09999999999997" stroke="#d4d4d4" stroke-width="1"/>
    <line x1="242.8000000000001" y1="417.09999999999997" x2="247.00000000000009" y2="417.09999999999997" stroke="#d4d4d4" stroke-width="1"/><line x1="242.8000000000001" y1="420.09999999999997" x2="247.00000000000009" y2="420.09999999999997" stroke="#d4d4d4" stroke-width="1"/><line x1="247.00000000000009" y1="417.09999999999997" x2="251.2000000000001" y2="417.09999999999997" stroke="#d4d4d4" stroke-width="1"/><line x1="247.00000000000009" y1="420.09999999999997" x2="251.2000000000001" y2="420.09999999999997" stroke="#d4d4d4" stroke-width="1"/>
    <line x1="251.2000000000001" y1="417.09999999999997" x2="255.4000000000001" y2="417.09999999999997" stroke="#d4d4d4" stroke-width="1"/><line x1="251.2000000000001" y1="420.09999999999997" x2="255.4000000000001" y2="420.09999999999997" stroke="#d4d4d4" stroke-width="1"/><line x1="255.4000000000001" y1="417.09999999999997" x2="259.6000000000001" y2="417.09999999999997" stroke="#d4d4d4" stroke-width="1"/><line x1="255.4000000000001" y1="420.09999999999997" x2="259.6000000000001" y2="420.09999999999997" stroke="#d4d4d4" stroke-width="1"/>
    <line x1="259.6000000000001" y1="417.09999999999997" x2="263.80000000000007" y2="417.09999999999997" stroke="#d4d4d4" stroke-width="1"/><line x1="259.6000000000001" y1="420.09999999999997" x2="263.80000000000007" y2="420.09999999999997" stroke="#d4d4d4" stroke-width="1"/><line x1="263.80000000000007" y1="417.09999999999997" x2="268.00000000000006" y2="417.09999999999997" stroke="#d4d4d4" stroke-width="1"/><line x1="263.80000000000007" y1="420.09999999999997" x2="268.00000000000006" y2="420.09999999999997" stroke="#d4d4d4" stroke-width="1"/>
    <line x1="268.00000000000006" y1="417.09999999999997" x2="272.20000000000005" y2="417.09999999999997" stroke="#d4d4d4" stroke-width="1"/><line x1="268.00000000000006" y1="420.09999999999997" x2="272.20000000000005" y2="420.09999999999997" stroke="#d4d4d4" stroke-width="1"/><line x1="272.20000000000005" y1="417.09999999999997" x2="276.40000000000003" y2="417.09999999999997" stroke="#d4d4d4" stroke-width="1"/><line x1="272.20000000000005" y1="420.09999999999997" x2="276.40000000000003" y2="420.09999999999997" stroke="#d4d4d4" stroke-width="1"/>
    <line x1="276.40000000000003" y1="417.09999999999997" x2="280.6" y2="417.09999999999997" stroke="#d4d4d4" stroke-width="1"/><line x1="276.40000000000003" y1="420.09999999999997" x2="280.6" y2="420.09999999999997" stroke="#d4d4d4" stroke-width="1"/><line x1="280.6" y1="417.09999999999997" x2="284.8" y2="417.09999999999997" stroke="#d4d4d4" stroke-width="1"/><line x1="280.6" y1="420.09999999999997" x2="284.8" y2="420.09999999999997" stroke="#d4d4d4" stroke-width="1"/>
    <line x1="284.8" y1="417.09999999999997" x2="289" y2="417.09999999999997" stroke="#d4d4d4" stroke-width="1"/><line x1="284.8" y1="420.09999999999997" x2="289" y2="420.09999999999997" stroke="#d4d4d4" stroke-width="1"/><line x1="289" y1="417.09999999999997" x2="293.2" y2="417.09999999999997" stroke="#d4d4d4" stroke-width="1"/><line x1="289" y1="420.09999999999997" x2="293.2" y2="420.09999999999997" stroke="#d4d4d4" stroke-width="1"/>
    <line x1="293.2" y1="417.09999999999997" x2="297.4" y2="417.09999999999997" stroke="#d4d4d4" stroke-width="1"/><line x1="293.2" y1="420.09999999999997" x2="297.4" y2="420.09999999999997" stroke="#d4d4d4" stroke-width="1"/><line x1="297.4" y1="417.09999999999997" x2="301.59999999999997" y2="417.09999999999997" stroke="#d4d4d4" stroke-width="1"/><line x1="297.4" y1="420.09999999999997" x2="301.59999999999997" y2="420.09999999999997" stroke="#d4d4d4" stroke-width="1"/>
    <line x1="301.59999999999997" y1="417.09999999999997" x2="305.79999999999995" y2="417.09999999999997" stroke="#d4d4d4" stroke-width="1"/><line x1="301.59999999999997" y1="420.09999999999997" x2="305.79999999999995" y2="420.09999999999997" stroke="#d4d4d4" stroke-width="1"/><line x1="305.79999999999995" y1="417.09999999999997" x2="309.99999999999994" y2="417.09999999999997" stroke="#d4d4d4" stroke-width="1"/><line x1="305.79999999999995" y1="420.09999999999997" x2="309.99999999999994" y2="420.09999999999997" stroke="#d4d4d4" stroke-width="1"/>
    <line x1="309.99999999999994" y1="417.09999999999997" x2="314.19999999999993" y2="417.09999999999997" stroke="#d4d4d4" stroke-width="1"/><line x1="309.99999999999994" y1="420.09999999999997" x2="314.19999999999993" y2="420.09999999999997" stroke="#d4d4d4" stroke-width="1"/><line x1="314.19999999999993" y1="417.09999999999997" x2="318.3999999999999" y2="417.09999999999997" stroke="#d4d4d4" stroke-width="1"/><line x1="314.19999999999993" y1="420.09999999999997" x2="318.3999999999999" y2="420.09999999999997" stroke="#d4d4d4" stroke-width="1"/>
    <line x1="318.3999999999999" y1="417.09999999999997" x2="322.5999999999999" y2="417.09999999999997" stroke="#d4d4d4" stroke-width="1"/><line x1="318.3999999999999" y1="420.09999999999997" x2="322.5999999999999" y2="420.09999999999997" stroke="#d4d4d4" stroke-width="1"/><line x1="322.5999999999999" y1="417.09999999999997" x2="326.7999999999999" y2="417.09999999999997" stroke="#d4d4d4" stroke-width="1"/><line x1="322.5999999999999" y1="420.09999999999997" x2="326.7999999999999" y2="420.09999999999997" stroke="#d4d4d4" stroke-width="1"/>
    <line x1="326.7999999999999" y1="417.09999999999997" x2="330.9999999999999" y2="417.09999999999997" stroke="#d4d4d4" stroke-width="1"/><line x1="326.7999999999999" y1="420.09999999999997" x2="330.9999999999999" y2="420.09999999999997" stroke="#d4d4d4" stroke-width="1"/><line x1="330.9999999999999" y1="417.09999999999997" x2="335.1999999999999" y2="417.09999999999997" stroke="#d4d4d4" stroke-width="1"/><line x1="330.9999999999999" y1="420.09999999999997" x2="335.1999999999999" y2="420.09999999999997" stroke="#d4d4d4" stroke-width="1"/>
    <line x1="335.1999999999999" y1="417.09999999999997" x2="339.39999999999986" y2="417.09999999999997" stroke="#d4d4d4" stroke-width="1"/><line x1="335.1999999999999" y1="420.09999999999997" x2="339.39999999999986" y2="420.09999999999997" stroke="#d4d4d4" stroke-width="1"/><line x1="339.39999999999986" y1="417.09999999999997" x2="343.59999999999985" y2="417.09999999999997" stroke="#d4d4d4" stroke-width="1"/><line x1="339.39999999999986" y1="420.09999999999997" x2="343.59999999999985" y2="420.09999999999997" stroke="#d4d4d4" stroke-width="1"/>
    <line x1="343.59999999999985" y1="417.09999999999997" x2="347.79999999999984" y2="417.09999999999997" stroke="#d4d4d4" stroke-width="1"/><line x1="343.59999999999985" y1="420.09999999999997" x2="347.79999999999984" y2="420.09999999999997" stroke="#d4d4d4" stroke-width="1"/><line x1="347.79999999999984" y1="417.09999999999997" x2="351.99999999999983" y2="417.09999999999997" stroke="#d4d4d4" stroke-width="1"/><line x1="347.79999999999984" y1="420.09999999999997" x2="351.99999999999983" y2="420.09999999999997" stroke="#d4d4d4" stroke-width="1"/>
    <line x1="351.99999999999983" y1="417.09999999999997" x2="356.1999999999998" y2="417.09999999999997" stroke="#d4d4d4" stroke-width="1"/><line x1="351.99999999999983" y1="420.09999999999997" x2="356.1999999999998" y2="420.09999999999997" stroke="#d4d4d4" stroke-width="1"/><line x1="356.1999999999998" y1="417.09999999999997" x2="360.3999999999998" y2="417.09999999999997" stroke="#d4d4d4" stroke-width="1"/><line x1="356.1999999999998" y1="420.09999999999997" x2="360.3999999999998" y2="420.09999999999997" stroke="#d4d4d4" stroke-width="1"/>
    <line x1="360.3999999999998" y1="417.09999999999997" x2="364.5999999999998" y2="417.09999999999997" stroke="#d4d4d4" stroke-width="1"/><line x1="360.3999999999998" y1="420.09999999999997" x2="364.5999999999998" y2="420.09999999999997" stroke="#d4d4d4" stroke-width="1"/><line x1="364.5999999999998" y1="417.09999999999997" x2="368.7999999999998" y2="417.09999999999997" stroke="#d4d4d4" stroke-width="1"/><line x1="364.5999999999998" y1="420.09999999999997" x2="368.7999999999998" y2="420.09999999999997" stroke="#d4d4d4" stroke-width="1"/>
    <line x1="368.7999999999998" y1="417.09999999999997" x2="372.9999999999998" y2="417.09999999999997" stroke="#d4d4d4" stroke-width="1"/><line x1="368.7999999999998" y1="420.09999999999997" x2="372.9999999999998" y2="420.09999999999997" stroke="#d4d4d4" stroke-width="1"/><line x1="372.9999999999998" y1="417.09999999999997" x2="377.19999999999976" y2="417.09999999999997" stroke="#d4d4d4" stroke-width="1"/><line x1="372.9999999999998" y1="420.09999999999997" x2="377.19999999999976" y2="420.09999999999997" stroke="#d4d4d4" stroke-width="1"/>
    <line x1="377.19999999999976" y1="417.09999999999997" x2="381.39999999999975" y2="417.09999999999997" stroke="#d4d4d4" stroke-width="1"/><line x1="377.19999999999976" y1="420.09999999999997" x2="381.39999999999975" y2="420.09999999999997" stroke="#d4d4d4" stroke-width="1"/><line x1="381.39999999999975" y1="417.09999999999997" x2="385.59999999999974" y2="417.09999999999997" stroke="#d4d4d4" stroke-width="1"/><line x1="381.39999999999975" y1="420.09999999999997" x2="385.59999999999974" y2="420.09999999999997" stroke="#d4d4d4" stroke-width="1"/>
    <line x1="385.59999999999974" y1="417.09999999999997" x2="389.7999999999997" y2="417.09999999999997" stroke="#d4d4d4" stroke-width="1"/><line x1="385.59999999999974" y1="420.09999999999997" x2="389.7999999999997" y2="420.09999999999997" stroke="#d4d4d4" stroke-width="1"/><line x1="389.7999999999997" y1="417.09999999999997" x2="393.9999999999997" y2="417.09999999999997" stroke="#d4d4d4" stroke-width="1"/><line x1="389.7999999999997" y1="420.09999999999997" x2="393.9999999999997" y2="420.09999999999997" stroke="#d4d4d4" stroke-width="1"/>
    <line x1="393.9999999999997" y1="417.09999999999997" x2="398.1999999999997" y2="417.09999999999997" stroke="#d4d4d4" stroke-width="1"/><line x1="393.9999999999997" y1="420.09999999999997" x2="398.1999999999997" y2="420.09999999999997" stroke="#d4d4d4" stroke-width="1"/><line x1="398.1999999999997" y1="417.09999999999997" x2="402.3999999999997" y2="417.09999999999997" stroke="#d4d4d4" stroke-width="1"/><line x1="398.1999999999997" y1="420.09999999999997" x2="402.3999999999997" y2="420.09999999999997" stroke="#d4d4d4" stroke-width="1"/>
    <line x1="402.3999999999997" y1="417.09999999999997" x2="406.5999999999997" y2="417.09999999999997" stroke="#d4d4d4" stroke-width="1"/><line x1="402.3999999999997" y1="420.09999999999997" x2="406.5999999999997" y2="420.09999999999997" stroke="#d4d4d4" stroke-width="1"/><line x1="406.5999999999997" y1="417.09999999999997" x2="410.79999999999967" y2="417.09999999999997" stroke="#d4d4d4" stroke-width="1"/><line x1="406.5999999999997" y1="420.09999999999997" x2="410.79999999999967" y2="420.09999999999997" stroke="#d4d4d4" stroke-width="1"/>
    <line x1="410.79999999999967" y1="417.09999999999997" x2="414.99999999999966" y2="417.09999999999997" stroke="#d4d4d4" stroke-width="1"/><line x1="410.79999999999967" y1="420.09999999999997" x2="414.99999999999966" y2="420.09999999999997" stroke="#d4d4d4" stroke-width="1"/><line x1="414.99999999999966" y1="417.09999999999997" x2="419.19999999999965" y2="417.09999999999997" stroke="#d4d4d4" stroke-width="1"/><line x1="414.99999999999966" y1="420.09999999999997" x2="419.19999999999965" y2="420.09999999999997" stroke="#d4d4d4" stroke-width="1"/>
    <line x1="419.19999999999965" y1="417.09999999999997" x2="423.39999999999964" y2="417.09999999999997" stroke="#d4d4d4" stroke-width="1"/><line x1="419.19999999999965" y1="420.09999999999997" x2="423.39999999999964" y2="420.09999999999997" stroke="#d4d4d4" stroke-width="1"/><line x1="423.39999999999964" y1="417.09999999999997" x2="427.5999999999996" y2="417.09999999999997" stroke="#d4d4d4" stroke-width="1"/><line x1="423.39999999999964" y1="420.09999999999997" x2="427.5999999999996" y2="420.09999999999997" stroke="#d4d4d4" stroke-width="1"/>
    <line x1="427.5999999999996" y1="417.09999999999997" x2="431.7999999999996" y2="417.09999999999997" stroke="#d4d4d4" stroke-width="1"/><line x1="427.5999999999996" y1="420.09999999999997" x2="431.7999999999996" y2="420.09999999999997" stroke="#d4d4d4" stroke-width="1"/><line x1="431.7999999999996" y1="417.09999999999997" x2="435.9999999999996" y2="417.09999999999997" stroke="#d4d4d4" stroke-width="1"/><line x1="431.7999999999996" y1="420.09999999999997" x2="435.9999999999996" y2="420.09999999999997" stroke="#d4d4d4" stroke-width="1"/>
    <line x1="435.9999999999996" y1="417.09999999999997" x2="440.1999999999996" y2="417.09999999999997" stroke="#d4d4d4" stroke-width="1"/><line x1="435.9999999999996" y1="420.09999999999997" x2="440.1999999999996" y2="420.09999999999997" stroke="#d4d4d4" stroke-width="1"/><line x1="440.1999999999996" y1="417.09999999999997" x2="444.3999999999996" y2="417.09999999999997" stroke="#d4d4d4" stroke-width="1"/><line x1="440.1999999999996" y1="420.09999999999997" x2="444.3999999999996" y2="420.09999999999997" stroke="#d4d4d4" stroke-width="1"/>
    <line x1="444.3999999999996" y1="417.09999999999997" x2="448.59999999999957" y2="417.09999999999997" stroke="#d4d4d4" stroke-width="1"/><line x1="444.3999999999996" y1="420.09999999999997" x2="448.59999999999957" y2="420.09999999999997" stroke="#d4d4d4" stroke-width="1"/><line x1="448.59999999999957" y1="417.09999999999997" x2="452.79999999999956" y2="417.09999999999997" stroke="#d4d4d4" stroke-width="1"/><line x1="448.59999999999957" y1="420.09999999999997" x2="452.79999999999956" y2="420.09999999999997" stroke="#d4d4d4" stroke-width="1"/>
    <line x1="452.79999999999956" y1="417.09999999999997" x2="456.99999999999955" y2="417.09999999999997" stroke="#d4d4d4" stroke-width="1"/><line x1="452.79999999999956" y1="420.09999999999997" x2="456.99999999999955" y2="420.09999999999997" stroke="#d4d4d4" stroke-width="1"/><line x1="456.99999999999955" y1="417.09999999999997" x2="461.19999999999953" y2="417.09999999999997" stroke="#d4d4d4" stroke-width="1"/><line x1="456.99999999999955" y1="420.09999999999997" x2="461.19999999999953" y2="420.09999999999997" stroke="#d4d4d4" stroke-width="1"/>
    <line x1="461.19999999999953" y1="417.09999999999997" x2="465.3999999999995" y2="417.09999999999997" stroke="#d4d4d4" stroke-width="1"/><line x1="461.19999999999953" y1="420.09999999999997" x2="465.3999999999995" y2="420.09999999999997" stroke="#d4d4d4" stroke-width="1"/><line x1="465.3999999999995" y1="417.09999999999997" x2="469.5999999999995" y2="417.09999999999997" stroke="#d4d4d4" stroke-width="1"/><line x1="465.3999999999995" y1="420.09999999999997" x2="469.5999999999995" y2="420.09999999999997" stroke="#d4d4d4" stroke-width="1"/>
    <line x1="469.5999999999995" y1="417.09999999999997" x2="473.7999999999995" y2="417.09999999999997" stroke="#d4d4d4" stroke-width="1"/><line x1="469.5999999999995" y1="420.09999999999997" x2="473.7999999999995" y2="420.09999999999997" stroke="#d4d4d4" stroke-width="1"/><line x1="473.7999999999995" y1="417.09999999999997" x2="477.9999999999995" y2="417.09999999999997" stroke="#d4d4d4" stroke-width="1"/><line x1="473.7999999999995" y1="420.09999999999997" x2="477.9999999999995" y2="420.09999999999997" stroke="#d4d4d4" stroke-width="1"/>
    <line x1="477.9999999999995" y1="417.09999999999997" x2="482.1999999999995" y2="417.09999999999997" stroke="#d4d4d4" stroke-width="1"/><line x1="477.9999999999995" y1="420.09999999999997" x2="482.1999999999995" y2="420.09999999999997" stroke="#d4d4d4" stroke-width="1"/><line x1="482.1999999999995" y1="417.09999999999997" x2="486.39999999999947" y2="417.09999999999997" stroke="#d4d4d4" stroke-width="1"/><line x1="482.1999999999995" y1="420.09999999999997" x2="486.39999999999947" y2="420.09999999999997" stroke="#d4d4d4" stroke-width="1"/>
    <line x1="486.39999999999947" y1="417.09999999999997" x2="490.59999999999945" y2="417.09999999999997" stroke="#d4d4d4" stroke-width="1"/><line x1="486.39999999999947" y1="420.09999999999997" x2="490.59999999999945" y2="420.09999999999997" stroke="#d4d4d4" stroke-width="1"/><line x1="490.59999999999945" y1="417.09999999999997" x2="494.79999999999944" y2="417.09999999999997" stroke="#d4d4d4" stroke-width="1"/><line x1="490.59999999999945" y1="420.09999999999997" x2="494.79999999999944" y2="420.09999999999997" stroke="#d4d4d4" stroke-width="1"/>
    <line x1="494.79999999999944" y1="417.09999999999997" x2="498.99999999999943" y2="417.09999999999997" stroke="#d4d4d4" stroke-width="1"/><line x1="494.79999999999944" y1="420.09999999999997" x2="498.99999999999943" y2="420.09999999999997" stroke="#d4d4d4" stroke-width="1"/><line x1="498.99999999999943" y1="417.09999999999997" x2="503.1999999999994" y2="417.09999999999997" stroke="#d4d4d4" stroke-width="1"/><line x1="498.99999999999943" y1="420.09999999999997" x2="503.1999999999994" y2="420.09999999999997" stroke="#d4d4d4" stroke-width="1"/>
    <line x1="503.1999999999994" y1="417.09999999999997" x2="507.3999999999994" y2="417.09999999999997" stroke="#d4d4d4" stroke-width="1"/><line x1="503.1999999999994" y1="420.09999999999997" x2="507.3999999999994" y2="420.09999999999997" stroke="#d4d4d4" stroke-width="1"/><line x1="507.3999999999994" y1="417.09999999999997" x2="511.5999999999994" y2="417.09999999999997" stroke="#d4d4d4" stroke-width="1"/><line x1="507.3999999999994" y1="420.09999999999997" x2="511.5999999999994" y2="420.09999999999997" stroke="#d4d4d4" stroke-width="1"/>
    <line x1="511.5999999999994" y1="417.09999999999997" x2="515.7999999999994" y2="417.09999999999997" stroke="#d4d4d4" stroke-width="1"/><line x1="511.5999999999994" y1="420.09999999999997" x2="515.7999999999994" y2="420.09999999999997" stroke="#d4d4d4" stroke-width="1"/><line x1="515.7999999999994" y1="417.09999999999997" x2="519.9999999999994" y2="417.09999999999997" stroke="#d4d4d4" stroke-width="1"/><line x1="515.7999999999994" y1="420.09999999999997" x2="519.9999999999994" y2="420.09999999999997" stroke="#d4d4d4" stroke-width="1"/>
    <line x1="519.9999999999994" y1="417.09999999999997" x2="524.1999999999995" y2="417.09999999999997" stroke="#d4d4d4" stroke-width="1"/><line x1="519.9999999999994" y1="420.09999999999997" x2="524.1999999999995" y2="420.09999999999997" stroke="#d4d4d4" stroke-width="1"/><line x1="524.1999999999995" y1="417.09999999999997" x2="528.3999999999994" y2="417.09999999999997" stroke="#d4d4d4" stroke-width="1"/><line x1="524.1999999999995" y1="420.09999999999997" x2="528.3999999999994" y2="420.09999999999997" stroke="#d4d4d4" stroke-width="1"/>
    <line x1="528.3999999999994" y1="417.09999999999997" x2="532.5999999999995" y2="417.09999999999997" stroke="#d4d4d4" stroke-width="1"/><line x1="528.3999999999994" y1="420.09999999999997" x2="532.5999999999995" y2="420.09999999999997" stroke="#d4d4d4" stroke-width="1"/><line x1="532.5999999999995" y1="417.09999999999997" x2="536.7999999999994" y2="417.09999999999997" stroke="#d4d4d4" stroke-width="1"/><line x1="532.5999999999995" y1="420.09999999999997" x2="536.7999999999994" y2="420.09999999999997" stroke="#d4d4d4" stroke-width="1"/>
    <line x1="536.7999999999994" y1="417.09999999999997" x2="540.9999999999994" y2="417.09999999999997" stroke="#d4d4d4" stroke-width="1"/><line x1="536.7999999999994" y1="420.09999999999997" x2="540.9999999999994" y2="420.09999999999997" stroke="#d4d4d4" stroke-width="1"/><line x1="540.9999999999994" y1="417.09999999999997" x2="545.1999999999994" y2="417.09999999999997" stroke="#d4d4d4" stroke-width="1"/><line x1="540.9999999999994" y1="420.09999999999997" x2="545.1999999999994" y2="420.09999999999997" stroke="#d4d4d4" stroke-width="1"/>
    <line x1="545.1999999999994" y1="417.09999999999997" x2="549.3999999999994" y2="417.09999999999997" stroke="#d4d4d4" stroke-width="1"/><line x1="545.1999999999994" y1="420.09999999999997" x2="549.3999999999994" y2="420.09999999999997" stroke="#d4d4d4" stroke-width="1"/><line x1="549.3999999999994" y1="417.09999999999997" x2="553.5999999999993" y2="417.09999999999997" stroke="#d4d4d4" stroke-width="1"/><line x1="549.3999999999994" y1="420.09999999999997" x2="553.5999999999993" y2="420.09999999999997" stroke="#d4d4d4" stroke-width="1"/>
    <line x1="553.5999999999993" y1="417.09999999999997" x2="557.7999999999994" y2="417.09999999999997" stroke="#d4d4d4" stroke-width="1"/><line x1="553.5999999999993" y1="420.09999999999997" x2="557.7999999999994" y2="420.09999999999997" stroke="#d4d4d4" stroke-width="1"/><line x1="557.7999999999994" y1="417.09999999999997" x2="561.9999999999993" y2="417.09999999999997" stroke="#d4d4d4" stroke-width="1"/><line x1="557.7999999999994" y1="420.09999999999997" x2="561.9999999999993" y2="420.09999999999997" stroke="#d4d4d4" stroke-width="1"/>
    <line x1="561.9999999999993" y1="417.09999999999997" x2="566.1999999999994" y2="417.09999999999997" stroke="#d4d4d4" stroke-width="1"/><line x1="561.9999999999993" y1="420.09999999999997" x2="566.1999999999994" y2="420.09999999999997" stroke="#d4d4d4" stroke-width="1"/><line x1="566.1999999999994" y1="417.09999999999997" x2="570.3999999999993" y2="417.09999999999997" stroke="#d4d4d4" stroke-width="1"/><line x1="566.1999999999994" y1="420.09999999999997" x2="570.3999999999993" y2="420.09999999999997" stroke="#d4d4d4" stroke-width="1"/>
    <line x1="570.3999999999993" y1="417.09999999999997" x2="574.5999999999993" y2="417.09999999999997" stroke="#d4d4d4" stroke-width="1"/><line x1="570.3999999999993" y1="420.09999999999997" x2="574.5999999999993" y2="420.09999999999997" stroke="#d4d4d4" stroke-width="1"/><line x1="574.5999999999993" y1="417.09999999999997" x2="578.7999999999993" y2="417.09999999999997" stroke="#d4d4d4" stroke-width="1"/><line x1="574.5999999999993" y1="420.09999999999997" x2="578.7999999999993" y2="420.09999999999997" stroke="#d4d4d4" stroke-width="1"/>
    <line x1="578.7999999999993" y1="417.09999999999997" x2="582.9999999999993" y2="417.09999999999997" stroke="#d4d4d4" stroke-width="1"/><line x1="578.7999999999993" y1="420.09999999999997" x2="582.9999999999993" y2="420.09999999999997" stroke="#d4d4d4" stroke-width="1"/><line x1="582.9999999999993" y1="417.09999999999997" x2="587.1999999999992" y2="417.09999999999997" stroke="#d4d4d4" stroke-width="1"/><line x1="582.9999999999993" y1="420.09999999999997" x2="587.1999999999992" y2="420.09999999999997" stroke="#d4d4d4" stroke-width="1"/>
    <line x1="587.1999999999992" y1="417.09999999999997" x2="591.3999999999993" y2="417.09999999999997" stroke="#d4d4d4" stroke-width="1"/><line x1="587.1999999999992" y1="420.09999999999997" x2="591.3999999999993" y2="420.09999999999997" stroke="#d4d4d4" stroke-width="1"/><line x1="591.3999999999993" y1="417.09999999999997" x2="595.5999999999992" y2="417.09999999999997" stroke="#d4d4d4" stroke-width="1"/><line x1="591.3999999999993" y1="420.09999999999997" x2="595.5999999999992" y2="420.09999999999997" stroke="#d4d4d4" stroke-width="1"/>
    <line x1="595.5999999999992" y1="417.09999999999997" x2="599.7999999999993" y2="417.09999999999997" stroke="#d4d4d4" stroke-width="1"/><line x1="595.5999999999992" y1="420.09999999999997" x2="599.7999999999993" y2="420.09999999999997" stroke="#d4d4d4" stroke-width="1"/><line x1="599.7999999999993" y1="417.09999999999997" x2="603.9999999999992" y2="417.09999999999997" stroke="#d4d4d4" stroke-width="1"/><line x1="599.7999999999993" y1="420.09999999999997" x2="603.9999999999992" y2="420.09999999999997" stroke="#d4d4d4" stroke-width="1"/>
    <line x1="603.9999999999992" y1="417.09999999999997" x2="608.1999999999992" y2="417.09999999999997" stroke="#d4d4d4" stroke-width="1"/><line x1="603.9999999999992" y1="420.09999999999997" x2="608.1999999999992" y2="420.09999999999997" stroke="#d4d4d4" stroke-width="1"/><line x1="608.1999999999992" y1="417.09999999999997" x2="612.3999999999992" y2="417.09999999999997" stroke="#d4d4d4" stroke-width="1"/><line x1="608.1999999999992" y1="420.09999999999997" x2="612.3999999999992" y2="420.09999999999997" stroke="#d4d4d4" stroke-width="1"/>
    <line x1="612.3999999999992" y1="417.09999999999997" x2="616.5999999999992" y2="417.09999999999997" stroke="#d4d4d4" stroke-width="1"/><line x1="612.3999999999992" y1="420.09999999999997" x2="616.5999999999992" y2="420.09999999999997" stroke="#d4d4d4" stroke-width="1"/><line x1="616.5999999999992" y1="417.09999999999997" x2="620.7999999999992" y2="417.09999999999997" stroke="#d4d4d4" stroke-width="1"/><line x1="616.5999999999992" y1="420.09999999999997" x2="620.7999999999992" y2="420.09999999999997" stroke="#d4d4d4" stroke-width="1"/>
    <line x1="620.7999999999992" y1="417.09999999999997" x2="624.9999999999992" y2="417.09999999999997" stroke="#d4d4d4" stroke-width="1"/><line x1="620.7999999999992" y1="420.09999999999997" x2="624.9999999999992" y2="420.09999999999997" stroke="#d4d4d4" stroke-width="1"/><line x1="624.9999999999992" y1="417.09999999999997" x2="629.1999999999991" y2="417.09999999999997" stroke="#d4d4d4" stroke-width="1"/><line x1="624.9999999999992" y1="420.09999999999997" x2="629.1999999999991" y2="420.09999999999997" stroke="#d4d4d4" stroke-width="1"/>
    <line x1="629.1999999999991" y1="417.09999999999997" x2="633.3999999999992" y2="417.09999999999997" stroke="#d4d4d4" stroke-width="1"/><line x1="629.1999999999991" y1="420.09999999999997" x2="633.3999999999992" y2="420.09999999999997" stroke="#d4d4d4" stroke-width="1"/><line x1="633.3999999999992" y1="417.09999999999997" x2="637.5999999999991" y2="417.09999999999997" stroke="#d4d4d4" stroke-width="1"/><line x1="633.3999999999992" y1="420.09999999999997" x2="637.5999999999991" y2="420.09999999999997" stroke="#d4d4d4" stroke-width="1"/>
    <line x1="637.5999999999991" y1="417.09999999999997" x2="641.7999999999992" y2="417.09999999999997" stroke="#d4d4d4" stroke-width="1"/><line x1="637.5999999999991" y1="420.09999999999997" x2="641.7999999999992" y2="420.09999999999997" stroke="#d4d4d4" stroke-width="1"/><line x1="641.7999999999992" y1="417.09999999999997" x2="645.9999999999991" y2="417.09999999999997" stroke="#d4d4d4" stroke-width="1"/><line x1="641.7999999999992" y1="420.09999999999997" x2="645.9999999999991" y2="420.09999999999997" stroke="#d4d4d4" stroke-width="1"/>
    <line x1="645.9999999999991" y1="417.09999999999997" x2="650.1999999999991" y2="417.09999999999997" stroke="#d4d4d4" stroke-width="1"/><line x1="645.9999999999991" y1="420.09999999999997" x2="650.1999999999991" y2="420.09999999999997" stroke="#d4d4d4" stroke-width="1"/><line x1="650.1999999999991" y1="417.09999999999997" x2="654.3999999999991" y2="417.09999999999997" stroke="#d4d4d4" stroke-width="1"/><line x1="650.1999999999991" y1="420.09999999999997" x2="654.3999999999991" y2="420.09999999999997" stroke="#d4d4d4" stroke-width="1"/>
    <line x1="654.3999999999991" y1="417.09999999999997" x2="658.5999999999991" y2="417.09999999999997" stroke="#d4d4d4" stroke-width="1"/><line x1="654.3999999999991" y1="420.09999999999997" x2="658.5999999999991" y2="420.09999999999997" stroke="#d4d4d4" stroke-width="1"/><line x1="658.5999999999991" y1="417.09999999999997" x2="662.799999999999" y2="417.09999999999997" stroke="#d4d4d4" stroke-width="1"/><line x1="658.5999999999991" y1="420.09999999999997" x2="662.799999999999" y2="420.09999999999997" stroke="#d4d4d4" stroke-width="1"/>
    <line x1="662.799999999999" y1="417.09999999999997" x2="666.9999999999991" y2="417.09999999999997" stroke="#d4d4d4" stroke-width="1"/><line x1="662.799999999999" y1="420.09999999999997" x2="666.9999999999991" y2="420.09999999999997" stroke="#d4d4d4" stroke-width="1"/><line x1="666.9999999999991" y1="417.09999999999997" x2="671.199999999999" y2="417.09999999999997" stroke="#d4d4d4" stroke-width="1"/><line x1="666.9999999999991" y1="420.09999999999997" x2="671.199999999999" y2="420.09999999999997" stroke="#d4d4d4" stroke-width="1"/>
    <line x1="671.199999999999" y1="417.09999999999997" x2="675.3999999999991" y2="417.09999999999997" stroke="#d4d4d4" stroke-width="1"/><line x1="671.199999999999" y1="420.09999999999997" x2="675.3999999999991" y2="420.09999999999997" stroke="#d4d4d4" stroke-width="1"/><line x1="675.3999999999991" y1="417.09999999999997" x2="679.599999999999" y2="417.09999999999997" stroke="#d4d4d4" stroke-width="1"/><line x1="675.3999999999991" y1="420.09999999999997" x2="679.599999999999" y2="420.09999999999997" stroke="#d4d4d4" stroke-width="1"/>
    <line x1="679.599999999999" y1="417.09999999999997" x2="683.799999999999" y2="417.09999999999997" stroke="#d4d4d4" stroke-width="1"/><line x1="679.599999999999" y1="420.09999999999997" x2="683.799999999999" y2="420.09999999999997" stroke="#d4d4d4" stroke-width="1"/><line x1="683.799999999999" y1="417.09999999999997" x2="687.999999999999" y2="417.09999999999997" stroke="#d4d4d4" stroke-width="1"/><line x1="683.799999999999" y1="420.09999999999997" x2="687.999999999999" y2="420.09999999999997" stroke="#d4d4d4" stroke-width="1"/>
    <line x1="687.999999999999" y1="417.09999999999997" x2="692.199999999999" y2="417.09999999999997" stroke="#d4d4d4" stroke-width="1"/><line x1="687.999999999999" y1="420.09999999999997" x2="692.199999999999" y2="420.09999999999997" stroke="#d4d4d4" stroke-width="1"/><line x1="692.199999999999" y1="417.09999999999997" x2="696.399999999999" y2="417.09999999999997" stroke="#d4d4d4" stroke-width="1"/><line x1="692.199999999999" y1="420.09999999999997" x2="696.399999999999" y2="420.09999999999997" stroke="#d4d4d4" stroke-width="1"/>
    <line x1="696.399999999999" y1="417.09999999999997" x2="700.599999999999" y2="417.09999999999997" stroke="#d4d4d4" stroke-width="1"/><line x1="696.399999999999" y1="420.09999999999997" x2="700.599999999999" y2="420.09999999999997" stroke="#d4d4d4" stroke-width="1"/><line x1="700.599999999999" y1="417.09999999999997" x2="704.7999999999989" y2="417.09999999999997" stroke="#d4d4d4" stroke-width="1"/><line x1="700.599999999999" y1="420.09999999999997" x2="704.7999999999989" y2="420.09999999999997" stroke="#d4d4d4" stroke-width="1"/>
    <line x1="704.7999999999989" y1="417.09999999999997" x2="708.999999999999" y2="417.09999999999997" stroke="#d4d4d4" stroke-width="1"/><line x1="704.7999999999989" y1="420.09999999999997" x2="708.999999999999" y2="420.09999999999997" stroke="#d4d4d4" stroke-width="1"/><line x1="708.999999999999" y1="417.09999999999997" x2="713.1999999999989" y2="417.09999999999997" stroke="#d4d4d4" stroke-width="1"/><line x1="708.999999999999" y1="420.09999999999997" x2="713.1999999999989" y2="420.09999999999997" stroke="#d4d4d4" stroke-width="1"/>
    <line x1="713.1999999999989" y1="417.09999999999997" x2="717.399999999999" y2="417.09999999999997" stroke="#d4d4d4" stroke-width="1"/><line x1="713.1999999999989" y1="420.09999999999997" x2="717.399999999999" y2="420.09999999999997" stroke="#d4d4d4" stroke-width="1"/><line x1="717.399999999999" y1="417.09999999999997" x2="721.5999999999989" y2="417.09999999999997" stroke="#d4d4d4" stroke-width="1"/><line x1="717.399999999999" y1="420.09999999999997" x2="721.5999999999989" y2="420.09999999999997" stroke="#d4d4d4" stroke-width="1"/>
    <line x1="721.5999999999989" y1="417.09999999999997" x2="725.7999999999989" y2="417.09999999999997" stroke="#d4d4d4" stroke-width="1"/><line x1="721.5999999999989" y1="420.09999999999997" x2="725.7999999999989" y2="420.09999999999997" stroke="#d4d4d4" stroke-width="1"/><line x1="725.7999999999989" y1="417.09999999999997" x2="729.9999999999989" y2="417.09999999999997" stroke="#d4d4d4" stroke-width="1"/><line x1="725.7999999999989" y1="420.09999999999997" x2="729.9999999999989" y2="420.09999999999997" stroke="#d4d4d4" stroke-width="1"/>
    <line x1="729.9999999999989" y1="417.09999999999997" x2="734.1999999999989" y2="417.09999999999997" stroke="#d4d4d4" stroke-width="1"/><line x1="729.9999999999989" y1="420.09999999999997" x2="734.1999999999989" y2="420.09999999999997" stroke="#d4d4d4" stroke-width="1"/><line x1="734.1999999999989" y1="417.09999999999997" x2="738.3999999999988" y2="417.09999999999997" stroke="#d4d4d4" stroke-width="1"/><line x1="734.1999999999989" y1="420.09999999999997" x2="738.3999999999988" y2="420.09999999999997" stroke="#d4d4d4" stroke-width="1"/>
    <line x1="738.3999999999988" y1="417.09999999999997" x2="742.5999999999989" y2="417.09999999999997" stroke="#d4d4d4" stroke-width="1"/><line x1="738.3999999999988" y1="420.09999999999997" x2="742.5999999999989" y2="420.09999999999997" stroke="#d4d4d4" stroke-width="1"/><line x1="742.5999999999989" y1="417.09999999999997" x2="746.7999999999988" y2="417.09999999999997" stroke="#d4d4d4" stroke-width="1"/><line x1="742.5999999999989" y1="420.09999999999997" x2="746.7999999999988" y2="420.09999999999997" stroke="#d4d4d4" stroke-width="1"/>
    <line x1="746.7999999999988" y1="417.09999999999997" x2="750.9999999999989" y2="417.09999999999997" stroke="#d4d4d4" stroke-width="1"/><line x1="746.7999999999988" y1="420.09999999999997" x2="750.9999999999989" y2="420.09999999999997" stroke="#d4d4d4" stroke-width="1"/><line x1="750.9999999999989" y1="417.09999999999997" x2="755.1999999999988" y2="417.09999999999997" stroke="#d4d4d4" stroke-width="1"/><line x1="750.9999999999989" y1="420.09999999999997" x2="755.1999999999988" y2="420.09999999999997" stroke="#d4d4d4" stroke-width="1"/>
    <line x1="755.1999999999988" y1="417.09999999999997" x2="759.3999999999988" y2="417.09999999999997" stroke="#d4d4d4" stroke-width="1"/><line x1="755.1999999999988" y1="420.09999999999997" x2="759.3999999999988" y2="420.09999999999997" stroke="#d4d4d4" stroke-width="1"/><line x1="759.3999999999988" y1="417.09999999999997" x2="763.5999999999988" y2="417.09999999999997" stroke="#d4d4d4" stroke-width="1"/><line x1="759.3999999999988" y1="420.09999999999997" x2="763.5999999999988" y2="420.09999999999997" stroke="#d4d4d4" stroke-width="1"/>
    <line x1="763.5999999999988" y1="417.09999999999997" x2="767.7999999999988" y2="417.09999999999997" stroke="#d4d4d4" stroke-width="1"/><line x1="763.5999999999988" y1="420.09999999999997" x2="767.7999999999988" y2="420.09999999999997" stroke="#d4d4d4" stroke-width="1"/><line x1="767.7999999999988" y1="417.09999999999997" x2="771.9999999999987" y2="417.09999999999997" stroke="#d4d4d4" stroke-width="1"/><line x1="767.7999999999988" y1="420.09999999999997" x2="771.9999999999987" y2="420.09999999999997" stroke="#d4d4d4" stroke-width="1"/>
    <line x1="771.9999999999987" y1="417.09999999999997" x2="776.1999999999988" y2="417.09999999999997" stroke="#d4d4d4" stroke-width="1"/><line x1="771.9999999999987" y1="420.09999999999997" x2="776.1999999999988" y2="420.09999999999997" stroke="#d4d4d4" stroke-width="1"/><line x1="776.1999999999988" y1="417.09999999999997" x2="780.3999999999987" y2="417.09999999999997" stroke="#d4d4d4" stroke-width="1"/><line x1="776.1999999999988" y1="420.09999999999997" x2="780.3999999999987" y2="420.09999999999997" stroke="#d4d4d4" stroke-width="1"/>
    <line x1="780.3999999999987" y1="417.09999999999997" x2="784.5999999999988" y2="417.09999999999997" stroke="#d4d4d4" stroke-width="1"/><line x1="780.3999999999987" y1="420.09999999999997" x2="784.5999999999988" y2="420.09999999999997" stroke="#d4d4d4" stroke-width="1"/><line x1="784.5999999999988" y1="417.09999999999997" x2="788.7999999999987" y2="417.09999999999997" stroke="#d4d4d4" stroke-width="1"/><line x1="784.5999999999988" y1="420.09999999999997" x2="788.7999999999987" y2="420.09999999999997" stroke="#d4d4d4" stroke-width="1"/>
    <line x1="788.7999999999987" y1="417.09999999999997" x2="792.9999999999987" y2="417.09999999999997" stroke="#d4d4d4" stroke-width="1"/><line x1="788.7999999999987" y1="420.09999999999997" x2="792.9999999999987" y2="420.09999999999997" stroke="#d4d4d4" stroke-width="1"/><line x1="792.9999999999987" y1="417.09999999999997" x2="797.1999999999987" y2="417.09999999999997" stroke="#d4d4d4" stroke-width="1"/><line x1="792.9999999999987" y1="420.09999999999997" x2="797.1999999999987" y2="420.09999999999997" stroke="#d4d4d4" stroke-width="1"/>
    <line x1="797.1999999999987" y1="417.09999999999997" x2="801.3999999999987" y2="417.09999999999997" stroke="#d4d4d4" stroke-width="1"/><line x1="797.1999999999987" y1="420.09999999999997" x2="801.3999999999987" y2="420.09999999999997" stroke="#d4d4d4" stroke-width="1"/><line x1="801.3999999999987" y1="417.09999999999997" x2="805.5999999999987" y2="417.09999999999997" stroke="#d4d4d4" stroke-width="1"/><line x1="801.3999999999987" y1="420.09999999999997" x2="805.5999999999987" y2="420.09999999999997" stroke="#d4d4d4" stroke-width="1"/>
    <line x1="805.5999999999987" y1="417.09999999999997" x2="809.7999999999987" y2="417.09999999999997" stroke="#d4d4d4" stroke-width="1"/><line x1="805.5999999999987" y1="420.09999999999997" x2="809.7999999999987" y2="420.09999999999997" stroke="#d4d4d4" stroke-width="1"/><line x1="809.7999999999987" y1="417.09999999999997" x2="813.9999999999986" y2="417.09999999999997" stroke="#d4d4d4" stroke-width="1"/><line x1="809.7999999999987" y1="420.09999999999997" x2="813.9999999999986" y2="420.09999999999997" stroke="#d4d4d4" stroke-width="1"/>
    <line x1="813.9999999999986" y1="417.09999999999997" x2="818.1999999999987" y2="417.09999999999997" stroke="#d4d4d4" stroke-width="1"/><line x1="813.9999999999986" y1="420.09999999999997" x2="818.1999999999987" y2="420.09999999999997" stroke="#d4d4d4" stroke-width="1"/><line x1="818.1999999999987" y1="417.09999999999997" x2="822.3999999999986" y2="417.09999999999997" stroke="#d4d4d4" stroke-width="1"/><line x1="818.1999999999987" y1="420.09999999999997" x2="822.3999999999986" y2="420.09999999999997" stroke="#d4d4d4" stroke-width="1"/>
    <line x1="822.3999999999986" y1="417.09999999999997" x2="826.5999999999987" y2="417.09999999999997" stroke="#d4d4d4" stroke-width="1"/><line x1="822.3999999999986" y1="420.09999999999997" x2="826.5999999999987" y2="420.09999999999997" stroke="#d4d4d4" stroke-width="1"/><line x1="826.5999999999987" y1="417.09999999999997" x2="830.7999999999986" y2="417.09999999999997" stroke="#d4d4d4" stroke-width="1"/><line x1="826.5999999999987" y1="420.09999999999997" x2="830.7999999999986" y2="420.09999999999997" stroke="#d4d4d4" stroke-width="1"/>
    <line x1="830.7999999999986" y1="417.09999999999997" x2="834.9999999999986" y2="417.09999999999997" stroke="#d4d4d4" stroke-width="1"/><line x1="830.7999999999986" y1="420.09999999999997" x2="834.9999999999986" y2="420.09999999999997" stroke="#d4d4d4" stroke-width="1"/><line x1="834.9999999999986" y1="417.09999999999997" x2="839.1999999999986" y2="417.09999999999997" stroke="#d4d4d4" stroke-width="1"/><line x1="834.9999999999986" y1="420.09999999999997" x2="839.1999999999986" y2="420.09999999999997" stroke="#d4d4d4" stroke-width="1"/>
    <line x1="839.1999999999986" y1="417.09999999999997" x2="843.3999999999986" y2="417.09999999999997" stroke="#d4d4d4" stroke-width="1"/><line x1="839.1999999999986" y1="420.09999999999997" x2="843.3999999999986" y2="420.09999999999997" stroke="#d4d4d4" stroke-width="1"/><line x1="843.3999999999986" y1="417.09999999999997" x2="847.5999999999985" y2="417.09999999999997" stroke="#d4d4d4" stroke-width="1"/><line x1="843.3999999999986" y1="420.09999999999997" x2="847.5999999999985" y2="420.09999999999997" stroke="#d4d4d4" stroke-width="1"/>
    <line x1="847.5999999999985" y1="417.09999999999997" x2="851.7999999999986" y2="417.09999999999997" stroke="#d4d4d4" stroke-width="1"/><line x1="847.5999999999985" y1="420.09999999999997" x2="851.7999999999986" y2="420.09999999999997" stroke="#d4d4d4" stroke-width="1"/><line x1="851.7999999999986" y1="417.09999999999997" x2="855.9999999999985" y2="417.09999999999997" stroke="#d4d4d4" stroke-width="1"/><line x1="851.7999999999986" y1="420.09999999999997" x2="855.9999999999985" y2="420.09999999999997" stroke="#d4d4d4" stroke-width="1"/>
    <line x1="855.9999999999985" y1="417.09999999999997" x2="860.1999999999986" y2="417.09999999999997" stroke="#d4d4d4" stroke-width="1"/><line x1="855.9999999999985" y1="420.09999999999997" x2="860.1999999999986" y2="420.09999999999997" stroke="#d4d4d4" stroke-width="1"/><line x1="860.1999999999986" y1="417.09999999999997" x2="864.3999999999985" y2="417.09999999999997" stroke="#d4d4d4" stroke-width="1"/><line x1="860.1999999999986" y1="420.09999999999997" x2="864.3999999999985" y2="420.09999999999997" stroke="#d4d4d4" stroke-width="1"/>
    <line x1="864.3999999999985" y1="417.09999999999997" x2="868.5999999999985" y2="417.09999999999997" stroke="#d4d4d4" stroke-width="1"/><line x1="864.3999999999985" y1="420.09999999999997" x2="868.5999999999985" y2="420.09999999999997" stroke="#d4d4d4" stroke-width="1"/><line x1="868.5999999999985" y1="417.09999999999997" x2="872.7999999999985" y2="417.09999999999997" stroke="#d4d4d4" stroke-width="1"/><line x1="868.5999999999985" y1="420.09999999999997" x2="872.7999999999985" y2="420.09999999999997" stroke="#d4d4d4" stroke-width="1"/>
    <line x1="872.7999999999985" y1="417.09999999999997" x2="876.9999999999985" y2="417.09999999999997" stroke="#d4d4d4" stroke-width="1"/><line x1="872.7999999999985" y1="420.09999999999997" x2="876.9999999999985" y2="420.09999999999997" stroke="#d4d4d4" stroke-width="1"/><line x1="876.9999999999985" y1="417.09999999999997" x2="881.1999999999985" y2="417.09999999999997" stroke="#d4d4d4" stroke-width="1"/><line x1="876.9999999999985" y1="420.09999999999997" x2="881.1999999999985" y2="420.09999999999997" stroke="#d4d4d4" stroke-width="1"/>
    <line x1="881.1999999999985" y1="417.09999999999997" x2="885.3999999999985" y2="417.09999999999997" stroke="#d4d4d4" stroke-width="1"/><line x1="881.1999999999985" y1="420.09999999999997" x2="885.3999999999985" y2="420.09999999999997" stroke="#d4d4d4" stroke-width="1"/><line x1="885.3999999999985" y1="417.09999999999997" x2="889.5999999999984" y2="417.09999999999997" stroke="#d4d4d4" stroke-width="1"/><line x1="885.3999999999985" y1="420.09999999999997" x2="889.5999999999984" y2="420.09999999999997" stroke="#d4d4d4" stroke-width="1"/>
    <line x1="889.5999999999984" y1="417.09999999999997" x2="893.7999999999985" y2="417.09999999999997" stroke="#d4d4d4" stroke-width="1"/><line x1="889.5999999999984" y1="420.09999999999997" x2="893.7999999999985" y2="420.09999999999997" stroke="#d4d4d4" stroke-width="1"/><line x1="893.7999999999985" y1="417.09999999999997" x2="897.9999999999984" y2="417.09999999999997" stroke="#d4d4d4" stroke-width="1"/><line x1="893.7999999999985" y1="420.09999999999997" x2="897.9999999999984" y2="420.09999999999997" stroke="#d4d4d4" stroke-width="1"/>
  </g>
  <g class="text">
    <text y="89.6" font-family="'SF Mono', 'Monaco', 'Menlo', 'Ubuntu Mono', 'Consolas', 'Courier New', monospace" font-size="14" xml:space="preserve"><tspan x="16" fill="#00ffaf">Single value            </tspan></text>
    <text y="109.19999999999999" font-family="'SF Mono', 'Monaco', 'Menlo', 'Ubuntu Mono', 'Consolas', 'Courier New', monospace" font-size="14" xml:space="preserve"><tspan x="16" fill="#d4d4d4">                        </tspan></text>
    <text y="128.8" font-family="'SF Mono', 'Monaco', 'Menlo', 'Ubuntu Mono', 'Consolas', 'Courier New', monospace" font-size="14" xml:space="preserve"><tspan x="16" fill="#d4d4d4">                        </tspan></text>
    <text y="148.39999999999998" font-family="'SF Mono', 'Monaco', 'Menlo', 'Ubuntu Mono', 'Consolas', 'Courier New', monospace" font-size="14" xml:space="preserve"><tspan x="16" fill="#d4d4d4">                        </tspan></text>
    <text y="168" font-family="'SF Mono', 'Monaco', 'Menlo', 'Ubuntu Mono', 'Consolas', 'Courier New', monospace" font-size="14" xml:space="preserve"><tspan x="16" fill="#afafff">Per-segment objects     </tspan></text>
    <text y="187.6" font-family="'SF Mono', 'Monaco', 'Menlo', 'Ubuntu Mono', 'Consolas', 'Courier New', monospace" font-size="14" xml:space="preserve"><tspan x="16" fill="#d4d4d4">                        </tspan></text>
    <text y="207.2" font-family="'SF Mono', 'Monaco', 'Menlo', 'Ubuntu Mono', 'Consolas', 'Courier New', monospace" font-size="14" xml:space="preserve"><tspan x="16" fill="#d4d4d4">                        </tspan></text>
    <text y="226.79999999999998" font-family="'SF Mono', 'Monaco', 'Menlo', 'Ubuntu Mono', 'Consolas', 'Courier New', monospace" font-size="14" xml:space="preserve"><tspan x="16" fill="#d4d4d4">                        </tspan></text>
    <text y="246.39999999999998" font-family="'SF Mono', 'Monaco', 'Menlo', 'Ubuntu Mono', 'Consolas', 'Courier New', monospace" font-size="14" xml:space="preserve"><tspan x="16" fill="#afffff">Global colors only      </tspan></text>
    <text y="266" font-family="'SF Mono', 'Monaco', 'Menlo', 'Ubuntu Mono', 'Consolas', 'Courier New', monospace" font-size="14" xml:space="preserve"><tspan x="16" fill="#d4d4d4">                        </tspan></text>
    <text y="285.59999999999997" font-family="'SF Mono', 'Monaco', 'Menlo', 'Ubuntu Mono', 'Consolas', 'Courier New', monospace" font-size="14" xml:space="preserve"><tspan x="16" fill="#d4d4d4">                        </tspan></text>
    <text y="305.2" font-family="'SF Mono', 'Monaco', 'Menlo', 'Ubuntu Mono', 'Consolas', 'Courier New', monospace" font-size="14" xml:space="preserve"><tspan x="16" fill="#d4d4d4">                        </tspan></text>
    <text y="324.79999999999995" font-family="'SF Mono', 'Monaco', 'Menlo', 'Ubuntu Mono', 'Consolas', 'Courier New', monospace" font-size="14" xml:space="preserve"><tspan x="16" fill="#ff875f">Per-bar array (partial) </tspan></text>
    <text y="344.4" font-family="'SF Mono', 'Monaco', 'Menlo', 'Ubuntu Mono', 'Consolas', 'Courier New', monospace" font-size="14" xml:space="preserve"><tspan x="16" fill="#d4d4d4">                        </tspan></text>
    <text y="363.99999999999994" font-family="'SF Mono', 'Monaco', 'Menlo', 'Ubuntu Mono', 'Consolas', 'Courier New', monospace" font-size="14" xml:space="preserve"><tspan x="16" fill="#d4d4d4">                        </tspan></text>
    <text y="383.59999999999997" font-family="'SF Mono', 'Monaco', 'Menlo', 'Ubuntu Mono', 'Consolas', 'Courier New', monospace" font-size="14" xml:space="preserve"><tspan x="16" fill="#d4d4d4">                        </tspan></text>
    <text y="403.2" font-family="'SF Mono', 'Monaco', 'Menlo', 'Ubuntu Mono', 'Consolas', 'Courier New', monospace" font-size="14" xml:space="preserve"><tspan x="16" fill="#ffff87">Per-bar array (full)    </tspan></text>
    <text y="422.79999999999995" font-family="'SF Mono', 'Monaco', 'Menlo', 'Ubuntu Mono', 'Consolas', 'Courier New', monospace" font-size="14" xml:space="preserve"><tspan x="16" fill="#d4d4d4">                        </tspan></text>
  </g>
</svg>