<svg xmlns="http://www.w3.org/2000/svg" viewBox="0 0 704 368.8" width="704" height="368.8">
  <rect x="0" y="0" width="704" height="368.8" fill="#1e1e1e" rx="10" ry="10"/>
  <g class="title-bar">
    <circle cx="16" cy="20" r="6" fill="#ff5f56"/>
    <circle cx="36" cy="20" r="6" fill="#ffbd2e"/>
    <circle cx="56" cy="20" r="6" fill="#27c93f"/>
  </g>
  <g class="glyphs">
    <g shape-rendering="crispEdges"><line x1="35.5" y1="75.6" x2="35.5" y2="85.4" stroke="#d4d4d4" stroke-width="1"/><line x1="38.5" y1="75.6" x2="38.5" y2="85.4" stroke="#d4d4d4" stroke-width="1"/><line x1="35.5" y1="85.4" x2="35.5" y2="95.2" stroke="#d4d4d4" stroke-width="1"/><line x1="38.5" y1="85.4" x2="38.5" y2="95.2" stroke="#d4d4d4" stroke-width="1"/></g>
    <line x1="620.8" y1="95.2" x2="629.2" y2="75.6" stroke="#74188c" stroke-width="1"/>
    <rect x="629.2" y="75.6" width="8.4" height="1" fill="#76148a" shape-rendering="crispEdges"/>
    <rect x="637.6" y="75.6" width="8.4" height="1" fill="#771188" shape-rendering="crispEdges"/>
    <rect x="646" y="75.6" width="8.4" height="1" fill="#790e87" shape-rendering="crispEdges"/>
    <rect x="654.4" y="75.6" width="8.4" height="1" fill="#7b0a85" shape-rendering="crispEdges"/>
    <rect x="662.8" y="75.6" width="8.4" height="1" fill="#7d0783" shape-rendering="crispEdges"/>
    <line x1="671.2" y1="75.6" x2="679.6" y2="95.2" stroke="#7e0382" stroke-width="1"/>
    <g shape-rendering="crispEdges"><line x1="35.5" y1="95.2" x2="35.5" y2="105" stroke="#d4d4d4" stroke-width="1"/><line x1="38.5" y1="95.2" x2="38.5" y2="105" stroke="#d4d4d4" stroke-width="1"/><line x1="35.5" y1="105" x2="35.5" y2="114.8" stroke="#d4d4d4" stroke-width="1"/><line x1="38.5" y1="105" x2="38.5" y2="114.8" stroke="#d4d4d4" stroke-width="1"/></g>
    <line x1="511.6" y1="114.8" x2="520" y2="95.2" stroke="#5e44a2" stroke-width="1"/>
    <rect x="520" y="95.2" width="8.4" height="1" fill="#6041a0" shape-rendering="crispEdges"/>
    <rect x="528.4" y="95.2" width="8.4" height="1" fill="#613d9e" shape-rendering="crispEdges"/>
    <rect x="536.8" y="95.2" width="8.4" height="1" fill="#633a9d" shape-rendering="crispEdges"/>
    <rect x="545.2" y="95.2" width="8.4" height="1" fill="#65369b" shape-rendering="crispEdges"/>
    <line x1="553.6" y1="95.2" x2="562" y2="114.8" stroke="#663399" stroke-width="1"/>
    <line x1="612.4" y1="114.8" x2="620.8" y2="95.2" stroke="#721b8e" stroke-width="1"/>
    <line x1="679.6" y1="95.2" x2="688" y2="114.8" stroke="#800080" stroke-width="1"/>
    <g shape-rendering="crispEdges"><line x1="35.5" y1="114.8" x2="35.5" y2="124.6" stroke="#d4d4d4" stroke-width="1"/><line x1="38.5" y1="114.8" x2="38.5" y2="124.6" stroke="#d4d4d4" stroke-width="1"/><line x1="35.5" y1="124.6" x2="35.5" y2="134.4" stroke="#d4d4d4" stroke-width="1"/><line x1="38.5" y1="124.6" x2="38.5" y2="134.4" stroke="#d4d4d4" stroke-width="1"/></g>
    <line x1="503.2" y1="134.4" x2="511.6" y2="114.8" stroke="#5c47a4" stroke-width="1"/>
    <line x1="562" y1="114.8" x2="570.4" y2="134.4" stroke="#683098" stroke-width="1"/>
    <rect x="570.4" y="133.4" width="8.4" height="1" fill="#6a2c96" shape-rendering="crispEdges"/>
    <rect x="578.8" y="133.4" width="8.4" height="1" fill="#6c2994" shape-rendering="crispEdges"/>
    <rect x="587.2" y="133.4" width="8.4" height="1" fill="#6d2593" shape-rendering="crispEdges"/>
    <rect x="595.6" y="133.4" width="8.4" height="1" fill="#6f2291" shape-rendering="crispEdges"/>
    <line x1="604" y1="134.4" x2="612.4" y2="114.8" stroke="#711f8f" stroke-width="1"/>
    <g shape-rendering="crispEdges"><line x1="35.5" y1="134.4" x2="35.5" y2="144.2" stroke="#d4d4d4" stroke-width="1"/><line x1="38.5" y1="134.4" x2="38.5" y2="144.2" stroke="#d4d4d4" stroke-width="1"/><line x1="35.5" y1="144.2" x2="35.5" y2="154" stroke="#d4d4d4" stroke-width="1"/><line x1="38.5" y1="144.2" x2="38.5" y2="154" stroke="#d4d4d4" stroke-width="1"/></g>
    <line x1="276.4" y1="154" x2="284.8" y2="134.4" stroke="#2ea3d1" stroke-width="1"/>
    <rect x="284.8" y="134.4" width="8.4" height="1" fill="#30a0d0" shape-rendering="crispEdges"/>
    <rect x="293.2" y="134.4" width="8.4" height="1" fill="#319cce" shape-rendering="crispEdges"/>
    <rect x="301.6" y="134.4" width="8.4" height="1" fill="#3399cc" shape-rendering="crispEdges"/>
    <line x1="310" y1="134.4" x2="318.4" y2="154" stroke="#3596cb" stroke-width="1"/>
    <line x1="394" y1="154" x2="402.4" y2="134.4" stroke="#4674ba" stroke-width="1"/>
    <rect x="402.4" y="134.4" width="8.4" height="1" fill="#4870b8" shape-rendering="crispEdges"/>
    <rect x="410.8" y="134.4" width="8.4" height="1" fill="#496db6" shape-rendering="crispEdges"/>
    <rect x="419.2" y="134.4" width="8.4" height="1" fill="#4b69b4" shape-rendering="crispEdges"/>
    <rect x="427.6" y="134.4" width="8.4" height="1" fill="#4d66b3" shape-rendering="crispEdges"/>
    <rect x="436" y="134.4" width="8.4" height="1" fill="#4f63b1" shape-rendering="crispEdges"/>
    <line x1="444.4" y1="134.4" x2="452.8" y2="154" stroke="#505faf" stroke-width="1"/>
    <line x1="494.8" y1="154" x2="503.2" y2="134.4" stroke="#5a4ba5" stroke-width="1"/>
    <g shape-rendering="crispEdges"><line x1="35.5" y1="154" x2="35.5" y2="163.8" stroke="#d4d4d4" stroke-width="1"/><line x1="38.5" y1="154" x2="38.5" y2="163.8" stroke="#d4d4d4" stroke-width="1"/><line x1="35.5" y1="163.8" x2="35.5" y2="173.6" stroke="#d4d4d4" stroke-width="1"/><line x1="38.5" y1="163.8" x2="38.5" y2="173.6" stroke="#d4d4d4" stroke-width="1"/></g>
    <line x1="268" y1="173.6" x2="276.4" y2="154" stroke="#2ca7d3" stroke-width="1"/>
    <line x1="318.4" y1="154" x2="326.8" y2="173.6" stroke="#3792c9" stroke-width="1"/>
    <line x1="385.6" y1="173.6" x2="394" y2="154" stroke="#4477bb" stroke-width="1"/>
    <line x1="452.8" y1="154" x2="461.2" y2="173.6" stroke="#525cae" stroke-width="1"/>
    <rect x="461.2" y="172.6" width="8.4" height="1" fill="#5458ac" shape-rendering="crispEdges"/>
    <rect x="469.6" y="172.6" width="8.4" height="1" fill="#5555aa" shape-rendering="crispEdges"/>
    <rect x="478" y="172.6" width="8.4" height="1" fill="#5752a9" shape-rendering="crispEdges"/>
    <line x1="486.4" y1="173.6" x2="494.8" y2="154" stroke="#594ea7" stroke-width="1"/>
    <g shape-rendering="crispEdges"><line x1="35.5" y1="173.6" x2="35.5" y2="183.4" stroke="#d4d4d4" stroke-width="1"/><line x1="38.5" y1="173.6" x2="38.5" y2="183.4" stroke="#d4d4d4" stroke-width="1"/><line x1="35.5" y1="183.4" x2="35.5" y2="193.2" stroke="#d4d4d4" stroke-width="1"/><line x1="38.5" y1="183.4" x2="38.5" y2="193.2" stroke="#d4d4d4" stroke-width="1"/></g>
    <line x1="200.8" y1="193.2" x2="209.2" y2="173.6" stroke="#1fc2e1" stroke-width="1"/>
    <rect x="209.2" y="173.6" width="8.4" height="1" fill="#20bedf" shape-rendering="crispEdges"/>
    <rect x="217.6" y="173.6" width="8.4" height="1" fill="#22bbdd" shape-rendering="crispEdges"/>
    <rect x="226" y="173.6" width="8.4" height="1" fill="#24b8db" shape-rendering="crispEdges"/>
    <rect x="234.4" y="173.6" width="8.4" height="1" fill="#26b4da" shape-rendering="crispEdges"/>
    <rect x="242.8" y="173.6" width="8.4" height="1" fill="#27b1d8" shape-rendering="crispEdges"/>
    <rect x="251.2" y="173.6" width="8.4" height="1" fill="#29add6" shape-rendering="crispEdges"/>
    <rect x="259.6" y="173.6" width="8.4" height="1" fill="#2baad5" shape-rendering="crispEdges"/>
    <line x1="326.8" y1="173.6" x2="335.2" y2="193.2" stroke="#388fc7" stroke-width="1"/>
    <line x1="377.2" y1="193.2" x2="385.6" y2="173.6" stroke="#437abd" stroke-width="1"/>
    <g shape-rendering="crispEdges"><line x1="35.5" y1="193.2" x2="35.5" y2="203" stroke="#d4d4d4" stroke-width="1"/><line x1="38.5" y1="193.2" x2="38.5" y2="203" stroke="#d4d4d4" stroke-width="1"/><line x1="35.5" y1="203" x2="35.5" y2="212.8" stroke="#d4d4d4" stroke-width="1"/><line x1="38.5" y1="203" x2="38.5" y2="212.8" stroke="#d4d4d4" stroke-width="1"/></g>
    <line x1="192.4" y1="212.8" x2="200.8" y2="193.2" stroke="#1dc5e2" stroke-width="1"/>
    <line x1="335.2" y1="193.2" x2="343.6" y2="212.8" stroke="#3a8bc5" stroke-width="1"/>
    <rect x="343.6" y="211.8" width="8.4" height="1" fill="#3c88c4" shape-rendering="crispEdges"/>
    <rect x="352" y="211.8" width="8.4" height="1" fill="#3d85c2" shape-rendering="crispEdges"/>
    <rect x="360.4" y="211.8" width="8.4" height="1" fill="#3f81c0" shape-rendering="crispEdges"/>
    <line x1="368.8" y1="212.8" x2="377.2" y2="193.2" stroke="#417ebf" stroke-width="1"/>
    <g shape-rendering="crispEdges"><line x1="35.5" y1="212.8" x2="35.5" y2="222.6" stroke="#d4d4d4" stroke-width="1"/><line x1="38.5" y1="212.8" x2="38.5" y2="222.6" stroke="#d4d4d4" stroke-width="1"/><line x1="35.5" y1="222.6" x2="35.5" y2="232.4" stroke="#d4d4d4" stroke-width="1"/><line x1="38.5" y1="222.6" x2="38.5" y2="232.4" stroke="#d4d4d4" stroke-width="1"/></g>
    <line x1="108.4" y1="232.4" x2="116.8" y2="212.8" stroke="#0ce7f3" stroke-width="1"/>
    <rect x="116.8" y="212.8" width="8.4" height="1" fill="#0ee4f1" shape-rendering="crispEdges"/>
    <rect x="125.2" y="212.8" width="8.4" height="1" fill="#0fe0f0" shape-rendering="crispEdges"/>
    <rect x="133.6" y="212.8" width="8.4" height="1" fill="#11ddee" shape-rendering="crispEdges"/>
    <rect x="142" y="212.8" width="8.4" height="1" fill="#13daec" shape-rendering="crispEdges"/>
    <rect x="150.4" y="212.8" width="8.4" height="1" fill="#14d6eb" shape-rendering="crispEdges"/>
    <line x1="158.8" y1="212.8" x2="167.2" y2="232.4" stroke="#16d3e9" stroke-width="1"/>
    <line x1="184" y1="232.4" x2="192.4" y2="212.8" stroke="#1bc9e4" stroke-width="1"/>
    <g shape-rendering="crispEdges"><line x1="35.5" y1="232.4" x2="35.5" y2="242.2" stroke="#d4d4d4" stroke-width="1"/><line x1="38.5" y1="232.4" x2="38.5" y2="242.2" stroke="#d4d4d4" stroke-width="1"/><line x1="35.5" y1="242.2" x2="35.5" y2="252" stroke="#d4d4d4" stroke-width="1"/><line x1="38.5" y1="242.2" x2="38.5" y2="252" stroke="#d4d4d4" stroke-width="1"/></g>
    <line x1="100" y1="252" x2="108.4" y2="232.4" stroke="#0aebf5" stroke-width="1"/>
    <line x1="167.2" y1="232.4" x2="175.6" y2="252" stroke="#18cfe7" stroke-width="1"/>
    <line x1="175.6" y1="252" x2="184" y2="232.4" stroke="#1acce6" stroke-width="1"/>
    <g shape-rendering="crispEdges"><line x1="35.5" y1="252" x2="35.5" y2="261.8" stroke="#d4d4d4" stroke-width="1"/><line x1="38.5" y1="252" x2="38.5" y2="261.8" stroke="#d4d4d4" stroke-width="1"/><line x1="35.5" y1="261.8" x2="35.5" y2="271.6" stroke="#d4d4d4" stroke-width="1"/><line x1="38.5" y1="261.8" x2="38.5" y2="271.6" stroke="#d4d4d4" stroke-width="1"/></g>
    <rect x="58" y="270.6" width="8.4" height="1" fill="#02fcfd" shape-rendering="crispEdges"/>
    <rect x="66.4" y="270.6" width="8.4" height="1" fill="#03f8fc" shape-rendering="crispEdges"/>
    <rect x="74.8" y="270.6" width="8.4" height="1" fill="#05f5fa" shape-rendering="crispEdges"/>
    <rect x="83.2" y="270.6" width="8.4" height="1" fill="#07f1f8" shape-rendering="crispEdges"/>
    <line x1="91.6" y1="271.6" x2="100" y2="252" stroke="#09eef7" stroke-width="1"/>
    <g shape-rendering="crispEdges"><path d="M 35.5 271.6 L 35.5 282.9 L 41.2 282.9" fill="none" stroke="#d4d4d4" stroke-width="1"/><path d="M 38.5 271.6 L 38.5 279.9 L 41.2 279.9" fill="none" stroke="#d4d4d4" stroke-width="1"/></g>
    <g shape-rendering="crispEdges"><line x1="41.2" y1="279.9" x2="45.4" y2="279.9" stroke="#d4d4d4" stroke-width="1"/><line x1="41.2" y1="282.9" x2="45.4" y2="282.9" stroke="#d4d4d4" stroke-width="1"/><line x1="45.4" y1="279.9" x2="49.6" y2="279.9" stroke="#d4d4d4" stroke-width="1"/><line x1="45.4" y1="282.9" x2="49.6" y2="282.9" stroke="#d4d4d4" stroke-width="1"/></g>
    <g shape-rendering="crispEdges"><line x1="49.6" y1="279.9" x2="53.8" y2="279.9" stroke="#d4d4d4" stroke-width="1"/><line x1="49.6" y1="282.9" x2="53.8" y2="282.9" stroke="#d4d4d4" stroke-width="1"/><line x1="53.8" y1="279.9" x2="58" y2="279.9" stroke="#d4d4d4" stroke-width="1"/><line x1="53.8" y1="282.9" x2="58" y2="282.9" stroke="#d4d4d4" stroke-width="1"/></g>
    <g shape-rendering="crispEdges"><line x1="58" y1="279.9" x2="62.2" y2="279.9" stroke="#d4d4d4" stroke-width="1"/><line x1="58" y1="282.9" x2="62.2" y2="282.9" stroke="#d4d4d4" stroke-width="1"/><line x1="62.2" y1="279.9" x2="66.4" y2="279.9" stroke="#d4d4d4" stroke-width="1"/><line x1="62.2" y1="282.9" x2="66.4" y2="282.9" stroke="#d4d4d4" stroke-width="1"/></g>
    <g shape-rendering="crispEdges"><line x1="66.4" y1="279.9" x2="70.6" y2="279.9" stroke="#d4d4d4" stroke-width="1"/><line x1="66.4" y1="282.9" x2="70.6" y2="282.9" stroke="#d4d4d4" stroke-width="1"/><line x1="70.6" y1="279.9" x2="74.8" y2="279.9" stroke="#d4d4d4" stroke-width="1"/><line x1="70.6" y1="282.9" x2="74.8" y2="282.9" stroke="#d4d4d4" stroke-width="1"/></g>
    <g shape-rendering="crispEdges"><line x1="74.8" y1="279.9" x2="79" y2="279.9" stroke="#d4d4d4" stroke-width="1"/><line x1="74.8" y1="282.9" x2="79" y2="282.9" stroke="#d4d4d4" stroke-width="1"/><line x1="79" y1="279.9" x2="83.2" y2="279.9" stroke="#d4d4d4" stroke-width="1"/><line x1="79" y1="282.9" x2="83.2" y2="282.9" stroke="#d4d4d4" stroke-width="1"/></g>
    <g shape-rendering="crispEdges"><line x1="83.2" y1="279.9" x2="87.4" y2="279.9" stroke="#d4d4d4" stroke-width="1"/><line x1="83.2" y1="282.9" x2="87.4" y2="282.9" stroke="#d4d4d4" stroke-width="1"/><line x1="87.4" y1="279.9" x2="91.6" y2="279.9" stroke="#d4d4d4" stroke-width="1"/><line x1="87.4" y1="282.9" x2="91.6" y2="282.9" stroke="#d4d4d4" stroke-width="1"/></g>
    <g shape-rendering="crispEdges"><line x1="91.6" y1="279.9" x2="95.8" y2="279.9" stroke="#d4d4d4" stroke-width="1"/><line x1="91.6" y1="282.9" x2="95.8" y2="282.9" stroke="#d4d4d4" stroke-width="1"/><line x1="95.8" y1="279.9" x2="100" y2="279.9" stroke="#d4d4d4" stroke-width="1"/><line x1="95.8" y1="282.9" x2="100" y2="282.9" stroke="#d4d4d4" stroke-width="1"/></g>
    <g shape-rendering="crispEdges"><line x1="100" y1="279.9" x2="104.2" y2="279.9" stroke="#d4d4d4" stroke-width="1"/><line x1="100" y1="282.9" x2="104.2" y2="282.9" stroke="#d4d4d4" stroke-width="1"/><line x1="104.2" y1="279.9" x2="108.4" y2="279.9" stroke="#d4d4d4" stroke-width="1"/><line x1="104.2" y1="282.9" x2="108.4" y2="282.9" stroke="#d4d4d4" stroke-width="1"/></g>
    <g shape-rendering="crispEdges"><line x1="108.4" y1="279.9" x2="112.6" y2="279.9" stroke="#d4d4d4" stroke-width="1"/><line x1="108.4" y1="282.9" x2="112.6" y2="282.9" stroke="#d4d4d4" stroke-width="1"/><line x1="112.6" y1="279.9" x2="116.8" y2="279.9" stroke="#d4d4d4" stroke-width="1"/><line x1="112.6" y1="282.9" x2="116.8" y2="282.9" stroke="#d4d4d4" stroke-width="1"/></g>
    <g shape-rendering="crispEdges"><line x1="116.8" y1="279.9" x2="121" y2="279.9" stroke="#d4d4d4" stroke-width="1"/><line x1="116.8" y1="282.9" x2="121" y2="282.9" stroke="#d4d4d4" stroke-width="1"/><line x1="121" y1="279.9" x2="125.2" y2="279.9" stroke="#d4d4d4" stroke-width="1"/><line x1="121" y1="282.9" x2="125.2" y2="282.9" stroke="#d4d4d4" stroke-width="1"/></g>
    <g shape-rendering="crispEdges"><line x1="125.2" y1="279.9" x2="129.4" y2="279.9" stroke="#d4d4d4" stroke-width="1"/><line x1="125.2" y1="282.9" x2="129.4" y2="282.9" stroke="#d4d4d4" stroke-width="1"/><line x1="129.4" y1="279.9" x2="133.6" y2="279.9" stroke="#d4d4d4" stroke-width="1"/><line x1="129.4" y1="282.9" x2="133.6" y2="282.9" stroke="#d4d4d4" stroke-width="1"/></g>
    <g shape-rendering="crispEdges"><line x1="133.6" y1="279.9" x2="137.8" y2="279.9" stroke="#d4d4d4" stroke-width="1"/><line x1="133.6" y1="282.9" x2="137.8" y2="282.9" stroke="#d4d4d4" stroke-width="1"/><line x1="137.8" y1="279.9" x2="142" y2="279.9" stroke="#d4d4d4" stroke-width="1"/><line x1="137.8" y1="282.9" x2="142" y2="282.9" stroke="#d4d4d4" stroke-width="1"/></g>
    <g shape-rendering="crispEdges"><line x1="142" y1="279.9" x2="146.2" y2="279.9" stroke="#d4d4d4" stroke-width="1"/><line x1="142" y1="282.9" x2="146.2" y2="282.9" stroke="#d4d4d4" stroke-width="1"/><line x1="146.2" y1="279.9" x2="150.4" y2="279.9" stroke="#d4d4d4" stroke-width="1"/><line x1="146.2" y1="282.9" x2="150.4" y2="282.9" stroke="#d4d4d4" stroke-width="1"/></g>
    <g shape-rendering="crispEdges"><line x1="150.4" y1="279.9" x2="154.6" y2="279.9" stroke="#d4d4d4" stroke-width="1"/><line x1="150.4" y1="282.9" x2="154.6" y2="282.9" stroke="#d4d4d4" stroke-width="1"/><line x1="154.6" y1="279.9" x2="158.8" y2="279.9" stroke="#d4d4d4" stroke-width="1"/><line x1="154.6" y1="282.9" x2="158.8" y2="282.9" stroke="#d4d4d4" stroke-width="1"/></g>
    <g shape-rendering="crispEdges"><line x1="158.8" y1="279.9" x2="163" y2="279.9" stroke="#d4d4d4" stroke-width="1"/><line x1="158.8" y1="282.9" x2="163" y2="282.9" stroke="#d4d4d4" stroke-width="1"/><line x1="163" y1="279.9" x2="167.2" y2="279.9" stroke="#d4d4d4" stroke-width="1"/><line x1="163" y1="282.9" x2="167.2" y2="282.9" stroke="#d4d4d4" stroke-width="1"/></g>
    <g shape-rendering="crispEdges"><line x1="167.2" y1="279.9" x2="171.4" y2="279.9" stroke="#d4d4d4" stroke-width="1"/><line x1="167.2" y1="282.9" x2="171.4" y2="282.9" stroke="#d4d4d4" stroke-width="1"/><line x1="171.4" y1="279.9" x2="175.6" y2="279.9" stroke="#d4d4d4" stroke-width="1"/><line x1="171.4" y1="282.9" x2="175.6" y2="282.9" stroke="#d4d4d4" stroke-width="1"/></g>
    <g shape-rendering="crispEdges"><line x1="175.6" y1="279.9" x2="179.8" y2="279.9" stroke="#d4d4d4" stroke-width="1"/><line x1="175.6" y1="282.9" x2="179.8" y2="282.9" stroke="#d4d4d4" stroke-width="1"/><line x1="179.8" y1="279.9" x2="184" y2="279.9" stroke="#d4d4d4" stroke-width="1"/><line x1="179.8" y1="282.9" x2="184" y2="282.9" stroke="#d4d4d4" stroke-width="1"/></g>
    <g shape-rendering="crispEdges"><line x1="184" y1="279.9" x2="188.2" y2="279.9" stroke="#d4d4d4" stroke-width="1"/><line x1="184" y1="282.9" x2="188.2" y2="282.9" stroke="#d4d4d4" stroke-width="1"/><line x1="188.2" y1="279.9" x2="192.4" y2="279.9" stroke="#d4d4d4" stroke-width="1"/><line x1="188.2" y1="282.9" x2="192.4" y2="282.9" stroke="#d4d4d4" stroke-width="1"/></g>
    <g shape-rendering="crispEdges"><line x1="192.4" y1="279.9" x2="196.6" y2="279.9" stroke="#d4d4d4" stroke-width="1"/><line x1="192.4" y1="282.9" x2="196.6" y2="282.9" stroke="#d4d4d4" stroke-width="1"/><line x1="196.6" y1="279.9" x2="200.8" y2="279.9" stroke="#d4d4d4" stroke-width="1"/><line x1="196.6" y1="282.9" x2="200.8" y2="282.9" stroke="#d4d4d4" stroke-width="1"/></g>
    <g shape-rendering="crispEdges"><line x1="200.8" y1="279.9" x2="205" y2="279.9" stroke="#d4d4d4" stroke-width="1"/><line x1="200.8" y1="282.9" x2="205" y2="282.9" stroke="#d4d4d4" stroke-width="1"/><line x1="205" y1="279.9" x2="209.2" y2="279.9" stroke="#d4d4d4" stroke-width="1"/><line x1="205" y1="282.9" x2="209.2" y2="282.9" stroke="#d4d4d4" stroke-width="1"/></g>
    <g shape-rendering="crispEdges"><line x1="209.2" y1="279.9" x2="213.4" y2="279.9" stroke="#d4d4d4" stroke-width="1"/><line x1="209.2" y1="282.9" x2="213.4" y2="282.9" stroke="#d4d4d4" stroke-width="1"/><line x1="213.4" y1="279.9" x2="217.6" y2="279.9" stroke="#d4d4d4" stroke-width="1"/><line x1="213.4" y1="282.9" x2="217.6" y2="282.9" stroke="#d4d4d4" stroke-width="1"/></g>
    <g shape-rendering="crispEdges"><line x1="217.6" y1="279.9" x2="221.8" y2="279.9" stroke="#d4d4d4" stroke-width="1"/><line x1="217.6" y1="282.9" x2="221.8" y2="282.9" stroke="#d4d4d4" stroke-width="1"/><line x1="221.8" y1="279.9" x2="226" y2="279.9" stroke="#d4d4d4" stroke-width="1"/><line x1="221.8" y1="282.9" x2="226" y2="282.9" stroke="#d4d4d4" stroke-width="1"/></g>
    <g shape-rendering="crispEdges"><line x1="226" y1="279.9" x2="230.2" y2="279.9" stroke="#d4d4d4" stroke-width="1"/><line x1="226" y1="282.9" x2="230.2" y2="282.9" stroke="#d4d4d4" stroke-width="1"/><line x1="230.2" y1="279.9" x2="234.4" y2="279.9" stroke="#d4d4d4" stroke-width="1"/><line x1="230.2" y1="282.9" x2="234.4" y2="282.9" stroke="#d4d4d4" stroke-width="1"/></g>
    <g shape-rendering="crispEdges"><line x1="234.4" y1="279.9" x2="238.6" y2="279.9" stroke="#d4d4d4" stroke-width="1"/><line x1="234.4" y1="282.9" x2="238.6" y2="282.9" stroke="#d4d4d4" stroke-width="1"/><line x1="238.6" y1="279.9" x2="242.8" y2="279.9" stroke="#d4d4d4" stroke-width="1"/><line x1="238.6" y1="282.9" x2="242.8" y2="282.9" stroke="#d4d4d4" stroke-width="1"/></g>
    <g shape-rendering="crispEdges"><line x1="242.8" y1="279.9" x2="247" y2="279.9" stroke="#d4d4d4" stroke-width="1"/><line x1="242.8" y1="282.9" x2="247" y2="282.9" stroke="#d4d4d4" stroke-width="1"/><line x1="247" y1="279.9" x2="251.2" y2="279.9" stroke="#d4d4d4" stroke-width="1"/><line x1="247" y1="282.9" x2="251.2" y2="282.9" stroke="#d4d4d4" stroke-width="1"/></g>
    <g shape-rendering="crispEdges"><line x1="251.2" y1="279.9" x2="255.4" y2="279.9" stroke="#d4d4d4" stroke-width="1"/><line x1="251.2" y1="282.9" x2="255.4" y2="282.9" stroke="#d4d4d4" stroke-width="1"/><line x1="255.4" y1="279.9" x2="259.6" y2="279.9" stroke="#d4d4d4" stroke-width="1"/><line x1="255.4" y1="282.9" x2="259.6" y2="282.9" stroke="#d4d4d4" stroke-width="1"/></g>
    <g shape-rendering="crispEdges"><line x1="259.6" y1="279.9" x2="263.8" y2="279.9" stroke="#d4d4d4" stroke-width="1"/><line x1="259.6" y1="282.9" x2="263.8" y2="282.9" stroke="#d4d4d4" stroke-width="1"/><line x1="263.8" y1="279.9" x2="268" y2="279.9" stroke="#d4d4d4" stroke-width="1"/><line x1="263.8" y1="282.9" x2="268" y2="282.9" stroke="#d4d4d4" stroke-width="1"/></g>
    <g shape-rendering="crispEdges"><line x1="268" y1="279.9" x2="272.2" y2="279.9" stroke="#d4d4d4" stroke-width="1"/><line x1="268" y1="282.9" x2="272.2" y2="282.9" stroke="#d4d4d4" stroke-width="1"/><line x1="272.2" y1="279.9" x2="276.4" y2="279.9" stroke="#d4d4d4" stroke-width="1"/><line x1="272.2" y1="282.9" x2="276.4" y2="282.9" stroke="#d4d4d4" stroke-width="1"/></g>
    <g shape-rendering="crispEdges"><line x1="276.4" y1="279.9" x2="280.6" y2="279.9" stroke="#d4d4d4" stroke-width="1"/><line x1="276.4" y1="282.9" x2="280.6" y2="282.9" stroke="#d4d4d4" stroke-width="1"/><line x1="280.6" y1="279.9" x2="284.8" y2="279.9" stroke="#d4d4d4" stroke-width="1"/><line x1="280.6" y1="282.9" x2="284.8" y2="282.9" stroke="#d4d4d4" stroke-width="1"/></g>
    <g shape-rendering="crispEdges"><line x1="284.8" y1="279.9" x2="289" y2="279.9" stroke="#d4d4d4" stroke-width="1"/><line x1="284.8" y1="282.9" x2="289" y2="282.9" stroke="#d4d4d4" stroke-width="1"/><line x1="289" y1="279.9" x2="293.2" y2="279.9" stroke="#d4d4d4" stroke-width="1"/><line x1="289" y1="282.9" x2="293.2" y2="282.9" stroke="#d4d4d4" stroke-width="1"/></g>
    <g shape-rendering="crispEdges"><line x1="293.2" y1="279.9" x2="297.4" y2="279.9" stroke="#d4d4d4" stroke-width="1"/><line x1="293.2" y1="282.9" x2="297.4" y2="282.9" stroke="#d4d4d4" stroke-width="1"/><line x1="297.4" y1="279.9" x2="301.6" y2="279.9" stroke="#d4d4d4" stroke-width="1"/><line x1="297.4" y1="282.9" x2="301.6" y2="282.9" stroke="#d4d4d4" stroke-width="1"/></g>
    <g shape-rendering="crispEdges"><line x1="301.6" y1="279.9" x2="305.8" y2="279.9" stroke="#d4d4d4" stroke-width="1"/><line x1="301.6" y1="282.9" x2="305.8" y2="282.9" stroke="#d4d4d4" stroke-width="1"/><line x1="305.8" y1="279.9" x2="310" y2="279.9" stroke="#d4d4d4" stroke-width="1"/><line x1="305.8" y1="282.9" x2="310" y2="282.9" stroke="#d4d4d4" stroke-width="1"/></g>
    <g shape-rendering="crispEdges"><line x1="310" y1="279.9" x2="314.2" y2="279.9" stroke="#d4d4d4" stroke-width="1"/><line x1="310" y1="282.9" x2="314.2" y2="282.9" stroke="#d4d4d4" stroke-width="1"/><line x1="314.2" y1="279.9" x2="318.4" y2="279.9" stroke="#d4d4d4" stroke-width="1"/><line x1="314.2" y1="282.9" x2="318.4" y2="282.9" stroke="#d4d4d4" stroke-width="1"/></g>
    <g shape-rendering="crispEdges"><line x1="318.4" y1="279.9" x2="322.6" y2="279.9" stroke="#d4d4d4" stroke-width="1"/><line x1="318.4" y1="282.9" x2="322.6" y2="282.9" stroke="#d4d4d4" stroke-width="1"/><line x1="322.6" y1="279.9" x2="326.8" y2="279.9" stroke="#d4d4d4" stroke-width="1"/><line x1="322.6" y1="282.9" x2="326.8" y2="282.9" stroke="#d4d4d4" stroke-width="1"/></g>
    <g shape-rendering="crispEdges"><line x1="326.8" y1="279.9" x2="331" y2="279.9" stroke="#d4d4d4" stroke-width="1"/><line x1="326.8" y1="282.9" x2="331" y2="282.9" stroke="#d4d4d4" stroke-width="1"/><line x1="331" y1="279.9" x2="335.2" y2="279.9" stroke="#d4d4d4" stroke-width="1"/><line x1="331" y1="282.9" x2="335.2" y2="282.9" stroke="#d4d4d4" stroke-width="1"/></g>
    <g shape-rendering="crispEdges"><line x1="335.2" y1="279.9" x2="339.4" y2="279.9" stroke="#d4d4d4" stroke-width="1"/><line x1="335.2" y1="282.9" x2="339.4" y2="282.9" stroke="#d4d4d4" stroke-width="1"/><line x1="339.4" y1="279.9" x2="343.6" y2="279.9" stroke="#d4d4d4" stroke-width="1"/><line x1="339.4" y1="282.9" x2="343.6" y2="282.9" stroke="#d4d4d4" stroke-width="1"/></g>
    <g shape-rendering="crispEdges"><line x1="343.6" y1="279.9" x2="347.8" y2="279.9" stroke="#d4d4d4" stroke-width="1"/><line x1="343.6" y1="282.9" x2="347.8" y2="282.9" stroke="#d4d4d4" stroke-width="1"/><line x1="347.8" y1="279.9" x2="352" y2="279.9" stroke="#d4d4d4" stroke-width="1"/><line x1="347.8" y1="282.9" x2="352" y2="282.9" stroke="#d4d4d4" stroke-width="1"/></g>
    <g shape-rendering="crispEdges"><line x1="352" y1="279.9" x2="356.2" y2="279.9" stroke="#d4d4d4" stroke-width="1"/><line x1="352" y1="282.9" x2="356.2" y2="282.9" stroke="#d4d4d4" stroke-width="1"/><line x1="356.2" y1="279.9" x2="360.4" y2="279.9" stroke="#d4d4d4" stroke-width="1"/><line x1="356.2" y1="282.9" x2="360.4" y2="282.9" stroke="#d4d4d4" stroke-width="1"/></g>
    <g shape-rendering="crispEdges"><line x1="360.4" y1="279.9" x2="364.6" y2="279.9" stroke="#d4d4d4" stroke-width="1"/><line x1="360.4" y1="282.9" x2="364.6" y2="282.9" stroke="#d4d4d4" stroke-width="1"/><line x1="364.6" y1="279.9" x2="368.8" y2="279.9" stroke="#d4d4d4" stroke-width="1"/><line x1="364.6" y1="282.9" x2="368.8" y2="282.9" stroke="#d4d4d4" stroke-width="1"/></g>
    <g shape-rendering="crispEdges"><line x1="368.8" y1="279.9" x2="373" y2="279.9" stroke="#d4d4d4" stroke-width="1"/><line x1="368.8" y1="282.9" x2="373" y2="282.9" stroke="#d4d4d4" stroke-width="1"/><line x1="373" y1="279.9" x2="377.2" y2="279.9" stroke="#d4d4d4" stroke-width="1"/><line x1="373" y1="282.9" x2="377.2" y2="282.9" stroke="#d4d4d4" stroke-width="1"/></g>
    <g shape-rendering="crispEdges"><line x1="377.2" y1="279.9" x2="381.4" y2="279.9" stroke="#d4d4d4" stroke-width="1"/><line x1="377.2" y1="282.9" x2="381.4" y2="282.9" stroke="#d4d4d4" stroke-width="1"/><line x1="381.4" y1="279.9" x2="385.6" y2="279.9" stroke="#d4d4d4" stroke-width="1"/><line x1="381.4" y1="282.9" x2="385.6" y2="282.9" stroke="#d4d4d4" stroke-width="1"/></g>
    <g shape-rendering="crispEdges"><line x1="385.6" y1="279.9" x2="389.8" y2="279.9" stroke="#d4d4d4" stroke-width="1"/><line x1="385.6" y1="282.9" x2="389.8" y2="282.9" stroke="#d4d4d4" stroke-width="1"/><line x1="389.8" y1="279.9" x2="394" y2="279.9" stroke="#d4d4d4" stroke-width="1"/><line x1="389.8" y1="282.9" x2="394" y2="282.9" stroke="#d4d4d4" stroke-width="1"/></g>
    <g shape-rendering="crispEdges"><line x1="394" y1="279.9" x2="398.2" y2="279.9" stroke="#d4d4d4" stroke-width="1"/><line x1="394" y1="282.9" x2="398.2" y2="282.9" stroke="#d4d4d4" stroke-width="1"/><line x1="398.2" y1="279.9" x2="402.4" y2="279.9" stroke="#d4d4d4" stroke-width="1"/><line x1="398.2" y1="282.9" x2="402.4" y2="282.9" stroke="#d4d4d4" stroke-width="1"/></g>
    <g shape-rendering="crispEdges"><line x1="402.4" y1="279.9" x2="406.6" y2="279.9" stroke="#d4d4d4" stroke-width="1"/><line x1="402.4" y1="282.9" x2="406.6" y2="282.9" stroke="#d4d4d4" stroke-width="1"/><line x1="406.6" y1="279.9" x2="410.8" y2="279.9" stroke="#d4d4d4" stroke-width="1"/><line x1="406.6" y1="282.9" x2="410.8" y2="282.9" stroke="#d4d4d4" stroke-width="1"/></g>
    <g shape-rendering="crispEdges"><line x1="410.8" y1="279.9" x2="415" y2="279.9" stroke="#d4d4d4" stroke-width="1"/><line x1="410.8" y1="282.9" x2="415" y2="282.9" stroke="#d4d4d4" stroke-width="1"/><line x1="415" y1="279.9" x2="419.2" y2="279.9" stroke="#d4d4d4" stroke-width="1"/><line x1="415" y1="282.9" x2="419.2" y2="282.9" stroke="#d4d4d4" stroke-width="1"/></g>
    <g shape-rendering="crispEdges"><line x1="419.2" y1="279.9" x2="423.4" y2="279.9" stroke="#d4d4d4" stroke-width="1"/><line x1="419.2" y1="282.9" x2="423.4" y2="282.9" stroke="#d4d4d4" stroke-width="1"/><line x1="423.4" y1="279.9" x2="427.6" y2="279.9" stroke="#d4d4d4" stroke-width="1"/><line x1="423.4" y1="282.9" x2="427.6" y2="282.9" stroke="#d4d4d4" stroke-width="1"/></g>
    <g shape-rendering="crispEdges"><line x1="427.6" y1="279.9" x2="431.8" y2="279.9" stroke="#d4d4d4" stroke-width="1"/><line x1="427.6" y1="282.9" x2="431.8" y2="282.9" stroke="#d4d4d4" stroke-width="1"/><line x1="431.8" y1="279.9" x2="436" y2="279.9" stroke="#d4d4d4" stroke-width="1"/><line x1="431.8" y1="282.9" x2="436" y2="282.9" stroke="#d4d4d4" stroke-width="1"/></g>
    <g shape-rendering="crispEdges"><line x1="436" y1="279.9" x2="440.2" y2="279.9" stroke="#d4d4d4" stroke-width="1"/><line x1="436" y1="282.9" x2="440.2" y2="282.9" stroke="#d4d4d4" stroke-width="1"/><line x1="440.2" y1="279.9" x2="444.4" y2="279.9" stroke="#d4d4d4" stroke-width="1"/><line x1="440.2" y1="282.9" x2="444.4" y2="282.9" stroke="#d4d4d4" stroke-width="1"/></g>
    <g shape-rendering="crispEdges"><line x1="444.4" y1="279.9" x2="448.6" y2="279.9" stroke="#d4d4d4" stroke-width="1"/><line x1="444.4" y1="282.9" x2="448.6" y2="282.9" stroke="#d4d4d4" stroke-width="1"/><line x1="448.6" y1="279.9" x2="452.8" y2="279.9" stroke="#d4d4d4" stroke-width="1"/><line x1="448.6" y1="282.9" x2="452.8" y2="282.9" stroke="#d4d4d4" stroke-width="1"/></g>
    <g shape-rendering="crispEdges"><line x1="452.8" y1="279.9" x2="457" y2="279.9" stroke="#d4d4d4" stroke-width="1"/><line x1="452.8" y1="282.9" x2="457" y2="282.9" stroke="#d4d4d4" stroke-width="1"/><line x1="457" y1="279.9" x2="461.2" y2="279.9" stroke="#d4d4d4" stroke-width="1"/><line x1="457" y1="282.9" x2="461.2" y2="282.9" stroke="#d4d4d4" stroke-width="1"/></g>
    <g shape-rendering="crispEdges"><line x1="461.2" y1="279.9" x2="465.4" y2="279.9" stroke="#d4d4d4" stroke-width="1"/><line x1="461.2" y1="282.9" x2="465.4" y2="282.9" stroke="#d4d4d4" stroke-width="1"/><line x1="465.4" y1="279.9" x2="469.6" y2="279.9" stroke="#d4d4d4" stroke-width="1"/><line x1="465.4" y1="282.9" x2="469.6" y2="282.9" stroke="#d4d4d4" stroke-width="1"/></g>
    <g shape-rendering="crispEdges"><line x1="469.6" y1="279.9" x2="473.8" y2="279.9" stroke="#d4d4d4" stroke-width="1"/><line x1="469.6" y1="282.9" x2="473.8" y2="282.9" stroke="#d4d4d4" stroke-width="1"/><line x1="473.8" y1="279.9" x2="478" y2="279.9" stroke="#d4d4d4" stroke-width="1"/><line x1="473.8" y1="282.9" x2="478" y2="282.9" stroke="#d4d4d4" stroke-width="1"/></g>
    <g shape-rendering="crispEdges"><line x1="478" y1="279.9" x2="482.2" y2="279.9" stroke="#d4d4d4" stroke-width="1"/><line x1="478" y1="282.9" x2="482.2" y2="282.9" stroke="#d4d4d4" stroke-width="1"/><line x1="482.2" y1="279.9" x2="486.4" y2="279.9" stroke="#d4d4d4" stroke-width="1"/><line x1="482.2" y1="282.9" x2="486.4" y2="282.9" stroke="#d4d4d4" stroke-width="1"/></g>
    <g shape-rendering="crispEdges"><line x1="486.4" y1="279.9" x2="490.6" y2="279.9" stroke="#d4d4d4" stroke-width="1"/><line x1="486.4" y1="282.9" x2="490.6" y2="282.9" stroke="#d4d4d4" stroke-width="1"/><line x1="490.6" y1="279.9" x2="494.8" y2="279.9" stroke="#d4d4d4" stroke-width="1"/><line x1="490.6" y1="282.9" x2="494.8" y2="282.9" stroke="#d4d4d4" stroke-width="1"/></g>
    <g shape-rendering="crispEdges"><line x1="494.8" y1="279.9" x2="499" y2="279.9" stroke="#d4d4d4" stroke-width="1"/><line x1="494.8" y1="282.9" x2="499" y2="282.9" stroke="#d4d4d4" stroke-width="1"/><line x1="499" y1="279.9" x2="503.2" y2="279.9" stroke="#d4d4d4" stroke-width="1"/><line x1="499" y1="282.9" x2="503.2" y2="282.9" stroke="#d4d4d4" stroke-width="1"/></g>
    <g shape-rendering="crispEdges"><line x1="503.2" y1="279.9" x2="507.4" y2="279.9" stroke="#d4d4d4" stroke-width="1"/><line x1="503.2" y1="282.9" x2="507.4" y2="282.9" stroke="#d4d4d4" stroke-width="1"/><line x1="507.4" y1="279.9" x2="511.6" y2="279.9" stroke="#d4d4d4" stroke-width="1"/><line x1="507.4" y1="282.9" x2="511.6" y2="282.9" stroke="#d4d4d4" stroke-width="1"/></g>
    <g shape-rendering="crispEdges"><line x1="511.6" y1="279.9" x2="515.8" y2="279.9" stroke="#d4d4d4" stroke-width="1"/><line x1="511.6" y1="282.9" x2="515.8" y2="282.9" stroke="#d4d4d4" stroke-width="1"/><line x1="515.8" y1="279.9" x2="520" y2="279.9" stroke="#d4d4d4" stroke-width="1"/><line x1="515.8" y1="282.9" x2="520" y2="282.9" stroke="#d4d4d4" stroke-width="1"/></g>
    <g shape-rendering="crispEdges"><line x1="520" y1="279.9" x2="524.2" y2="279.9" stroke="#d4d4d4" stroke-width="1"/><line x1="520" y1="282.9" x2="524.2" y2="282.9" stroke="#d4d4d4" stroke-width="1"/><line x1="524.2" y1="279.9" x2="528.4" y2="279.9" stroke="#d4d4d4" stroke-width="1"/><line x1="524.2" y1="282.9" x2="528.4" y2="282.9" stroke="#d4d4d4" stroke-width="1"/></g>
    <g shape-rendering="crispEdges"><line x1="528.4" y1="279.9" x2="532.6" y2="279.9" stroke="#d4d4d4" stroke-width="1"/><line x1="528.4" y1="282.9" x2="532.6" y2="282.9" stroke="#d4d4d4" stroke-width="1"/><line x1="532.6" y1="279.9" x2="536.8" y2="279.9" stroke="#d4d4d4" stroke-width="1"/><line x1="532.6" y1="282.9" x2="536.8" y2="282.9" stroke="#d4d4d4" stroke-width="1"/></g>
    <g shape-rendering="crispEdges"><line x1="536.8" y1="279.9" x2="541" y2="279.9" stroke="#d4d4d4" stroke-width="1"/><line x1="536.8" y1="282.9" x2="541" y2="282.9" stroke="#d4d4d4" stroke-width="1"/><line x1="541" y1="279.9" x2="545.2" y2="279.9" stroke="#d4d4d4" stroke-width="1"/><line x1="541" y1="282.9" x2="545.2" y2="282.9" stroke="#d4d4d4" stroke-width="1"/></g>
    <g shape-rendering="crispEdges"><line x1="545.2" y1="279.9" x2="549.4" y2="279.9" stroke="#d4d4d4" stroke-width="1"/><line x1="545.2" y1="282.9" x2="549.4" y2="282.9" stroke="#d4d4d4" stroke-width="1"/><line x1="549.4" y1="279.9" x2="553.6" y2="279.9" stroke="#d4d4d4" stroke-width="1"/><line x1="549.4" y1="282.9" x2="553.6" y2="282.9" stroke="#d4d4d4" stroke-width="1"/></g>
    <g shape-rendering="crispEdges"><line x1="553.6" y1="279.9" x2="557.8" y2="279.9" stroke="#d4d4d4" stroke-width="1"/><line x1="553.6" y1="282.9" x2="557.8" y2="282.9" stroke="#d4d4d4" stroke-width="1"/><line x1="557.8" y1="279.9" x2="562" y2="279.9" stroke="#d4d4d4" stroke-width="1"/><line x1="557.8" y1="282.9" x2="562" y2="282.9" stroke="#d4d4d4" stroke-width="1"/></g>
    <g shape-rendering="crispEdges"><line x1="562" y1="279.9" x2="566.2" y2="279.9" stroke="#d4d4d4" stroke-width="1"/><line x1="562" y1="282.9" x2="566.2" y2="282.9" stroke="#d4d4d4" stroke-width="1"/><line x1="566.2" y1="279.9" x2="570.4" y2="279.9" stroke="#d4d4d4" stroke-width="1"/><line x1="566.2" y1="282.9" x2="570.4" y2="282.9" stroke="#d4d4d4" stroke-width="1"/></g>
    <g shape-rendering="crispEdges"><line x1="570.4" y1="279.9" x2="574.6" y2="279.9" stroke="#d4d4d4" stroke-width="1"/><line x1="570.4" y1="282.9" x2="574.6" y2="282.9" stroke="#d4d4d4" stroke-width="1"/><line x1="574.6" y1="279.9" x2="578.8" y2="279.9" stroke="#d4d4d4" stroke-width="1"/><line x1="574.6" y1="282.9" x2="578.8" y2="282.9" stroke="#d4d4d4" stroke-width="1"/></g>
    <g shape-rendering="crispEdges"><line x1="578.8" y1="279.9" x2="583" y2="279.9" stroke="#d4d4d4" stroke-width="1"/><line x1="578.8" y1="282.9" x2="583" y2="282.9" stroke="#d4d4d4" stroke-width="1"/><line x1="583" y1="279.9" x2="587.2" y2="279.9" stroke="#d4d4d4" stroke-width="1"/><line x1="583" y1="282.9" x2="587.2" y2="282.9" stroke="#d4d4d4" stroke-width="1"/></g>
    <g shape-rendering="crispEdges"><line x1="587.2" y1="279.9" x2="591.4" y2="279.9" stroke="#d4d4d4" stroke-width="1"/><line x1="587.2" y1="282.9" x2="591.4" y2="282.9" stroke="#d4d4d4" stroke-width="1"/><line x1="591.4" y1="279.9" x2="595.6" y2="279.9" stroke="#d4d4d4" stroke-width="1"/><line x1="591.4" y1="282.9" x2="595.6" y2="282.9" stroke="#d4d4d4" stroke-width="1"/></g>
    <g shape-rendering="crispEdges"><line x1="595.6" y1="279.9" x2="599.8" y2="279.9" stroke="#d4d4d4" stroke-width="1"/><line x1="595.6" y1="282.9" x2="599.8" y2="282.9" stroke="#d4d4d4" stroke-width="1"/><line x1="599.8" y1="279.9" x2="604" y2="279.9" stroke="#d4d4d4" stroke-width="1"/><line x1="599.8" y1="282.9" x2="604" y2="282.9" stroke="#d4d4d4" stroke-width="1"/></g>
    <g shape-rendering="crispEdges"><line x1="604" y1="279.9" x2="608.2" y2="279.9" stroke="#d4d4d4" stroke-width="1"/><line x1="604" y1="282.9" x2="608.2" y2="282.9" stroke="#d4d4d4" stroke-width="1"/><line x1="608.2" y1="279.9" x2="612.4" y2="279.9" stroke="#d4d4d4" stroke-width="1"/><line x1="608.2" y1="282.9" x2="612.4" y2="282.9" stroke="#d4d4d4" stroke-width="1"/></g>
    <g shape-rendering="crispEdges"><line x1="612.4" y1="279.9" x2="616.6" y2="279.9" stroke="#d4d4d4" stroke-width="1"/><line x1="612.4" y1="282.9" x2="616.6" y2="282.9" stroke="#d4d4d4" stroke-width="1"/><line x1="616.6" y1="279.9" x2="620.8" y2="279.9" stroke="#d4d4d4" stroke-width="1"/><line x1="616.6" y1="282.9" x2="620.8" y2="282.9" stroke="#d4d4d4" stroke-width="1"/></g>
    <g shape-rendering="crispEdges"><line x1="620.8" y1="279.9" x2="625" y2="279.9" stroke="#d4d4d4" stroke-width="1"/><line x1="620.8" y1="282.9" x2="625" y2="282.9" stroke="#d4d4d4" stroke-width="1"/><line x1="625" y1="279.9" x2="629.2" y2="279.9" stroke="#d4d4d4" stroke-width="1"/><line x1="625" y1="282.9" x2="629.2" y2="282.9" stroke="#d4d4d4" stroke-width="1"/></g>
    <g shape-rendering="crispEdges"><line x1="629.2" y1="279.9" x2="633.4" y2="279.9" stroke="#d4d4d4" stroke-width="1"/><line x1="629.2" y1="282.9" x2="633.4" y2="282.9" stroke="#d4d4d4" stroke-width="1"/><line x1="633.4" y1="279.9" x2="637.6" y2="279.9" stroke="#d4d4d4" stroke-width="1"/><line x1="633.4" y1="282.9" x2="637.6" y2="282.9" stroke="#d4d4d4" stroke-width="1"/></g>
    <g shape-rendering="crispEdges"><line x1="637.6" y1="279.9" x2="641.8" y2="279.9" stroke="#d4d4d4" stroke-width="1"/><line x1="637.6" y1="282.9" x2="641.8" y2="282.9" stroke="#d4d4d4" stroke-width="1"/><line x1="641.8" y1="279.9" x2="646" y2="279.9" stroke="#d4d4d4" stroke-width="1"/><line x1="641.8" y1="282.9" x2="646" y2="282.9" stroke="#d4d4d4" stroke-width="1"/></g>
    <g shape-rendering="crispEdges"><line x1="646" y1="279.9" x2="650.2" y2="279.9" stroke="#d4d4d4" stroke-width="1"/><line x1="646" y1="282.9" x2="650.2" y2="282.9" stroke="#d4d4d4" stroke-width="1"/><line x1="650.2" y1="279.9" x2="654.4" y2="279.9" stroke="#d4d4d4" stroke-width="1"/><line x1="650.2" y1="282.9" x2="654.4" y2="282.9" stroke="#d4d4d4" stroke-width="1"/></g>
    <g shape-rendering="crispEdges"><line x1="654.4" y1="279.9" x2="658.6" y2="279.9" stroke="#d4d4d4" stroke-width="1"/><line x1="654.4" y1="282.9" x2="658.6" y2="282.9" stroke="#d4d4d4" stroke-width="1"/><line x1="658.6" y1="279.9" x2="662.8" y2="279.9" stroke="#d4d4d4" stroke-width="1"/><line x1="658.6" y1="282.9" x2="662.8" y2="282.9" stroke="#d4d4d4" stroke-width="1"/></g>
    <g shape-rendering="crispEdges"><line x1="662.8" y1="279.9" x2="667" y2="279.9" stroke="#d4d4d4" stroke-width="1"/><line x1="662.8" y1="282.9" x2="667" y2="282.9" stroke="#d4d4d4" stroke-width="1"/><line x1="667" y1="279.9" x2="671.2" y2="279.9" stroke="#d4d4d4" stroke-width="1"/><line x1="667" y1="282.9" x2="671.2" y2="282.9" stroke="#d4d4d4" stroke-width="1"/></g>
    <g shape-rendering="crispEdges"><line x1="671.2" y1="279.9" x2="675.4" y2="279.9" stroke="#d4d4d4" stroke-width="1"/><line x1="671.2" y1="282.9" x2="675.4" y2="282.9" stroke="#d4d4d4" stroke-width="1"/><line x1="675.4" y1="279.9" x2="679.6" y2="279.9" stroke="#d4d4d4" stroke-width="1"/><line x1="675.4" y1="282.9" x2="679.6" y2="282.9" stroke="#d4d4d4" stroke-width="1"/></g>
    <g shape-rendering="crispEdges"><line x1="679.6" y1="279.9" x2="683.8" y2="279.9" stroke="#d4d4d4" stroke-width="1"/><line x1="679.6" y1="282.9" x2="683.8" y2="282.9" stroke="#d4d4d4" stroke-width="1"/><line x1="683.8" y1="279.9" x2="688" y2="279.9" stroke="#d4d4d4" stroke-width="1"/><line x1="683.8" y1="282.9" x2="688" y2="282.9" stroke="#d4d4d4" stroke-width="1"/></g>
  </g>
  <g class="text">
    <text y="70" font-family="'SF Mono', 'Monaco', 'Menlo', 'Ubuntu Mono', 'Consolas', 'Courier New', monospace" font-size="14" xml:space="preserve"><tspan x="16" fill="#d4d4d4">Monthly Trend</tspan></text>
    <text y="89.6" font-family="'SF Mono', 'Monaco', 'Menlo', 'Ubuntu Mono', 'Consolas', 'Courier New', monospace" font-size="14" xml:space="preserve"><tspan x="16" fill="#d4d4d4">90</tspan><tspan x="41.2" fill="#d4d4d4">                                                                     </tspan><tspan x="679.6" fill="#d4d4d4"> </tspan></text>
    <text y="109.2" font-family="'SF Mono', 'Monaco', 'Menlo', 'Ubuntu Mono', 'Consolas', 'Courier New', monospace" font-size="14" xml:space="preserve"><tspan x="16" fill="#d4d4d4">80</tspan><tspan x="41.2" fill="#d4d4d4">                                                        </tspan><tspan x="562" fill="#d4d4d4">      </tspan><tspan x="620.8" fill="#d4d4d4">       </tspan></text>
    <text y="128.8" font-family="'SF Mono', 'Monaco', 'Menlo', 'Ubuntu Mono', 'Consolas', 'Courier New', monospace" font-size="14" xml:space="preserve"><tspan x="16" fill="#d4d4d4">  </tspan><tspan x="41.2" fill="#d4d4d4">                                                       </tspan><tspan x="511.6" fill="#d4d4d4">      </tspan><tspan x="612.4" fill="#d4d4d4">         </tspan></text>
    <text y="148.4" font-family="'SF Mono', 'Monaco', 'Menlo', 'Ubuntu Mono', 'Consolas', 'Courier New', monospace" font-size="14" xml:space="preserve"><tspan x="16" fill="#d4d4d4">  </tspan><tspan x="41.2" fill="#d4d4d4">                            </tspan><tspan x="318.4" fill="#d4d4d4">         </tspan><tspan x="452.8" fill="#d4d4d4">     </tspan><tspan x="503.2" fill="#d4d4d4">                      </tspan></text>
    <text y="168" font-family="'SF Mono', 'Monaco', 'Menlo', 'Ubuntu Mono', 'Consolas', 'Courier New', monospace" font-size="14" xml:space="preserve"><tspan x="16" fill="#d4d4d4">60</tspan><tspan x="41.2" fill="#d4d4d4">                           </tspan><tspan x="276.4" fill="#d4d4d4">     </tspan><tspan x="326.8" fill="#d4d4d4">       </tspan><tspan x="394" fill="#d4d4d4">       </tspan><tspan x="494.8" fill="#d4d4d4">                       </tspan></text>
    <text y="187.6" font-family="'SF Mono', 'Monaco', 'Menlo', 'Ubuntu Mono', 'Consolas', 'Courier New', monospace" font-size="14" xml:space="preserve"><tspan x="16" fill="#d4d4d4">  </tspan><tspan x="41.2" fill="#d4d4d4">                   </tspan><tspan x="268" fill="#d4d4d4">       </tspan><tspan x="335.2" fill="#d4d4d4">     </tspan><tspan x="385.6" fill="#d4d4d4">                                    </tspan></text>
    <text y="207.2" font-family="'SF Mono', 'Monaco', 'Menlo', 'Ubuntu Mono', 'Consolas', 'Courier New', monospace" font-size="14" xml:space="preserve"><tspan x="16" fill="#d4d4d4">40</tspan><tspan x="41.2" fill="#d4d4d4">                  </tspan><tspan x="200.8" fill="#d4d4d4">                </tspan><tspan x="377.2" fill="#d4d4d4">                                     </tspan></text>
    <text y="226.8" font-family="'SF Mono', 'Monaco', 'Menlo', 'Ubuntu Mono', 'Consolas', 'Courier New', monospace" font-size="14" xml:space="preserve"><tspan x="16" fill="#d4d4d4">  </tspan><tspan x="41.2" fill="#d4d4d4">        </tspan><tspan x="167.2" fill="#d4d4d4">  </tspan><tspan x="192.4" fill="#d4d4d4">                                                           </tspan></text>
    <text y="246.4" font-family="'SF Mono', 'Monaco', 'Menlo', 'Ubuntu Mono', 'Consolas', 'Courier New', monospace" font-size="14" xml:space="preserve"><tspan x="16" fill="#d4d4d4">  </tspan><tspan x="41.2" fill="#d4d4d4">       </tspan><tspan x="108.4" fill="#d4d4d4">       </tspan><tspan x="184" fill="#d4d4d4">                                                            </tspan></text>
    <text y="266" font-family="'SF Mono', 'Monaco', 'Menlo', 'Ubuntu Mono', 'Consolas', 'Courier New', monospace" font-size="14" xml:space="preserve"><tspan x="16" fill="#d4d4d4">20</tspan><tspan x="41.2" fill="#d4d4d4">  </tspan><tspan x="100" fill="#d4d4d4">                                                                      </tspan></text>
    <text y="285.6" font-family="'SF Mono', 'Monaco', 'Menlo', 'Ubuntu Mono', 'Consolas', 'Courier New', monospace" font-size="14" xml:space="preserve"><tspan x="16" fill="#d4d4d4">  </tspan></text>
    <text y="305.2" font-family="'SF Mono', 'Monaco', 'Menlo', 'Ubuntu Mono', 'Consolas', 'Courier New', monospace" font-size="14" xml:space="preserve"><tspan x="16" fill="#d4d4d4">   20     35     28    50     65     45     70     60     85    75     90     80</tspan></text>
  </g>
  <text y="352.79999999999995" font-family="'SF Mono', 'Monaco', 'Menlo', 'Ubuntu Mono', 'Consolas', 'Courier New', monospace" font-size="10" xml:space="preserve"><tspan x="610" fill="#6a6a6a">chartscii-cli</tspan></text>
</svg>